ISO-10303-21;
HEADER;
/* Generated by software containing ST-Developer
 * from STEP Tools, Inc. (www.steptools.com) 
 */

FILE_DESCRIPTION(
/* description */ ('STEP AP214'),
/* implementation_level */ '2;1');

FILE_NAME(
/* name */ 'z tensioner opt top.step',
/* time_stamp */ '2026-03-07T13:23:06-05:00',
/* author */ (''),
/* organization */ (''),
/* preprocessor_version */ 'ST-DEVELOPER v20.1',
/* originating_system */ 'Autodesk Translation Framework v14.24.0.0',
/* authorisation */ '');

FILE_SCHEMA (('AUTOMOTIVE_DESIGN { 1 0 10303 214 3 1 1 }'));
ENDSEC;

DATA;
#10=MECHANICAL_DESIGN_GEOMETRIC_PRESENTATION_REPRESENTATION('',(#17),#1051);
#11=ITEM_DEFINED_TRANSFORMATION($,$,#565,#606);
#12=(
REPRESENTATION_RELATIONSHIP($,$,#1062,#1061)
REPRESENTATION_RELATIONSHIP_WITH_TRANSFORMATION(#11)
SHAPE_REPRESENTATION_RELATIONSHIP()
);
#13=CONTEXT_DEPENDENT_SHAPE_REPRESENTATION(#12,#1060);
#14=NEXT_ASSEMBLY_USAGE_OCCURRENCE('Component1:1','Component1:1',
'Component1:1',#1064,#1065,'Component1:1');
#15=SHAPE_REPRESENTATION_RELATIONSHIP('SRR','None',#1062,#16);
#16=ADVANCED_BREP_SHAPE_REPRESENTATION('',(#18),#1050);
#17=STYLED_ITEM('',(#1076),#18);
#18=MANIFOLD_SOLID_BREP('Body1',#551);
#19=ELLIPSE('',#600,7.90964981194344,7.90887866065448);
#20=B_SPLINE_CURVE_WITH_KNOTS('',3,(#816,#817,#818,#819,#820,#821,#822,
#823,#824,#825,#826,#827,#828,#829,#830,#831,#832,#833,#834,#835,#836,#837,
#838,#839,#840,#841,#842,#843,#844,#845,#846,#847,#848,#849,#850,#851,#852,
#853,#854,#855),.UNSPECIFIED.,.F.,.F.,(4,3,3,3,3,3,3,3,3,3,3,3,3,4),(0.,
0.0105968916662613,0.0326259728779175,0.0546550540895736,0.0602981098053756,
0.062675151640669,0.0646574529064281,0.066690095109972,0.0696557900110644,
0.0774567865457091,0.0945994415468597,0.114861843925921,0.127178476237976,
0.129285779347406),.UNSPECIFIED.);
#21=B_SPLINE_CURVE_WITH_KNOTS('',3,(#857,#858,#859,#860,#861),
 .UNSPECIFIED.,.F.,.F.,(4,1,4),(1.78467806754921,2.24399475256414,3.14159265358979),
 .UNSPECIFIED.);
#22=B_SPLINE_CURVE_WITH_KNOTS('',3,(#865,#866,#867,#868,#869,#870,#871,
#872,#873),.UNSPECIFIED.,.F.,.F.,(4,1,1,1,1,1,4),(-3.14159265358979,-2.24399475256414,
-1.34639685153848,-0.448798950512828,0.448798950512828,1.34639685153848,
1.57240734551256),.UNSPECIFIED.);
#23=B_SPLINE_CURVE_WITH_KNOTS('',3,(#874,#875,#876,#877,#878),
 .UNSPECIFIED.,.F.,.F.,(4,1,4),(1.57240734551256,2.24399475256414,3.14159265358979),
 .UNSPECIFIED.);
#24=B_SPLINE_CURVE_WITH_KNOTS('',3,(#880,#881,#882,#883,#884),
 .UNSPECIFIED.,.F.,.F.,(4,1,4),(-3.14159265358979,-2.24399475256414,-1.78467804313139),
 .UNSPECIFIED.);
#25=B_SPLINE_CURVE_WITH_KNOTS('',3,(#886,#887,#888,#889,#890,#891,#892,
#893,#894,#895,#896,#897,#898,#899,#900,#901,#902,#903,#904,#905,#906,#907,
#908,#909,#910,#911,#912,#913,#914,#915,#916,#917,#918,#919,#920,#921,#922,
#923,#924,#925),.UNSPECIFIED.,.F.,.F.,(4,3,3,3,3,3,3,3,3,3,3,3,3,4),(0.,
0.00210705356992956,0.0106543506945681,0.0327485414649274,0.0548427322352867,
0.0604908390833105,0.0628687704268019,0.0648512555331808,0.066883548124729,
0.0698477556284833,0.0776393809639011,0.0947381545381387,0.115056328604746,
0.12928130037021),.UNSPECIFIED.);
#26=B_SPLINE_CURVE_WITH_KNOTS('',3,(#926,#927,#928,#929,#930,#931),
 .UNSPECIFIED.,.F.,.F.,(4,1,1,4),(-1.33946133437994,-0.448798950512828,
0.448798950512828,1.33946133526111),.UNSPECIFIED.);
#27=B_SPLINE_SURFACE_WITH_KNOTS('',3,3,((#774,#775,#776,#777,#778,#779,
#780,#781,#782,#783),(#784,#785,#786,#787,#788,#789,#790,#791,#792,#793),
(#794,#795,#796,#797,#798,#799,#800,#801,#802,#803),(#804,#805,#806,#807,
#808,#809,#810,#811,#812,#813)),.UNSPECIFIED.,.F.,.T.,.F.,(4,4),(4,1,1,
1,1,1,1,4),(0.,1.),(-3.14159265358979,-2.24399475256414,-1.34639685153848,
-0.448798950512828,0.448798950512828,1.34639685153848,2.24399475256414,
3.14159265358979),.UNSPECIFIED.);
#28=FACE_BOUND('',#89,.T.);
#29=FACE_BOUND('',#90,.T.);
#30=FACE_BOUND('',#91,.T.);
#31=FACE_BOUND('',#105,.T.);
#32=FACE_BOUND('',#107,.T.);
#33=FACE_BOUND('',#108,.T.);
#34=PLANE('',#571);
#35=PLANE('',#575);
#36=PLANE('',#581);
#37=PLANE('',#584);
#38=PLANE('',#585);
#39=PLANE('',#586);
#40=PLANE('',#587);
#41=PLANE('',#591);
#42=PLANE('',#592);
#43=PLANE('',#593);
#44=PLANE('',#594);
#45=PLANE('',#595);
#46=PLANE('',#596);
#47=PLANE('',#597);
#48=PLANE('',#598);
#49=PLANE('',#601);
#50=PLANE('',#602);
#51=PLANE('',#603);
#52=PLANE('',#604);
#53=PLANE('',#605);
#54=CYLINDRICAL_SURFACE('',#569,1.8);
#55=CYLINDRICAL_SURFACE('',#576,2.6);
#56=CYLINDRICAL_SURFACE('',#579,1.75);
#57=FACE_OUTER_BOUND('',#86,.T.);
#58=FACE_OUTER_BOUND('',#87,.T.);
#59=FACE_OUTER_BOUND('',#88,.T.);
#60=FACE_OUTER_BOUND('',#92,.T.);
#61=FACE_OUTER_BOUND('',#93,.T.);
#62=FACE_OUTER_BOUND('',#94,.T.);
#63=FACE_OUTER_BOUND('',#95,.T.);
#64=FACE_OUTER_BOUND('',#96,.T.);
#65=FACE_OUTER_BOUND('',#97,.T.);
#66=FACE_OUTER_BOUND('',#98,.T.);
#67=FACE_OUTER_BOUND('',#99,.T.);
#68=FACE_OUTER_BOUND('',#100,.T.);
#69=FACE_OUTER_BOUND('',#101,.T.);
#70=FACE_OUTER_BOUND('',#102,.T.);
#71=FACE_OUTER_BOUND('',#103,.T.);
#72=FACE_OUTER_BOUND('',#104,.T.);
#73=FACE_OUTER_BOUND('',#106,.T.);
#74=FACE_OUTER_BOUND('',#109,.T.);
#75=FACE_OUTER_BOUND('',#110,.T.);
#76=FACE_OUTER_BOUND('',#111,.T.);
#77=FACE_OUTER_BOUND('',#112,.T.);
#78=FACE_OUTER_BOUND('',#113,.T.);
#79=FACE_OUTER_BOUND('',#114,.T.);
#80=FACE_OUTER_BOUND('',#115,.T.);
#81=FACE_OUTER_BOUND('',#116,.T.);
#82=FACE_OUTER_BOUND('',#117,.T.);
#83=FACE_OUTER_BOUND('',#118,.T.);
#84=FACE_OUTER_BOUND('',#119,.T.);
#85=FACE_OUTER_BOUND('',#120,.T.);
#86=EDGE_LOOP('',(#367,#368,#369,#370));
#87=EDGE_LOOP('',(#371,#372,#373,#374));
#88=EDGE_LOOP('',(#375,#376,#377,#378));
#89=EDGE_LOOP('',(#379));
#90=EDGE_LOOP('',(#380));
#91=EDGE_LOOP('',(#381));
#92=EDGE_LOOP('',(#382,#383,#384,#385,#386,#387,#388,#389,#390));
#93=EDGE_LOOP('',(#391,#392,#393,#394));
#94=EDGE_LOOP('',(#395,#396,#397,#398,#399));
#95=EDGE_LOOP('',(#400,#401,#402,#403));
#96=EDGE_LOOP('',(#404,#405,#406,#407));
#97=EDGE_LOOP('',(#408,#409,#410,#411));
#98=EDGE_LOOP('',(#412,#413,#414,#415));
#99=EDGE_LOOP('',(#416,#417,#418,#419));
#100=EDGE_LOOP('',(#420,#421,#422,#423));
#101=EDGE_LOOP('',(#424,#425,#426,#427));
#102=EDGE_LOOP('',(#428,#429,#430,#431,#432,#433));
#103=EDGE_LOOP('',(#434,#435,#436,#437));
#104=EDGE_LOOP('',(#438));
#105=EDGE_LOOP('',(#439));
#106=EDGE_LOOP('',(#440,#441,#442,#443,#444,#445,#446,#447,#448,#449,#450,
#451));
#107=EDGE_LOOP('',(#452));
#108=EDGE_LOOP('',(#453));
#109=EDGE_LOOP('',(#454,#455,#456,#457,#458,#459));
#110=EDGE_LOOP('',(#460,#461,#462,#463));
#111=EDGE_LOOP('',(#464,#465,#466,#467));
#112=EDGE_LOOP('',(#468,#469,#470,#471));
#113=EDGE_LOOP('',(#472,#473,#474,#475));
#114=EDGE_LOOP('',(#476,#477,#478,#479,#480,#481));
#115=EDGE_LOOP('',(#482,#483,#484,#485));
#116=EDGE_LOOP('',(#486,#487,#488,#489,#490,#491,#492,#493,#494,#495,#496,
#497,#498));
#117=EDGE_LOOP('',(#499,#500,#501,#502,#503,#504));
#118=EDGE_LOOP('',(#505,#506,#507,#508));
#119=EDGE_LOOP('',(#509,#510,#511,#512));
#120=EDGE_LOOP('',(#513,#514,#515,#516));
#121=LINE('',#755,#177);
#122=LINE('',#759,#178);
#123=LINE('',#764,#179);
#124=LINE('',#766,#180);
#125=LINE('',#768,#181);
#126=LINE('',#863,#182);
#127=LINE('',#934,#183);
#128=LINE('',#936,#184);
#129=LINE('',#937,#185);
#130=LINE('',#939,#186);
#131=LINE('',#942,#187);
#132=LINE('',#946,#188);
#133=LINE('',#950,#189);
#134=LINE('',#952,#190);
#135=LINE('',#953,#191);
#136=LINE('',#956,#192);
#137=LINE('',#960,#193);
#138=LINE('',#961,#194);
#139=LINE('',#963,#195);
#140=LINE('',#966,#196);
#141=LINE('',#968,#197);
#142=LINE('',#969,#198);
#143=LINE('',#972,#199);
#144=LINE('',#974,#200);
#145=LINE('',#976,#201);
#146=LINE('',#977,#202);
#147=LINE('',#982,#203);
#148=LINE('',#988,#204);
#149=LINE('',#990,#205);
#150=LINE('',#992,#206);
#151=LINE('',#993,#207);
#152=LINE('',#995,#208);
#153=LINE('',#997,#209);
#154=LINE('',#999,#210);
#155=LINE('',#1001,#211);
#156=LINE('',#1003,#212);
#157=LINE('',#1004,#213);
#158=LINE('',#1006,#214);
#159=LINE('',#1008,#215);
#160=LINE('',#1009,#216);
#161=LINE('',#1012,#217);
#162=LINE('',#1013,#218);
#163=LINE('',#1016,#219);
#164=LINE('',#1017,#220);
#165=LINE('',#1021,#221);
#166=LINE('',#1022,#222);
#167=LINE('',#1023,#223);
#168=LINE('',#1026,#224);
#169=LINE('',#1027,#225);
#170=LINE('',#1029,#226);
#171=LINE('',#1030,#227);
#172=LINE('',#1033,#228);
#173=LINE('',#1036,#229);
#174=LINE('',#1038,#230);
#175=LINE('',#1039,#231);
#176=LINE('',#1041,#232);
#177=VECTOR('',#615,1.95);
#178=VECTOR('',#620,1.55);
#179=VECTOR('',#625,10.);
#180=VECTOR('',#626,10.);
#181=VECTOR('',#627,10.);
#182=VECTOR('',#634,10.);
#183=VECTOR('',#637,1000.);
#184=VECTOR('',#638,1000.);
#185=VECTOR('',#639,1000.);
#186=VECTOR('',#642,2.5);
#187=VECTOR('',#645,1.9);
#188=VECTOR('',#650,1.5);
#189=VECTOR('',#655,10.);
#190=VECTOR('',#656,10.);
#191=VECTOR('',#657,10.);
#192=VECTOR('',#660,10.);
#193=VECTOR('',#665,10.);
#194=VECTOR('',#666,10.);
#195=VECTOR('',#669,10.);
#196=VECTOR('',#672,1000.);
#197=VECTOR('',#673,10.);
#198=VECTOR('',#674,1000.);
#199=VECTOR('',#677,1000.);
#200=VECTOR('',#678,1000.);
#201=VECTOR('',#679,1000.);
#202=VECTOR('',#680,10.);
#203=VECTOR('',#685,3.5);
#204=VECTOR('',#692,1000.);
#205=VECTOR('',#693,1000.);
#206=VECTOR('',#694,10.);
#207=VECTOR('',#695,10.);
#208=VECTOR('',#696,10.);
#209=VECTOR('',#697,1000.);
#210=VECTOR('',#698,1000.);
#211=VECTOR('',#699,1000.);
#212=VECTOR('',#700,10.);
#213=VECTOR('',#701,1000.);
#214=VECTOR('',#704,1000.);
#215=VECTOR('',#705,1000.);
#216=VECTOR('',#706,1000.);
#217=VECTOR('',#709,1000.);
#218=VECTOR('',#710,1000.);
#219=VECTOR('',#713,1000.);
#220=VECTOR('',#714,1000.);
#221=VECTOR('',#717,1000.);
#222=VECTOR('',#718,1000.);
#223=VECTOR('',#719,1000.);
#224=VECTOR('',#722,1000.);
#225=VECTOR('',#723,1000.);
#226=VECTOR('',#726,1000.);
#227=VECTOR('',#727,1000.);
#228=VECTOR('',#730,1000.);
#229=VECTOR('',#735,1000.);
#230=VECTOR('',#736,1000.);
#231=VECTOR('',#737,1000.);
#232=VECTOR('',#740,1000.);
#233=CIRCLE('',#567,2.1);
#234=CIRCLE('',#568,1.8);
#235=CIRCLE('',#570,1.8);
#236=CIRCLE('',#572,7.56874271037824);
#237=CIRCLE('',#573,2.05);
#238=CIRCLE('',#574,2.6);
#239=CIRCLE('',#578,1.75);
#240=CIRCLE('',#580,1.75);
#241=CIRCLE('',#583,7.87293136447944);
#242=CIRCLE('',#589,3.5);
#243=CIRCLE('',#590,3.32502267294815);
#244=VERTEX_POINT('',#752);
#245=VERTEX_POINT('',#754);
#246=VERTEX_POINT('',#758);
#247=VERTEX_POINT('',#762);
#248=VERTEX_POINT('',#763);
#249=VERTEX_POINT('',#765);
#250=VERTEX_POINT('',#767);
#251=VERTEX_POINT('',#770);
#252=VERTEX_POINT('',#772);
#253=VERTEX_POINT('',#814);
#254=VERTEX_POINT('',#815);
#255=VERTEX_POINT('',#856);
#256=VERTEX_POINT('',#862);
#257=VERTEX_POINT('',#864);
#258=VERTEX_POINT('',#879);
#259=VERTEX_POINT('',#885);
#260=VERTEX_POINT('',#933);
#261=VERTEX_POINT('',#935);
#262=VERTEX_POINT('',#941);
#263=VERTEX_POINT('',#945);
#264=VERTEX_POINT('',#949);
#265=VERTEX_POINT('',#951);
#266=VERTEX_POINT('',#955);
#267=VERTEX_POINT('',#959);
#268=VERTEX_POINT('',#965);
#269=VERTEX_POINT('',#967);
#270=VERTEX_POINT('',#971);
#271=VERTEX_POINT('',#973);
#272=VERTEX_POINT('',#975);
#273=VERTEX_POINT('',#979);
#274=VERTEX_POINT('',#981);
#275=VERTEX_POINT('',#986);
#276=VERTEX_POINT('',#987);
#277=VERTEX_POINT('',#989);
#278=VERTEX_POINT('',#991);
#279=VERTEX_POINT('',#994);
#280=VERTEX_POINT('',#996);
#281=VERTEX_POINT('',#998);
#282=VERTEX_POINT('',#1000);
#283=VERTEX_POINT('',#1002);
#284=VERTEX_POINT('',#1007);
#285=VERTEX_POINT('',#1011);
#286=VERTEX_POINT('',#1015);
#287=VERTEX_POINT('',#1019);
#288=VERTEX_POINT('',#1020);
#289=VERTEX_POINT('',#1025);
#290=VERTEX_POINT('',#1032);
#291=VERTEX_POINT('',#1037);
#292=EDGE_CURVE('',#244,#244,#233,.T.);
#293=EDGE_CURVE('',#244,#245,#121,.T.);
#294=EDGE_CURVE('',#245,#245,#234,.T.);
#295=EDGE_CURVE('',#245,#246,#122,.T.);
#296=EDGE_CURVE('',#246,#246,#235,.F.);
#297=EDGE_CURVE('',#247,#248,#123,.T.);
#298=EDGE_CURVE('',#249,#247,#124,.T.);
#299=EDGE_CURVE('',#250,#249,#125,.T.);
#300=EDGE_CURVE('',#248,#250,#236,.T.);
#301=EDGE_CURVE('',#251,#251,#237,.T.);
#302=EDGE_CURVE('',#252,#252,#238,.T.);
#303=EDGE_CURVE('',#253,#254,#20,.T.);
#304=EDGE_CURVE('',#253,#255,#21,.T.);
#305=EDGE_CURVE('',#255,#256,#126,.T.);
#306=EDGE_CURVE('',#256,#257,#22,.T.);
#307=EDGE_CURVE('',#257,#256,#23,.T.);
#308=EDGE_CURVE('',#255,#258,#24,.T.);
#309=EDGE_CURVE('',#259,#258,#25,.T.);
#310=EDGE_CURVE('',#259,#254,#26,.T.);
#311=EDGE_CURVE('',#259,#260,#127,.T.);
#312=EDGE_CURVE('',#260,#261,#128,.T.);
#313=EDGE_CURVE('',#261,#254,#129,.T.);
#314=EDGE_CURVE('',#257,#252,#130,.T.);
#315=EDGE_CURVE('',#251,#262,#131,.T.);
#316=EDGE_CURVE('',#262,#262,#239,.T.);
#317=EDGE_CURVE('',#262,#263,#132,.T.);
#318=EDGE_CURVE('',#263,#263,#240,.F.);
#319=EDGE_CURVE('',#248,#264,#133,.T.);
#320=EDGE_CURVE('',#264,#265,#134,.T.);
#321=EDGE_CURVE('',#247,#265,#135,.T.);
#322=EDGE_CURVE('',#250,#266,#136,.T.);
#323=EDGE_CURVE('',#266,#264,#241,.T.);
#324=EDGE_CURVE('',#267,#266,#137,.T.);
#325=EDGE_CURVE('',#249,#267,#138,.T.);
#326=EDGE_CURVE('',#265,#267,#139,.T.);
#327=EDGE_CURVE('',#268,#265,#140,.T.);
#328=EDGE_CURVE('',#269,#268,#141,.T.);
#329=EDGE_CURVE('',#267,#269,#142,.T.);
#330=EDGE_CURVE('',#264,#270,#143,.T.);
#331=EDGE_CURVE('',#270,#271,#144,.T.);
#332=EDGE_CURVE('',#271,#272,#145,.T.);
#333=EDGE_CURVE('',#268,#272,#146,.T.);
#334=EDGE_CURVE('',#273,#273,#242,.T.);
#335=EDGE_CURVE('',#273,#274,#147,.T.);
#336=EDGE_CURVE('',#274,#274,#243,.T.);
#337=EDGE_CURVE('',#275,#276,#148,.T.);
#338=EDGE_CURVE('',#277,#276,#149,.T.);
#339=EDGE_CURVE('',#277,#278,#150,.T.);
#340=EDGE_CURVE('',#278,#269,#151,.T.);
#341=EDGE_CURVE('',#272,#279,#152,.T.);
#342=EDGE_CURVE('',#280,#279,#153,.T.);
#343=EDGE_CURVE('',#281,#280,#154,.T.);
#344=EDGE_CURVE('',#282,#281,#155,.T.);
#345=EDGE_CURVE('',#282,#283,#156,.T.);
#346=EDGE_CURVE('',#275,#283,#157,.T.);
#347=EDGE_CURVE('',#261,#282,#158,.T.);
#348=EDGE_CURVE('',#284,#281,#159,.T.);
#349=EDGE_CURVE('',#253,#284,#160,.T.);
#350=EDGE_CURVE('',#285,#280,#161,.T.);
#351=EDGE_CURVE('',#284,#285,#162,.T.);
#352=EDGE_CURVE('',#279,#286,#163,.T.);
#353=EDGE_CURVE('',#285,#286,#164,.T.);
#354=EDGE_CURVE('',#287,#288,#165,.T.);
#355=EDGE_CURVE('',#287,#277,#166,.T.);
#356=EDGE_CURVE('',#276,#288,#167,.T.);
#357=EDGE_CURVE('',#289,#275,#168,.T.);
#358=EDGE_CURVE('',#288,#289,#169,.T.);
#359=EDGE_CURVE('',#283,#260,#170,.T.);
#360=EDGE_CURVE('',#289,#258,#171,.T.);
#361=EDGE_CURVE('',#290,#266,#172,.T.);
#362=EDGE_CURVE('',#270,#290,#19,.T.);
#363=EDGE_CURVE('',#286,#271,#173,.T.);
#364=EDGE_CURVE('',#291,#290,#174,.T.);
#365=EDGE_CURVE('',#291,#287,#175,.T.);
#366=EDGE_CURVE('',#278,#291,#176,.T.);
#367=ORIENTED_EDGE('',*,*,#292,.T.);
#368=ORIENTED_EDGE('',*,*,#293,.T.);
#369=ORIENTED_EDGE('',*,*,#294,.T.);
#370=ORIENTED_EDGE('',*,*,#293,.F.);
#371=ORIENTED_EDGE('',*,*,#294,.F.);
#372=ORIENTED_EDGE('',*,*,#295,.T.);
#373=ORIENTED_EDGE('',*,*,#296,.F.);
#374=ORIENTED_EDGE('',*,*,#295,.F.);
#375=ORIENTED_EDGE('',*,*,#297,.F.);
#376=ORIENTED_EDGE('',*,*,#298,.F.);
#377=ORIENTED_EDGE('',*,*,#299,.F.);
#378=ORIENTED_EDGE('',*,*,#300,.F.);
#379=ORIENTED_EDGE('',*,*,#301,.F.);
#380=ORIENTED_EDGE('',*,*,#302,.T.);
#381=ORIENTED_EDGE('',*,*,#292,.F.);
#382=ORIENTED_EDGE('',*,*,#303,.F.);
#383=ORIENTED_EDGE('',*,*,#304,.T.);
#384=ORIENTED_EDGE('',*,*,#305,.T.);
#385=ORIENTED_EDGE('',*,*,#306,.T.);
#386=ORIENTED_EDGE('',*,*,#307,.T.);
#387=ORIENTED_EDGE('',*,*,#305,.F.);
#388=ORIENTED_EDGE('',*,*,#308,.T.);
#389=ORIENTED_EDGE('',*,*,#309,.F.);
#390=ORIENTED_EDGE('',*,*,#310,.T.);
#391=ORIENTED_EDGE('',*,*,#310,.F.);
#392=ORIENTED_EDGE('',*,*,#311,.T.);
#393=ORIENTED_EDGE('',*,*,#312,.T.);
#394=ORIENTED_EDGE('',*,*,#313,.T.);
#395=ORIENTED_EDGE('',*,*,#306,.F.);
#396=ORIENTED_EDGE('',*,*,#307,.F.);
#397=ORIENTED_EDGE('',*,*,#314,.T.);
#398=ORIENTED_EDGE('',*,*,#302,.F.);
#399=ORIENTED_EDGE('',*,*,#314,.F.);
#400=ORIENTED_EDGE('',*,*,#301,.T.);
#401=ORIENTED_EDGE('',*,*,#315,.T.);
#402=ORIENTED_EDGE('',*,*,#316,.T.);
#403=ORIENTED_EDGE('',*,*,#315,.F.);
#404=ORIENTED_EDGE('',*,*,#316,.F.);
#405=ORIENTED_EDGE('',*,*,#317,.T.);
#406=ORIENTED_EDGE('',*,*,#318,.F.);
#407=ORIENTED_EDGE('',*,*,#317,.F.);
#408=ORIENTED_EDGE('',*,*,#297,.T.);
#409=ORIENTED_EDGE('',*,*,#319,.T.);
#410=ORIENTED_EDGE('',*,*,#320,.T.);
#411=ORIENTED_EDGE('',*,*,#321,.F.);
#412=ORIENTED_EDGE('',*,*,#322,.T.);
#413=ORIENTED_EDGE('',*,*,#323,.T.);
#414=ORIENTED_EDGE('',*,*,#319,.F.);
#415=ORIENTED_EDGE('',*,*,#300,.T.);
#416=ORIENTED_EDGE('',*,*,#324,.T.);
#417=ORIENTED_EDGE('',*,*,#322,.F.);
#418=ORIENTED_EDGE('',*,*,#299,.T.);
#419=ORIENTED_EDGE('',*,*,#325,.T.);
#420=ORIENTED_EDGE('',*,*,#326,.T.);
#421=ORIENTED_EDGE('',*,*,#325,.F.);
#422=ORIENTED_EDGE('',*,*,#298,.T.);
#423=ORIENTED_EDGE('',*,*,#321,.T.);
#424=ORIENTED_EDGE('',*,*,#326,.F.);
#425=ORIENTED_EDGE('',*,*,#327,.F.);
#426=ORIENTED_EDGE('',*,*,#328,.F.);
#427=ORIENTED_EDGE('',*,*,#329,.F.);
#428=ORIENTED_EDGE('',*,*,#320,.F.);
#429=ORIENTED_EDGE('',*,*,#330,.T.);
#430=ORIENTED_EDGE('',*,*,#331,.T.);
#431=ORIENTED_EDGE('',*,*,#332,.T.);
#432=ORIENTED_EDGE('',*,*,#333,.F.);
#433=ORIENTED_EDGE('',*,*,#327,.T.);
#434=ORIENTED_EDGE('',*,*,#334,.F.);
#435=ORIENTED_EDGE('',*,*,#335,.T.);
#436=ORIENTED_EDGE('',*,*,#336,.F.);
#437=ORIENTED_EDGE('',*,*,#335,.F.);
#438=ORIENTED_EDGE('',*,*,#336,.T.);
#439=ORIENTED_EDGE('',*,*,#318,.T.);
#440=ORIENTED_EDGE('',*,*,#337,.T.);
#441=ORIENTED_EDGE('',*,*,#338,.F.);
#442=ORIENTED_EDGE('',*,*,#339,.T.);
#443=ORIENTED_EDGE('',*,*,#340,.T.);
#444=ORIENTED_EDGE('',*,*,#328,.T.);
#445=ORIENTED_EDGE('',*,*,#333,.T.);
#446=ORIENTED_EDGE('',*,*,#341,.T.);
#447=ORIENTED_EDGE('',*,*,#342,.F.);
#448=ORIENTED_EDGE('',*,*,#343,.F.);
#449=ORIENTED_EDGE('',*,*,#344,.F.);
#450=ORIENTED_EDGE('',*,*,#345,.T.);
#451=ORIENTED_EDGE('',*,*,#346,.F.);
#452=ORIENTED_EDGE('',*,*,#296,.T.);
#453=ORIENTED_EDGE('',*,*,#334,.T.);
#454=ORIENTED_EDGE('',*,*,#313,.F.);
#455=ORIENTED_EDGE('',*,*,#347,.T.);
#456=ORIENTED_EDGE('',*,*,#344,.T.);
#457=ORIENTED_EDGE('',*,*,#348,.F.);
#458=ORIENTED_EDGE('',*,*,#349,.F.);
#459=ORIENTED_EDGE('',*,*,#303,.T.);
#460=ORIENTED_EDGE('',*,*,#350,.F.);
#461=ORIENTED_EDGE('',*,*,#351,.F.);
#462=ORIENTED_EDGE('',*,*,#348,.T.);
#463=ORIENTED_EDGE('',*,*,#343,.T.);
#464=ORIENTED_EDGE('',*,*,#342,.T.);
#465=ORIENTED_EDGE('',*,*,#352,.T.);
#466=ORIENTED_EDGE('',*,*,#353,.F.);
#467=ORIENTED_EDGE('',*,*,#350,.T.);
#468=ORIENTED_EDGE('',*,*,#354,.F.);
#469=ORIENTED_EDGE('',*,*,#355,.T.);
#470=ORIENTED_EDGE('',*,*,#338,.T.);
#471=ORIENTED_EDGE('',*,*,#356,.T.);
#472=ORIENTED_EDGE('',*,*,#337,.F.);
#473=ORIENTED_EDGE('',*,*,#357,.F.);
#474=ORIENTED_EDGE('',*,*,#358,.F.);
#475=ORIENTED_EDGE('',*,*,#356,.F.);
#476=ORIENTED_EDGE('',*,*,#346,.T.);
#477=ORIENTED_EDGE('',*,*,#359,.T.);
#478=ORIENTED_EDGE('',*,*,#311,.F.);
#479=ORIENTED_EDGE('',*,*,#309,.T.);
#480=ORIENTED_EDGE('',*,*,#360,.F.);
#481=ORIENTED_EDGE('',*,*,#357,.T.);
#482=ORIENTED_EDGE('',*,*,#323,.F.);
#483=ORIENTED_EDGE('',*,*,#361,.F.);
#484=ORIENTED_EDGE('',*,*,#362,.F.);
#485=ORIENTED_EDGE('',*,*,#330,.F.);
#486=ORIENTED_EDGE('',*,*,#304,.F.);
#487=ORIENTED_EDGE('',*,*,#349,.T.);
#488=ORIENTED_EDGE('',*,*,#351,.T.);
#489=ORIENTED_EDGE('',*,*,#353,.T.);
#490=ORIENTED_EDGE('',*,*,#363,.T.);
#491=ORIENTED_EDGE('',*,*,#331,.F.);
#492=ORIENTED_EDGE('',*,*,#362,.T.);
#493=ORIENTED_EDGE('',*,*,#364,.F.);
#494=ORIENTED_EDGE('',*,*,#365,.T.);
#495=ORIENTED_EDGE('',*,*,#354,.T.);
#496=ORIENTED_EDGE('',*,*,#358,.T.);
#497=ORIENTED_EDGE('',*,*,#360,.T.);
#498=ORIENTED_EDGE('',*,*,#308,.F.);
#499=ORIENTED_EDGE('',*,*,#324,.F.);
#500=ORIENTED_EDGE('',*,*,#329,.T.);
#501=ORIENTED_EDGE('',*,*,#340,.F.);
#502=ORIENTED_EDGE('',*,*,#366,.T.);
#503=ORIENTED_EDGE('',*,*,#364,.T.);
#504=ORIENTED_EDGE('',*,*,#361,.T.);
#505=ORIENTED_EDGE('',*,*,#339,.F.);
#506=ORIENTED_EDGE('',*,*,#355,.F.);
#507=ORIENTED_EDGE('',*,*,#365,.F.);
#508=ORIENTED_EDGE('',*,*,#366,.F.);
#509=ORIENTED_EDGE('',*,*,#345,.F.);
#510=ORIENTED_EDGE('',*,*,#347,.F.);
#511=ORIENTED_EDGE('',*,*,#312,.F.);
#512=ORIENTED_EDGE('',*,*,#359,.F.);
#513=ORIENTED_EDGE('',*,*,#341,.F.);
#514=ORIENTED_EDGE('',*,*,#332,.F.);
#515=ORIENTED_EDGE('',*,*,#363,.F.);
#516=ORIENTED_EDGE('',*,*,#352,.F.);
#517=CONICAL_SURFACE('',#566,1.95,0.785398163397448);
#518=CONICAL_SURFACE('',#577,1.9,0.785398163397448);
#519=CONICAL_SURFACE('',#582,7.72083703742884,0.792380434079696);
#520=CONICAL_SURFACE('',#588,3.5,0.0872664625997165);
#521=CONICAL_SURFACE('',#599,7.90911932511665,0.0139626340159542);
#522=ADVANCED_FACE('',(#57),#517,.F.);
#523=ADVANCED_FACE('',(#58),#54,.F.);
#524=ADVANCED_FACE('',(#59,#28,#29,#30),#34,.T.);
#525=ADVANCED_FACE('',(#60),#27,.T.);
#526=ADVANCED_FACE('',(#61),#35,.T.);
#527=ADVANCED_FACE('',(#62),#55,.F.);
#528=ADVANCED_FACE('',(#63),#518,.F.);
#529=ADVANCED_FACE('',(#64),#56,.F.);
#530=ADVANCED_FACE('',(#65),#36,.T.);
#531=ADVANCED_FACE('',(#66),#519,.T.);
#532=ADVANCED_FACE('',(#67),#37,.T.);
#533=ADVANCED_FACE('',(#68),#38,.T.);
#534=ADVANCED_FACE('',(#69),#39,.T.);
#535=ADVANCED_FACE('',(#70),#40,.T.);
#536=ADVANCED_FACE('',(#71),#520,.T.);
#537=ADVANCED_FACE('',(#72,#31),#41,.F.);
#538=ADVANCED_FACE('',(#73,#32,#33),#42,.F.);
#539=ADVANCED_FACE('',(#74),#43,.T.);
#540=ADVANCED_FACE('',(#75),#44,.T.);
#541=ADVANCED_FACE('',(#76),#45,.T.);
#542=ADVANCED_FACE('',(#77),#46,.T.);
#543=ADVANCED_FACE('',(#78),#47,.F.);
#544=ADVANCED_FACE('',(#79),#48,.T.);
#545=ADVANCED_FACE('',(#80),#521,.T.);
#546=ADVANCED_FACE('',(#81),#49,.T.);
#547=ADVANCED_FACE('',(#82),#50,.T.);
#548=ADVANCED_FACE('',(#83),#51,.F.);
#549=ADVANCED_FACE('',(#84),#52,.F.);
#550=ADVANCED_FACE('',(#85),#53,.F.);
#551=CLOSED_SHELL('',(#522,#523,#524,#525,#526,#527,#528,#529,#530,#531,
#532,#533,#534,#535,#536,#537,#538,#539,#540,#541,#542,#543,#544,#545,#546,
#547,#548,#549,#550));
#552=DERIVED_UNIT_ELEMENT(#554,1.);
#553=DERIVED_UNIT_ELEMENT(#1053,-3.);
#554=(
MASS_UNIT()
NAMED_UNIT(*)
SI_UNIT(.KILO.,.GRAM.)
);
#555=DERIVED_UNIT((#552,#553));
#556=MEASURE_REPRESENTATION_ITEM('density measure',
POSITIVE_RATIO_MEASURE(1060.),#555);
#557=PROPERTY_DEFINITION_REPRESENTATION(#562,#559);
#558=PROPERTY_DEFINITION_REPRESENTATION(#563,#560);
#559=REPRESENTATION('material name',(#561),#1050);
#560=REPRESENTATION('density',(#556),#1050);
#561=DESCRIPTIVE_REPRESENTATION_ITEM('ABS Plastic','ABS Plastic');
#562=PROPERTY_DEFINITION('material property','material name',#1065);
#563=PROPERTY_DEFINITION('material property','density of part',#1065);
#564=AXIS2_PLACEMENT_3D('',#749,#607,#608);
#565=AXIS2_PLACEMENT_3D('',#750,#609,#610);
#566=AXIS2_PLACEMENT_3D('',#751,#611,#612);
#567=AXIS2_PLACEMENT_3D('',#753,#613,#614);
#568=AXIS2_PLACEMENT_3D('',#756,#616,#617);
#569=AXIS2_PLACEMENT_3D('',#757,#618,#619);
#570=AXIS2_PLACEMENT_3D('',#760,#621,#622);
#571=AXIS2_PLACEMENT_3D('',#761,#623,#624);
#572=AXIS2_PLACEMENT_3D('',#769,#628,#629);
#573=AXIS2_PLACEMENT_3D('',#771,#630,#631);
#574=AXIS2_PLACEMENT_3D('',#773,#632,#633);
#575=AXIS2_PLACEMENT_3D('',#932,#635,#636);
#576=AXIS2_PLACEMENT_3D('',#938,#640,#641);
#577=AXIS2_PLACEMENT_3D('',#940,#643,#644);
#578=AXIS2_PLACEMENT_3D('',#943,#646,#647);
#579=AXIS2_PLACEMENT_3D('',#944,#648,#649);
#580=AXIS2_PLACEMENT_3D('',#947,#651,#652);
#581=AXIS2_PLACEMENT_3D('',#948,#653,#654);
#582=AXIS2_PLACEMENT_3D('',#954,#658,#659);
#583=AXIS2_PLACEMENT_3D('',#957,#661,#662);
#584=AXIS2_PLACEMENT_3D('',#958,#663,#664);
#585=AXIS2_PLACEMENT_3D('',#962,#667,#668);
#586=AXIS2_PLACEMENT_3D('',#964,#670,#671);
#587=AXIS2_PLACEMENT_3D('',#970,#675,#676);
#588=AXIS2_PLACEMENT_3D('',#978,#681,#682);
#589=AXIS2_PLACEMENT_3D('',#980,#683,#684);
#590=AXIS2_PLACEMENT_3D('',#983,#686,#687);
#591=AXIS2_PLACEMENT_3D('',#984,#688,#689);
#592=AXIS2_PLACEMENT_3D('',#985,#690,#691);
#593=AXIS2_PLACEMENT_3D('',#1005,#702,#703);
#594=AXIS2_PLACEMENT_3D('',#1010,#707,#708);
#595=AXIS2_PLACEMENT_3D('',#1014,#711,#712);
#596=AXIS2_PLACEMENT_3D('',#1018,#715,#716);
#597=AXIS2_PLACEMENT_3D('',#1024,#720,#721);
#598=AXIS2_PLACEMENT_3D('',#1028,#724,#725);
#599=AXIS2_PLACEMENT_3D('',#1031,#728,#729);
#600=AXIS2_PLACEMENT_3D('',#1034,#731,#732);
#601=AXIS2_PLACEMENT_3D('',#1035,#733,#734);
#602=AXIS2_PLACEMENT_3D('',#1040,#738,#739);
#603=AXIS2_PLACEMENT_3D('',#1042,#741,#742);
#604=AXIS2_PLACEMENT_3D('',#1043,#743,#744);
#605=AXIS2_PLACEMENT_3D('',#1044,#745,#746);
#606=AXIS2_PLACEMENT_3D('',#1045,#747,#748);
#607=DIRECTION('axis',(0.,0.,1.));
#608=DIRECTION('refdir',(1.,0.,0.));
#609=DIRECTION('axis',(0.,0.,1.));
#610=DIRECTION('refdir',(1.,0.,0.));
#611=DIRECTION('center_axis',(0.,0.,1.));
#612=DIRECTION('ref_axis',(-1.,0.,0.));
#613=DIRECTION('center_axis',(0.,0.,1.));
#614=DIRECTION('ref_axis',(-1.,0.,0.));
#615=DIRECTION('',(-0.707106781186547,-8.65956056235493E-17,-0.707106781186548));
#616=DIRECTION('center_axis',(0.,0.,-1.));
#617=DIRECTION('ref_axis',(-1.,0.,0.));
#618=DIRECTION('center_axis',(0.,0.,-1.));
#619=DIRECTION('ref_axis',(-1.,0.,0.));
#620=DIRECTION('',(0.,0.,-1.));
#621=DIRECTION('center_axis',(0.,1.30104260698261E-16,-1.));
#622=DIRECTION('ref_axis',(-1.,0.,0.));
#623=DIRECTION('center_axis',(0.,0.,1.));
#624=DIRECTION('ref_axis',(1.,0.,0.));
#625=DIRECTION('',(4.62592926927149E-17,-1.,0.));
#626=DIRECTION('',(1.,0.,0.));
#627=DIRECTION('',(-4.62592926927149E-17,1.,0.));
#628=DIRECTION('center_axis',(0.,0.,-1.));
#629=DIRECTION('ref_axis',(0.,-1.,0.));
#630=DIRECTION('center_axis',(0.,0.,1.));
#631=DIRECTION('ref_axis',(1.,0.,0.));
#632=DIRECTION('center_axis',(0.,0.,-1.));
#633=DIRECTION('ref_axis',(1.,0.,0.));
#634=DIRECTION('',(-1.92797723894407E-15,0.712026045990998,0.702153052995161));
#635=DIRECTION('center_axis',(1.61470146734248E-18,-0.0139621803391453,
-0.999902524009304));
#636=DIRECTION('ref_axis',(3.00926553810506E-36,0.999902524009304,-0.0139621803391453));
#637=DIRECTION('',(0.00872568493544893,0.999864458206727,-0.0139616488057332));
#638=DIRECTION('',(1.,1.15648231731787E-16,0.));
#639=DIRECTION('',(0.00872568493544894,-0.999864458206727,0.0139616488057332));
#640=DIRECTION('center_axis',(0.,0.,1.));
#641=DIRECTION('ref_axis',(1.,0.,0.));
#642=DIRECTION('',(0.,0.,1.));
#643=DIRECTION('center_axis',(0.,0.,1.));
#644=DIRECTION('ref_axis',(1.,0.,0.));
#645=DIRECTION('',(0.707106781186547,8.65956056235493E-17,-0.707106781186548));
#646=DIRECTION('center_axis',(0.,0.,-1.));
#647=DIRECTION('ref_axis',(1.,0.,0.));
#648=DIRECTION('center_axis',(0.,0.,-1.));
#649=DIRECTION('ref_axis',(1.,0.,0.));
#650=DIRECTION('',(0.,0.,-1.));
#651=DIRECTION('center_axis',(0.,0.,-1.));
#652=DIRECTION('ref_axis',(1.,0.,0.));
#653=DIRECTION('center_axis',(0.702152373953893,3.24810721816177E-17,0.712026715616003));
#654=DIRECTION('ref_axis',(0.712026715616003,0.,-0.702152373953893));
#655=DIRECTION('',(0.712026715616003,0.,-0.702152373953893));
#656=DIRECTION('',(-4.62592926927149E-17,1.,0.));
#657=DIRECTION('',(0.58001903993055,0.58001903993054,-0.571975372403478));
#658=DIRECTION('center_axis',(-1.60708641685066E-15,0.,-1.));
#659=DIRECTION('ref_axis',(-3.12192840901721E-17,-1.,0.));
#660=DIRECTION('',(-0.712026715615973,0.,-0.702152373953923));
#661=DIRECTION('center_axis',(0.,0.,1.));
#662=DIRECTION('ref_axis',(-6.12323399573676E-17,-1.,0.));
#663=DIRECTION('center_axis',(-0.70215237395389,-3.24810721816176E-17,0.712026715616006));
#664=DIRECTION('ref_axis',(0.712026715616006,0.,0.70215237395389));
#665=DIRECTION('',(4.62592926927149E-17,-1.,0.));
#666=DIRECTION('',(-0.580019039930553,0.580019039930536,-0.571975372403479));
#667=DIRECTION('center_axis',(0.,0.702152373953898,0.712026715615998));
#668=DIRECTION('ref_axis',(1.,0.,0.));
#669=DIRECTION('',(-1.,0.,0.));
#670=DIRECTION('center_axis',(0.,0.999902524009304,0.0139621803391419));
#671=DIRECTION('ref_axis',(0.,-0.0139621803391419,0.999902524009304));
#672=DIRECTION('',(-0.013960819627058,-0.0139608196270546,0.999805076517759));
#673=DIRECTION('',(1.,2.01857359663873E-17,-1.44560289664734E-15));
#674=DIRECTION('',(-0.013960819627058,0.0139608196270546,-0.999805076517759));
#675=DIRECTION('center_axis',(0.999902524009304,4.62547835223308E-17,0.0139621803391453));
#676=DIRECTION('ref_axis',(0.0139621803391453,0.,-0.999902524009304));
#677=DIRECTION('',(0.0139621803391453,0.,-0.999902524009304));
#678=DIRECTION('',(0.000194961480181359,0.999902505006167,-0.0139621800737942));
#679=DIRECTION('',(0.0139621803391458,0.,-0.999902524009304));
#680=DIRECTION('',(4.80760089296902E-17,-1.,-1.3010426069826E-16));
#681=DIRECTION('center_axis',(0.,0.,1.));
#682=DIRECTION('ref_axis',(-1.,0.,0.));
#683=DIRECTION('center_axis',(0.,-1.30104260698261E-16,1.));
#684=DIRECTION('ref_axis',(-1.,0.,0.));
#685=DIRECTION('',(-0.0871557427476582,-1.0673500138323E-17,-0.996194698091745));
#686=DIRECTION('center_axis',(0.,0.,-1.));
#687=DIRECTION('ref_axis',(-1.,0.,0.));
#688=DIRECTION('center_axis',(0.,0.,1.));
#689=DIRECTION('ref_axis',(-1.,0.,0.));
#690=DIRECTION('center_axis',(0.,-1.30104260698261E-16,1.));
#691=DIRECTION('ref_axis',(0.,-1.,-1.30104260698261E-16));
#692=DIRECTION('',(-1.,0.,0.));
#693=DIRECTION('',(0.00872653549837407,-0.999961923064171,0.));
#694=DIRECTION('',(-1.,-1.15648231731787E-16,1.44560289664734E-15));
#695=DIRECTION('',(-4.44425764557396E-17,1.,1.3010426069826E-16));
#696=DIRECTION('',(-1.,-1.15648231731787E-16,1.44560289664734E-15));
#697=DIRECTION('',(0.00872653549837384,0.999961923064171,0.));
#698=DIRECTION('',(1.,-6.32451267283212E-16,-6.32451267283219E-16));
#699=DIRECTION('',(0.00872653549837407,-0.999961923064171,0.));
#700=DIRECTION('',(-1.,-1.15648231731787E-16,1.44560289664734E-15));
#701=DIRECTION('',(0.00872653549837384,0.999961923064171,0.));
#702=DIRECTION('center_axis',(-0.999961923064171,-0.00872653549837407,0.));
#703=DIRECTION('ref_axis',(0.00872653549837407,-0.999961923064171,0.));
#704=DIRECTION('',(0.,0.,-1.));
#705=DIRECTION('',(-0.00617070990690974,0.707093318572327,-0.707093318572321));
#706=DIRECTION('',(0.00872568493544894,-0.999864458206727,0.0139616488057332));
#707=DIRECTION('center_axis',(-8.94421159731975E-16,-0.707106781186544,
-0.707106781186551));
#708=DIRECTION('ref_axis',(0.,0.707106781186551,-0.707106781186544));
#709=DIRECTION('',(0.00617070990690933,0.707093318572329,-0.707093318572319));
#710=DIRECTION('',(1.,2.25447530809182E-20,1.61454407271727E-18));
#711=DIRECTION('center_axis',(0.999961923064171,-0.00872653549837384,-3.15377624853626E-18));
#712=DIRECTION('ref_axis',(0.00872653549837384,0.999961923064171,0.));
#713=DIRECTION('',(3.15365616240043E-18,-2.752154038678E-20,1.));
#714=DIRECTION('',(0.00872568493544923,0.999864458206727,-0.0139616488057332));
#715=DIRECTION('center_axis',(-0.999961923064171,-0.00872653549837407,-3.15377624853635E-18));
#716=DIRECTION('ref_axis',(0.00872653549837407,-0.999961923064171,0.));
#717=DIRECTION('',(0.00872568493544864,-0.999864458206727,0.0139616488057332));
#718=DIRECTION('',(3.15365616240051E-18,2.75215403867815E-20,-1.));
#719=DIRECTION('',(0.00617070990690934,-0.707093318572328,0.70709331857232));
#720=DIRECTION('center_axis',(0.,0.707106781186544,0.707106781186552));
#721=DIRECTION('ref_axis',(0.,-0.707106781186551,0.707106781186544));
#722=DIRECTION('',(0.00617070990690973,0.707093318572329,-0.707093318572319));
#723=DIRECTION('',(1.,2.25447530809182E-20,1.61454407271727E-18));
#724=DIRECTION('center_axis',(0.999961923064171,-0.00872653549837384,0.));
#725=DIRECTION('ref_axis',(0.00872653549837384,0.999961923064171,0.));
#726=DIRECTION('',(0.,0.,1.));
#727=DIRECTION('',(0.00872568493544893,0.999864458206727,-0.0139616488057332));
#728=DIRECTION('center_axis',(0.,1.09666032630708E-16,-1.));
#729=DIRECTION('ref_axis',(1.22464679914735E-16,-1.,-1.09666032630708E-16));
#730=DIRECTION('',(0.0139621803391453,0.,0.999902524009304));
#731=DIRECTION('center_axis',(-1.95996614011294E-18,-0.0139621803391457,
-0.999902524009304));
#732=DIRECTION('ref_axis',(-3.31929115678299E-12,0.999902524009304,-0.0139621803391457));
#733=DIRECTION('center_axis',(1.61470146734248E-18,-0.0139621803391453,
-0.999902524009304));
#734=DIRECTION('ref_axis',(3.00926553810506E-36,0.999902524009304,-0.0139621803391453));
#735=DIRECTION('',(1.,1.15648231731787E-16,0.));
#736=DIRECTION('',(0.000194961480181359,-0.999902505006167,0.0139621800737942));
#737=DIRECTION('',(1.,1.15648231731787E-16,0.));
#738=DIRECTION('center_axis',(-0.999902524009304,-4.62547835223308E-17,
0.0139621803391453));
#739=DIRECTION('ref_axis',(0.0139621803391453,0.,0.999902524009304));
#740=DIRECTION('',(0.0139621803391448,0.,0.999902524009304));
#741=DIRECTION('center_axis',(-1.15648231731787E-16,1.,0.));
#742=DIRECTION('ref_axis',(-1.,-1.15648231731787E-16,0.));
#743=DIRECTION('center_axis',(-1.15648231731787E-16,1.,0.));
#744=DIRECTION('ref_axis',(-1.,-1.15648231731787E-16,0.));
#745=DIRECTION('center_axis',(-1.15648231731787E-16,1.,0.));
#746=DIRECTION('ref_axis',(-1.,-1.15648231731787E-16,0.));
#747=DIRECTION('',(0.,0.,1.));
#748=DIRECTION('',(1.,0.,0.));
#749=CARTESIAN_POINT('',(0.,0.,0.));
#750=CARTESIAN_POINT('',(0.,0.,0.));
#751=CARTESIAN_POINT('Origin',(-4.33680868994202E-16,15.25,17.2499994277954));
#752=CARTESIAN_POINT('',(2.1,15.25,17.3999994277954));
#753=CARTESIAN_POINT('Origin',(-4.33680868994202E-16,15.25,17.3999994277954));
#754=CARTESIAN_POINT('',(1.8,15.25,17.0999994277954));
#755=CARTESIAN_POINT('',(1.95,15.25,17.2499994277954));
#756=CARTESIAN_POINT('Origin',(-4.33680868994202E-16,15.25,17.0999994277954));
#757=CARTESIAN_POINT('Origin',(-4.33680868994202E-16,15.25,17.3999994277954));
#758=CARTESIAN_POINT('',(1.8,15.25,13.8));
#759=CARTESIAN_POINT('',(1.8,15.25,17.3999994277954));
#760=CARTESIAN_POINT('Origin',(-4.33680868994202E-16,15.25,13.8));
#761=CARTESIAN_POINT('Origin',(3.46944695195361E-15,-10.75,17.3999994277954));
#762=CARTESIAN_POINT('',(7.56874271037824,18.3382916684071,17.3999994277954));
#763=CARTESIAN_POINT('',(7.56874271037824,-10.75,17.3999994277954));
#764=CARTESIAN_POINT('',(7.56874271037824,-5.375,17.3999994277954));
#765=CARTESIAN_POINT('',(-7.56874271037824,18.3382916684071,17.3999994277954));
#766=CARTESIAN_POINT('',(1.73472347597681E-15,18.3382916684071,17.3999994277954));
#767=CARTESIAN_POINT('',(-7.56874271037824,-10.75,17.3999994277954));
#768=CARTESIAN_POINT('',(-7.56874271037823,-5.375,17.3999994277954));
#769=CARTESIAN_POINT('Origin',(3.46944695195361E-15,-10.75,17.3999994277954));
#770=CARTESIAN_POINT('',(-2.05000000000002,3.70000000000001,17.3999994277954));
#771=CARTESIAN_POINT('Origin',(-1.65145674912992E-14,3.70000000000001,17.3999994277954));
#772=CARTESIAN_POINT('',(-2.6,-10.75,17.3999994277954));
#773=CARTESIAN_POINT('Origin',(3.46944695195361E-15,-10.75,17.3999994277954));
#774=CARTESIAN_POINT('Ctrl Pts',(4.44089209850063E-15,-13.6499707572028,
14.5661657349123));
#775=CARTESIAN_POINT('Ctrl Pts',(0.867686721268879,-13.6499707572028,14.5661657349123));
#776=CARTESIAN_POINT('Ctrl Pts',(2.59563234425466,-12.8207765336969,14.5545872470029));
#777=CARTESIAN_POINT('Ctrl Pts',(3.23510557796998,-10.0119087811581,14.5153655057151));
#778=CARTESIAN_POINT('Ctrl Pts',(1.44074637595532,-7.75685245455053,14.4838769332282));
#779=CARTESIAN_POINT('Ctrl Pts',(-1.43868108224485,-7.76115676972218,14.4839370367115));
#780=CARTESIAN_POINT('Ctrl Pts',(-3.24044481178949,-10.0105359527174,14.5153463361682));
#781=CARTESIAN_POINT('Ctrl Pts',(-2.59216096222906,-12.8199524251942,14.5545757395297));
#782=CARTESIAN_POINT('Ctrl Pts',(-0.86768672126887,-13.6499707572028,14.5661657349123));
#783=CARTESIAN_POINT('Ctrl Pts',(4.44089209850063E-15,-13.6499707572028,
14.5661657349123));
#784=CARTESIAN_POINT('Ctrl Pts',(4.17014507761467E-15,-13.5499805048019,
14.6647695168783));
#785=CARTESIAN_POINT('Ctrl Pts',(0.838181662658743,-13.5499805048019,14.6647695168783));
#786=CARTESIAN_POINT('Ctrl Pts',(2.50729411542744,-12.7484087320763,14.6535835595122));
#787=CARTESIAN_POINT('Ctrl Pts',(3.12303433402375,-10.0355752326526,14.615708381015));
#788=CARTESIAN_POINT('Ctrl Pts',(1.39010211872483,-7.86011178416075,14.585318400232));
#789=CARTESIAN_POINT('Ctrl Pts',(-1.38811983287968,-7.86426858980544,14.5853764384621));
#790=CARTESIAN_POINT('Ctrl Pts',(-3.12818858349154,-10.0342221929695,14.6156896791955));
#791=CARTESIAN_POINT('Ctrl Pts',(-2.50392808689485,-12.7476284791949,14.6535725535531));
#792=CARTESIAN_POINT('Ctrl Pts',(-0.838181662658735,-13.5499805048019,14.6647695168783));
#793=CARTESIAN_POINT('Ctrl Pts',(3.97770642001298E-15,-13.5499805048019,
14.6647695168783));
#794=CARTESIAN_POINT('Ctrl Pts',(3.89939805672872E-15,-13.4499902524009,
14.7633732988444));
#795=CARTESIAN_POINT('Ctrl Pts',(0.808676604048607,-13.4499902524009,14.7633732988444));
#796=CARTESIAN_POINT('Ctrl Pts',(2.41895588660022,-12.6760409304558,14.7525798720214));
#797=CARTESIAN_POINT('Ctrl Pts',(3.0109630900775,-10.0592416841471,14.716051256315));
#798=CARTESIAN_POINT('Ctrl Pts',(1.33945786149434,-7.96337111377096,14.6867598672357));
#799=CARTESIAN_POINT('Ctrl Pts',(-1.33755858351452,-7.96738040988872,14.6868158402126));
#800=CARTESIAN_POINT('Ctrl Pts',(-3.01593235519359,-10.0579084332217,14.7160330222227));
#801=CARTESIAN_POINT('Ctrl Pts',(-2.41569521156064,-12.6753045331955,14.7525693675764));
#802=CARTESIAN_POINT('Ctrl Pts',(-0.8086766040486,-13.4499902524009,14.7633732988444));
#803=CARTESIAN_POINT('Ctrl Pts',(3.51452074152533E-15,-13.4499902524009,
14.7633732988444));
#804=CARTESIAN_POINT('Ctrl Pts',(3.62865103584277E-15,-13.35,14.8619770808105));
#805=CARTESIAN_POINT('Ctrl Pts',(0.779171545438472,-13.35,14.8619770808105));
#806=CARTESIAN_POINT('Ctrl Pts',(2.330617657773,-12.6036731288353,14.8515761845307));
#807=CARTESIAN_POINT('Ctrl Pts',(2.89889184613126,-10.0829081356416,14.816394131615));
#808=CARTESIAN_POINT('Ctrl Pts',(1.28881360426385,-8.06663044338118,14.7882013342394));
#809=CARTESIAN_POINT('Ctrl Pts',(-1.28699733414936,-8.07049222997199,14.7882552419632));
#810=CARTESIAN_POINT('Ctrl Pts',(-2.90367612689564,-10.0815946734738,14.8163763652499));
#811=CARTESIAN_POINT('Ctrl Pts',(-2.32746233622643,-12.6029805871962,14.8515661815998));
#812=CARTESIAN_POINT('Ctrl Pts',(-0.779171545438465,-13.35,14.8619770808105));
#813=CARTESIAN_POINT('Ctrl Pts',(3.05133506303769E-15,-13.35,14.8619770808105));
#814=CARTESIAN_POINT('',(2.83392294208155,-11.3655267365157,14.5342668061411));
#815=CARTESIAN_POINT('',(2.82274891648904,-10.0851093028468,14.5163876442338));
#816=CARTESIAN_POINT('Ctrl Pts',(2.8306255309674,-11.3654306515675,14.5342654644549));
#817=CARTESIAN_POINT('Ctrl Pts',(2.83034548052197,-11.330763821795,14.5414188166643));
#818=CARTESIAN_POINT('Ctrl Pts',(2.83008503164474,-11.2959951670126,14.5480051859669));
#819=CARTESIAN_POINT('Ctrl Pts',(2.82984434876214,-11.2611162982997,14.5540017468997));
#820=CARTESIAN_POINT('Ctrl Pts',(2.82934401121654,-11.188609240981,14.5664675464888));
#821=CARTESIAN_POINT('Ctrl Pts',(2.82893463177525,-11.1159756962233,14.5763219135764));
#822=CARTESIAN_POINT('Ctrl Pts',(2.82859895623356,-11.0431120697873,14.5834476192957));
#823=CARTESIAN_POINT('Ctrl Pts',(2.82826328069186,-10.9702484433512,14.590573325015));
#824=CARTESIAN_POINT('Ctrl Pts',(2.82800250001948,-10.8971542176173,14.5949703617406));
#825=CARTESIAN_POINT('Ctrl Pts',(2.82778763374098,-10.8236726692806,14.5965207701649));
#826=CARTESIAN_POINT('Ctrl Pts',(2.82773259275359,-10.8048493480824,14.5969179288587));
#827=CARTESIAN_POINT('Ctrl Pts',(2.82768043813779,-10.7860271068276,14.5971278144354));
#828=CARTESIAN_POINT('Ctrl Pts',(2.82763039800167,-10.7672032066822,14.5971500516659));
#829=CARTESIAN_POINT('Ctrl Pts',(2.82760931944017,-10.7592739569278,14.5971594187234));
#830=CARTESIAN_POINT('Ctrl Pts',(2.82758861727558,-10.7513452374888,14.5971354889903));
#831=CARTESIAN_POINT('Ctrl Pts',(2.82756822934896,-10.7434168422785,14.5970782552137));
#832=CARTESIAN_POINT('Ctrl Pts',(2.82755122711864,-10.7368050664034,14.5970305258949));
#833=CARTESIAN_POINT('Ctrl Pts',(2.82753444418346,-10.7301938285518,14.5969596375483));
#834=CARTESIAN_POINT('Ctrl Pts',(2.82751784313929,-10.7235830091125,14.596865592537));
#835=CARTESIAN_POINT('Ctrl Pts',(2.82750082050827,-10.716804306589,14.5967691592338));
#836=CARTESIAN_POINT('Ctrl Pts',(2.82748398988635,-10.7100263464038,14.5966483824975));
#837=CARTESIAN_POINT('Ctrl Pts',(2.82746730964048,-10.7032489997319,14.5965032713969));
#838=CARTESIAN_POINT('Ctrl Pts',(2.82744297258792,-10.6933606177862,14.596291549309));
#839=CARTESIAN_POINT('Ctrl Pts',(2.82741895785834,-10.6834743410078,14.5960280417889));
#840=CARTESIAN_POINT('Ctrl Pts',(2.82739513126734,-10.6735897706741,14.5957128021721));
#841=CARTESIAN_POINT('Ctrl Pts',(2.82733245753993,-10.6475892879907,14.594883592412));
#842=CARTESIAN_POINT('Ctrl Pts',(2.82727113122841,-10.6216123854158,14.5936968203289));
#843=CARTESIAN_POINT('Ctrl Pts',(2.82720853334722,-10.5956519280399,14.5921544358219));
#844=CARTESIAN_POINT('Ctrl Pts',(2.82707097478321,-10.5386039390439,14.5887650527649));
#845=CARTESIAN_POINT('Ctrl Pts',(2.82692784785116,-10.4817605319371,14.5836658366245));
#846=CARTESIAN_POINT('Ctrl Pts',(2.82674791668278,-10.4250522692266,14.5769007152326));
#847=CARTESIAN_POINT('Ctrl Pts',(2.82653524030714,-10.3580238166805,14.5689044269228));
#848=CARTESIAN_POINT('Ctrl Pts',(2.82627334420475,-10.2914832146469,14.5586150302528));
#849=CARTESIAN_POINT('Ctrl Pts',(2.82590381671812,-10.2253373052535,14.5461731593524));
#850=CARTESIAN_POINT('Ctrl Pts',(2.82567919704584,-10.1851300864991,14.5386102876707));
#851=CARTESIAN_POINT('Ctrl Pts',(2.82541476806496,-10.1450696839155,14.5302521133453));
#852=CARTESIAN_POINT('Ctrl Pts',(2.82509900663895,-10.1051445246284,14.5211303547526));
#853=CARTESIAN_POINT('Ctrl Pts',(2.82504498172224,-10.0983135654686,14.519569675684));
#854=CARTESIAN_POINT('Ctrl Pts',(2.82498945977353,-10.0914865822094,14.5179866443062));
#855=CARTESIAN_POINT('Ctrl Pts',(2.82493253056489,-10.084663506283,14.516381419335));
#856=CARTESIAN_POINT('',(4.44089209850063E-15,-13.6499707572028,14.5661657349123));
#857=CARTESIAN_POINT('Ctrl Pts',(2.83062551577516,-11.3654307215444,14.534265465432));
#858=CARTESIAN_POINT('Ctrl Pts',(2.73620195026494,-11.8003542402844,14.5403385380132));
#859=CARTESIAN_POINT('Ctrl Pts',(2.17376966611267,-13.0232169873632,14.5574140326687));
#860=CARTESIAN_POINT('Ctrl Pts',(0.867686721268879,-13.6499707572028,14.5661657349123));
#861=CARTESIAN_POINT('Ctrl Pts',(4.44089209850063E-15,-13.6499707572028,
14.5661657349123));
#862=CARTESIAN_POINT('',(3.62865103584277E-15,-13.35,14.8619770808105));
#863=CARTESIAN_POINT('',(4.44089209850063E-15,-13.6499707572028,14.5661657349123));
#864=CARTESIAN_POINT('',(-2.60085892840675,-10.7483616985197,14.8256783579093));
#865=CARTESIAN_POINT('Ctrl Pts',(3.62865103584277E-15,-13.35,14.8619770808105));
#866=CARTESIAN_POINT('Ctrl Pts',(0.779171545438472,-13.35,14.8619770808105));
#867=CARTESIAN_POINT('Ctrl Pts',(2.330617657773,-12.6036731288353,14.8515761845307));
#868=CARTESIAN_POINT('Ctrl Pts',(2.89889184613126,-10.0829081356416,14.816394131615));
#869=CARTESIAN_POINT('Ctrl Pts',(1.28881360426385,-8.06663044338118,14.7882013342394));
#870=CARTESIAN_POINT('Ctrl Pts',(-1.28699733414936,-8.07049222997199,14.7882552419632));
#871=CARTESIAN_POINT('Ctrl Pts',(-2.50047363974814,-9.5800222456257,14.8093629084634));
#872=CARTESIAN_POINT('Ctrl Pts',(-2.60235013180097,-10.5524529838071,14.8229429627188));
#873=CARTESIAN_POINT('Ctrl Pts',(-2.60085892840675,-10.7483616985197,14.8256783579093));
#874=CARTESIAN_POINT('Ctrl Pts',(-2.60085892840675,-10.7483616985197,14.8256783579093));
#875=CARTESIAN_POINT('Ctrl Pts',(-2.59642783583533,-11.3305020381968,14.8338065511225));
#876=CARTESIAN_POINT('Ctrl Pts',(-2.13253654259342,-12.697028393181,14.8528768868001));
#877=CARTESIAN_POINT('Ctrl Pts',(-0.779171545438465,-13.35,14.8619770808105));
#878=CARTESIAN_POINT('Ctrl Pts',(3.05133506303769E-15,-13.35,14.8619770808105));
#879=CARTESIAN_POINT('',(-2.83392294947528,-11.3655266656605,14.5342668051517));
#880=CARTESIAN_POINT('Ctrl Pts',(4.44089209850063E-15,-13.6499707572028,
14.5661657349123));
#881=CARTESIAN_POINT('Ctrl Pts',(-0.86768672126887,-13.6499707572028,14.5661657349123));
#882=CARTESIAN_POINT('Ctrl Pts',(-2.1711458148364,-13.0225940663907,14.5574053344858));
#883=CARTESIAN_POINT('Ctrl Pts',(-2.73629330240913,-11.7993702112877,14.5403247974835));
#884=CARTESIAN_POINT('Ctrl Pts',(-2.83157255050402,-11.3644781321712,14.5342521639108));
#885=CARTESIAN_POINT('',(-2.82274891617764,-10.0851093002949,14.5163876441981));
#886=CARTESIAN_POINT('Ctrl Pts',(-2.82757419050841,-10.0843483190693,14.5163770182053));
#887=CARTESIAN_POINT('Ctrl Pts',(-2.82762823505895,-10.091163498595,14.5179818885472));
#888=CARTESIAN_POINT('Ctrl Pts',(-2.82768071352909,-10.0979837560709,14.5195648622417));
#889=CARTESIAN_POINT('Ctrl Pts',(-2.82773154068361,-10.1048091735984,14.5211257519275));
#890=CARTESIAN_POINT('Ctrl Pts',(-2.82793772186377,-10.1324965909663,14.5274575263604));
#891=CARTESIAN_POINT('Ctrl Pts',(-2.82811668939253,-10.1602687740509,14.5334258992242));
#892=CARTESIAN_POINT('Ctrl Pts',(-2.82827269900543,-10.1881301194461,14.5390183489119));
#893=CARTESIAN_POINT('Ctrl Pts',(-2.82867597340891,-10.2601498317955,14.5534744569038));
#894=CARTESIAN_POINT('Ctrl Pts',(-2.82892637803074,-10.3324355295718,14.5653501347023));
#895=CARTESIAN_POINT('Ctrl Pts',(-2.82909497424124,-10.405086976252,14.574513675624));
#896=CARTESIAN_POINT('Ctrl Pts',(-2.82926357045175,-10.4777384229323,14.5836772165458));
#897=CARTESIAN_POINT('Ctrl Pts',(-2.82935167428092,-10.5507561349097,14.5901286276091));
#898=CARTESIAN_POINT('Ctrl Pts',(-2.82943012997487,-10.6242938597843,14.5937369751104));
#899=CARTESIAN_POINT('Ctrl Pts',(-2.82945018620353,-10.6430928704278,14.59465940456));
#900=CARTESIAN_POINT('Ctrl Pts',(-2.82946942973828,-10.6619001666603,14.5953948656343));
#901=CARTESIAN_POINT('Ctrl Pts',(-2.8294888775058,-10.6807184621836,14.595942746135));
#902=CARTESIAN_POINT('Ctrl Pts',(-2.82949706528574,-10.6886412256794,14.596173411427));
#903=CARTESIAN_POINT('Ctrl Pts',(-2.82950528758598,-10.6965651199125,14.5963708037229));
#904=CARTESIAN_POINT('Ctrl Pts',(-2.82951361652531,-10.7044903494813,14.5965348980753));
#905=CARTESIAN_POINT('Ctrl Pts',(-2.82952056037515,-10.7110976258551,14.5966717037953));
#906=CARTESIAN_POINT('Ctrl Pts',(-2.82952757797951,-10.7177055187538,14.596785359051));
#907=CARTESIAN_POINT('Ctrl Pts',(-2.82953470986706,-10.7243141470494,14.5968758559478));
#908=CARTESIAN_POINT('Ctrl Pts',(-2.82954202093447,-10.7310888089533,14.5969686264672));
#909=CARTESIAN_POINT('Ctrl Pts',(-2.82954945178089,-10.7378639414567,14.5970370562216));
#910=CARTESIAN_POINT('Ctrl Pts',(-2.82955704477169,-10.7446396727165,14.597081143225));
#911=CARTESIAN_POINT('Ctrl Pts',(-2.82956811955512,-10.754522439365,14.5971454464788));
#912=CARTESIAN_POINT('Ctrl Pts',(-2.82957953865396,-10.7644056791709,14.5971579582815));
#913=CARTESIAN_POINT('Ctrl Pts',(-2.8295914283521,-10.7742897892618,14.5971186976465));
#914=CARTESIAN_POINT('Ctrl Pts',(-2.82962268124957,-10.8002708592458,14.5970154983399));
#915=CARTESIAN_POINT('Ctrl Pts',(-2.82965719282525,-10.8262460942512,14.5965546306413));
#916=CARTESIAN_POINT('Ctrl Pts',(-2.82969704405745,-10.8522226194663,14.5957374201562));
#917=CARTESIAN_POINT('Ctrl Pts',(-2.82978449785135,-10.9092282766659,14.5939440463162));
#918=CARTESIAN_POINT('Ctrl Pts',(-2.82989795294572,-10.9661128833466,14.5904385605974));
#919=CARTESIAN_POINT('Ctrl Pts',(-2.83005384608517,-11.0229462474747,14.585258296699));
#920=CARTESIAN_POINT('Ctrl Pts',(-2.83023909118063,-11.0904803416675,14.5791026795642));
#921=CARTESIAN_POINT('Ctrl Pts',(-2.83048514924153,-11.1576258839451,14.5706097625047));
#922=CARTESIAN_POINT('Ctrl Pts',(-2.83080184649416,-11.2244791580396,14.5599132146787));
#923=CARTESIAN_POINT('Ctrl Pts',(-2.83102356964024,-11.2712838528564,14.5524244467258));
#924=CARTESIAN_POINT('Ctrl Pts',(-2.83127956125993,-11.3179442402965,14.5438555435431));
#925=CARTESIAN_POINT('Ctrl Pts',(-2.83157255063847,-11.3644781315575,14.5342521639023));
#926=CARTESIAN_POINT('Ctrl Pts',(-2.82757418989363,-10.0843483164631,14.5163770181689));
#927=CARTESIAN_POINT('Ctrl Pts',(-2.63056498998731,-9.24917829985482,14.5047150870248));
#928=CARTESIAN_POINT('Ctrl Pts',(-1.43126487411858,-7.76114568359564,14.4839368819099));
#929=CARTESIAN_POINT('Ctrl Pts',(1.4333301687713,-7.75686354067566,14.4838770880298));
#930=CARTESIAN_POINT('Ctrl Pts',(2.6277320014794,-9.24862964678765,14.504707425885));
#931=CARTESIAN_POINT('Ctrl Pts',(2.82493253053481,-10.0846635061555,14.5163814193332));
#932=CARTESIAN_POINT('Origin',(-27.723082923316,-1.75,14.4));
#933=CARTESIAN_POINT('',(-2.75000951959644,-1.75,14.4));
#934=CARTESIAN_POINT('',(-2.85178971111311,-13.4128547557984,14.5628547557984));
#935=CARTESIAN_POINT('',(2.75000951959643,-1.74999999999999,14.4));
#936=CARTESIAN_POINT('',(-27.723082923316,-1.75,14.4));
#937=CARTESIAN_POINT('',(2.75000951959643,-1.74999999999999,14.4));
#938=CARTESIAN_POINT('Origin',(3.46944695195361E-15,-10.75,0.));
#939=CARTESIAN_POINT('',(-2.6,-10.75,0.));
#940=CARTESIAN_POINT('Origin',(-1.65145674912992E-14,3.70000000000001,17.2499994277954));
#941=CARTESIAN_POINT('',(-1.75000000000002,3.70000000000001,17.0999994277954));
#942=CARTESIAN_POINT('',(-1.90000000000002,3.70000000000001,17.2499994277954));
#943=CARTESIAN_POINT('Origin',(-1.65145674912992E-14,3.70000000000001,17.0999994277954));
#944=CARTESIAN_POINT('Origin',(-1.65145674912992E-14,3.70000000000001,11.8));
#945=CARTESIAN_POINT('',(-1.75000000000002,3.70000000000001,11.8));
#946=CARTESIAN_POINT('',(-1.75000000000002,3.70000000000001,11.8));
#947=CARTESIAN_POINT('Origin',(-1.65145674912992E-14,3.70000000000001,11.8));
#948=CARTESIAN_POINT('Origin',(7.72083703742884,-5.375,17.2500143352963));
#949=CARTESIAN_POINT('',(7.87293136447944,-10.75,17.1000292427972));
#950=CARTESIAN_POINT('',(7.56874271037824,-10.75,17.3999994277954));
#951=CARTESIAN_POINT('',(7.87293136447944,18.6424803225083,17.1000292427972));
#952=CARTESIAN_POINT('',(7.87293136447944,-5.375,17.1000292427972));
#953=CARTESIAN_POINT('',(7.56874271037824,18.3382916684071,17.3999994277954));
#954=CARTESIAN_POINT('Origin',(3.2284079470682E-15,-10.75,17.2500143352963));
#955=CARTESIAN_POINT('',(-7.87293136447943,-10.75,17.1000292427972));
#956=CARTESIAN_POINT('',(-7.56874271037824,-10.75,17.3999994277954));
#957=CARTESIAN_POINT('Origin',(2.98736894218279E-15,-10.75,17.1000292427972));
#958=CARTESIAN_POINT('Origin',(-7.72083703742883,-5.375,17.2500143352963));
#959=CARTESIAN_POINT('',(-7.87293136447943,18.6424803225083,17.1000292427972));
#960=CARTESIAN_POINT('',(-7.87293136447943,-5.375,17.1000292427972));
#961=CARTESIAN_POINT('',(-7.56874271037824,18.3382916684071,17.3999994277954));
#962=CARTESIAN_POINT('Origin',(1.73472347597681E-15,18.4903859954577,17.2500143352963));
#963=CARTESIAN_POINT('',(1.73472347597681E-15,18.6424803225083,17.1000292427972));
#964=CARTESIAN_POINT('Origin',(0.,18.6382916684066,17.4));
#965=CARTESIAN_POINT('',(7.91901145959475,18.6885604176236,13.8));
#966=CARTESIAN_POINT('',(7.99634173073305,18.7658906887619,8.26198721006873));
#967=CARTESIAN_POINT('',(-7.91901145959474,18.6885604176236,13.8));
#968=CARTESIAN_POINT('',(8.95442679795239E-16,18.6885604176236,13.8));
#969=CARTESIAN_POINT('',(-7.99634173073305,18.7658906887619,8.26198721006873));
#970=CARTESIAN_POINT('Origin',(8.,3.70074341541719E-16,8.));
#971=CARTESIAN_POINT('',(7.90887851031701,-10.75,14.5256718730426));
#972=CARTESIAN_POINT('',(8.,-10.75,8.));
#973=CARTESIAN_POINT('',(7.91063333472524,-1.74999999999999,14.4));
#974=CARTESIAN_POINT('',(7.90887851031701,-10.75,14.5256718730426));
#975=CARTESIAN_POINT('',(7.91901145959475,-1.74999999999999,13.8));
#976=CARTESIAN_POINT('',(7.91063333472524,-1.74999999999999,14.4));
#977=CARTESIAN_POINT('',(7.91901145959475,0.0182820309782974,13.8));
#978=CARTESIAN_POINT('Origin',(-1.65145674912992E-14,3.70000000000001,13.8));
#979=CARTESIAN_POINT('',(3.49999999999998,3.70000000000001,13.8));
#980=CARTESIAN_POINT('Origin',(-1.65145674912992E-14,3.70000000000001,13.8));
#981=CARTESIAN_POINT('',(3.32502267294813,3.70000000000001,11.8));
#982=CARTESIAN_POINT('',(3.49999999999998,3.70000000000001,13.8));
#983=CARTESIAN_POINT('Origin',(-1.65145674912992E-14,3.70000000000001,11.8));
#984=CARTESIAN_POINT('Origin',(-1.66533453693773E-14,3.70000000000001,11.8));
#985=CARTESIAN_POINT('Origin',(-2.5,-13.25,13.8));
#986=CARTESIAN_POINT('',(-2.84513237851571,-12.65,13.8));
#987=CARTESIAN_POINT('',(-3.85488666067717,-12.65,13.8));
#988=CARTESIAN_POINT('',(1.32995466491555E-15,-12.65,13.8));
#989=CARTESIAN_POINT('',(-3.95000951959644,-1.75,13.8));
#990=CARTESIAN_POINT('',(-3.94999048076605,-1.75218163387459,13.8));
#991=CARTESIAN_POINT('',(-7.91901145959475,-1.75,13.8));
#992=CARTESIAN_POINT('',(-13.861541461658,-1.75,13.8));
#993=CARTESIAN_POINT('',(-7.91901145959474,0.0182820309782967,13.8));
#994=CARTESIAN_POINT('',(3.95000951959643,-1.75,13.8));
#995=CARTESIAN_POINT('',(-13.861541461658,-1.75,13.8));
#996=CARTESIAN_POINT('',(3.85488666067716,-12.65,13.8));
#997=CARTESIAN_POINT('',(3.94999048076604,-1.75218163387459,13.8));
#998=CARTESIAN_POINT('',(2.8451323785157,-12.65,13.8));
#999=CARTESIAN_POINT('',(2.24628620102789E-14,-12.65,13.8));
#1000=CARTESIAN_POINT('',(2.75000951959643,-1.75,13.8));
#1001=CARTESIAN_POINT('',(2.74999048076604,-1.7478183661254,13.8));
#1002=CARTESIAN_POINT('',(-2.75000951959644,-1.75,13.8));
#1003=CARTESIAN_POINT('',(-13.861541461658,-1.75,13.8));
#1004=CARTESIAN_POINT('',(-2.74999048076605,-1.7478183661254,13.8));
#1005=CARTESIAN_POINT('Origin',(2.74999048076604,-1.7478183661254,14.4));
#1006=CARTESIAN_POINT('',(2.75000951959643,-1.74999999999999,14.4));
#1007=CARTESIAN_POINT('',(2.85178971111311,-13.4128547557984,14.5628547557984));
#1008=CARTESIAN_POINT('',(2.85178971111311,-13.4128547557984,14.5628547557984));
#1009=CARTESIAN_POINT('',(2.75000951959643,-1.74999999999999,14.4));
#1010=CARTESIAN_POINT('Origin',(2.24628620102789E-14,-13.25,14.4));
#1011=CARTESIAN_POINT('',(3.84822932807976,-13.4128547557984,14.5628547557984));
#1012=CARTESIAN_POINT('',(3.84822932807976,-13.4128547557984,14.5628547557984));
#1013=CARTESIAN_POINT('',(-27.723082923316,-13.4128547557984,14.5628547557984));
#1014=CARTESIAN_POINT('Origin',(3.94999048076604,-1.75218163387459,14.4));
#1015=CARTESIAN_POINT('',(3.95000951959643,-1.75,14.4));
#1016=CARTESIAN_POINT('',(3.95000951959643,-1.75,14.4));
#1017=CARTESIAN_POINT('',(3.84822932807976,-13.4128547557984,14.5628547557984));
#1018=CARTESIAN_POINT('Origin',(-3.94999048076605,-1.75218163387459,14.4));
#1019=CARTESIAN_POINT('',(-3.95000951959644,-1.75,14.4));
#1020=CARTESIAN_POINT('',(-3.84822932807976,-13.4128547557984,14.5628547557984));
#1021=CARTESIAN_POINT('',(-3.95000951959644,-1.75,14.4));
#1022=CARTESIAN_POINT('',(-3.95000951959644,-1.75,14.4));
#1023=CARTESIAN_POINT('',(-3.85488666067717,-12.65,13.8));
#1024=CARTESIAN_POINT('Origin',(1.32995466491555E-15,-13.25,14.4));
#1025=CARTESIAN_POINT('',(-2.85178971111311,-13.4128547557984,14.5628547557984));
#1026=CARTESIAN_POINT('',(-2.85178971111311,-13.4128547557984,14.5628547557984));
#1027=CARTESIAN_POINT('',(-27.723082923316,-13.4128547557984,14.5628547557984));
#1028=CARTESIAN_POINT('Origin',(-2.74999048076605,-1.7478183661254,14.4));
#1029=CARTESIAN_POINT('',(-2.75000951959644,-1.75,14.4));
#1030=CARTESIAN_POINT('',(-2.85178971111311,-13.4128547557984,14.5628547557984));
#1031=CARTESIAN_POINT('Origin',(3.46944695195361E-15,-10.75,14.508425904281));
#1032=CARTESIAN_POINT('',(-7.90887851031701,-10.75,14.5256718730426));
#1033=CARTESIAN_POINT('',(-8.,-10.75,8.));
#1034=CARTESIAN_POINT('Origin',(3.33066907387547E-15,-10.7484579229356,
14.5256503401856));
#1035=CARTESIAN_POINT('Origin',(-27.723082923316,-1.75,14.4));
#1036=CARTESIAN_POINT('',(-27.723082923316,-1.75,14.4));
#1037=CARTESIAN_POINT('',(-7.91063333472524,-1.75,14.4));
#1038=CARTESIAN_POINT('',(-7.91063333472523,-1.75,14.4));
#1039=CARTESIAN_POINT('',(-27.723082923316,-1.75,14.4));
#1040=CARTESIAN_POINT('Origin',(-8.,-3.70074341541719E-16,8.));
#1041=CARTESIAN_POINT('',(-8.,-1.75,8.));
#1042=CARTESIAN_POINT('Origin',(-27.723082923316,-1.75,4.4));
#1043=CARTESIAN_POINT('Origin',(-27.723082923316,-1.75,4.4));
#1044=CARTESIAN_POINT('Origin',(-27.723082923316,-1.75,4.4));
#1045=CARTESIAN_POINT('',(0.,0.,0.));
#1046=UNCERTAINTY_MEASURE_WITH_UNIT(LENGTH_MEASURE(0.01),#1052,
'DISTANCE_ACCURACY_VALUE',
'Maximum model space distance between geometric entities at asserted c
onnectivities');
#1047=UNCERTAINTY_MEASURE_WITH_UNIT(LENGTH_MEASURE(0.01),#1052,
'DISTANCE_ACCURACY_VALUE',
'Maximum model space distance between geometric entities at asserted c
onnectivities');
#1048=UNCERTAINTY_MEASURE_WITH_UNIT(LENGTH_MEASURE(0.01),#1052,
'DISTANCE_ACCURACY_VALUE',
'Maximum model space distance between geometric entities at asserted c
onnectivities');
#1049=(
GEOMETRIC_REPRESENTATION_CONTEXT(3)
GLOBAL_UNCERTAINTY_ASSIGNED_CONTEXT((#1046))
GLOBAL_UNIT_ASSIGNED_CONTEXT((#1052,#1054,#1055))
REPRESENTATION_CONTEXT('','3D')
);
#1050=(
GEOMETRIC_REPRESENTATION_CONTEXT(3)
GLOBAL_UNCERTAINTY_ASSIGNED_CONTEXT((#1047))
GLOBAL_UNIT_ASSIGNED_CONTEXT((#1052,#1054,#1055))
REPRESENTATION_CONTEXT('','3D')
);
#1051=(
GEOMETRIC_REPRESENTATION_CONTEXT(3)
GLOBAL_UNCERTAINTY_ASSIGNED_CONTEXT((#1048))
GLOBAL_UNIT_ASSIGNED_CONTEXT((#1052,#1054,#1055))
REPRESENTATION_CONTEXT('','3D')
);
#1052=(
LENGTH_UNIT()
NAMED_UNIT(*)
SI_UNIT(.MILLI.,.METRE.)
);
#1053=(
LENGTH_UNIT()
NAMED_UNIT(*)
SI_UNIT($,.METRE.)
);
#1054=(
NAMED_UNIT(*)
PLANE_ANGLE_UNIT()
SI_UNIT($,.RADIAN.)
);
#1055=(
NAMED_UNIT(*)
SI_UNIT($,.STERADIAN.)
SOLID_ANGLE_UNIT()
);
#1056=SHAPE_DEFINITION_REPRESENTATION(#1058,#1061);
#1057=SHAPE_DEFINITION_REPRESENTATION(#1059,#1062);
#1058=PRODUCT_DEFINITION_SHAPE('',$,#1064);
#1059=PRODUCT_DEFINITION_SHAPE('',$,#1065);
#1060=PRODUCT_DEFINITION_SHAPE($,$,#14);
#1061=SHAPE_REPRESENTATION('',(#564,#606),#1049);
#1062=SHAPE_REPRESENTATION('',(#565),#1050);
#1063=PRODUCT_DEFINITION_CONTEXT('part definition',#1071,'design');
#1064=PRODUCT_DEFINITION('Z\X\D6\X\E1\X\C6\X\A4\X\B4\X\F8\X\D5\X\C5\X\BD
\X\F4\X\B6\X\E8\X\C2\X\D6\X\D7\X\F9','z tensioner opt v7',#1066,#1063);
#1065=PRODUCT_DEFINITION('Component1','Component1',#1067,#1063);
#1066=PRODUCT_DEFINITION_FORMATION('',$,#1073);
#1067=PRODUCT_DEFINITION_FORMATION('',$,#1074);
#1068=PRODUCT_RELATED_PRODUCT_CATEGORY('z tensioner opt v7',
'z tensioner opt v7',(#1073));
#1069=PRODUCT_RELATED_PRODUCT_CATEGORY('Component1','Component1',(#1074));
#1070=APPLICATION_PROTOCOL_DEFINITION('international standard',
'automotive_design',2009,#1071);
#1071=APPLICATION_CONTEXT(
'Core Data for Automotive Mechanical Design Process');
#1072=PRODUCT_CONTEXT('part definition',#1071,'mechanical');
#1073=PRODUCT('Z\X\D6\X\E1\X\C6\X\A4\X\B4\X\F8\X\D5\X\C5\X\BD\X\F4\X\B6
\X\E8\X\C2\X\D6\X\D7\X\F9','z tensioner opt v7','STEP AP214',(#1072));
#1074=PRODUCT('Component1','Component1',$,(#1072));
#1075=PRESENTATION_STYLE_ASSIGNMENT((#1077));
#1076=PRESENTATION_STYLE_ASSIGNMENT((#1078));
#1077=SURFACE_STYLE_USAGE(.BOTH.,#1079);
#1078=SURFACE_STYLE_USAGE(.BOTH.,#1080);
#1079=SURFACE_SIDE_STYLE('',(#1081));
#1080=SURFACE_SIDE_STYLE('',(#1082));
#1081=SURFACE_STYLE_FILL_AREA(#1083);
#1082=SURFACE_STYLE_FILL_AREA(#1084);
#1083=FILL_AREA_STYLE('Opaque(243,203,124)',(#1085));
#1084=FILL_AREA_STYLE(
'PA 12 - Nylon - PA 603-CF (with EOS P 3D Printers)',(#1086));
#1085=FILL_AREA_STYLE_COLOUR('Opaque(243,203,124)',#1087);
#1086=FILL_AREA_STYLE_COLOUR(
'PA 12 - Nylon - PA 603-CF (with EOS P 3D Printers)',#1088);
#1087=COLOUR_RGB('Opaque(243,203,124)',0.952941176470588,0.796078431372549,
0.486274509803922);
#1088=COLOUR_RGB('PA 12 - Nylon - PA 603-CF (with EOS P 3D Printers)',0.247058823529412,
0.247058823529412,0.247058823529412);
ENDSEC;
END-ISO-10303-21;
