ISO-10303-21;
HEADER;
/* Generated by software containing ST-Developer
 * from STEP Tools, Inc. (www.steptools.com) 
 */

FILE_DESCRIPTION(
/* description */ ('STEP AP214'),
/* implementation_level */ '2;1');

FILE_NAME(
/* name */ 'carriage clip.step',
/* time_stamp */ '2026-02-27T20:04:28-05:00',
/* author */ (''),
/* organization */ (''),
/* preprocessor_version */ 'ST-DEVELOPER v20.1',
/* originating_system */ 'Autodesk Translation Framework v14.24.0.0',
/* authorisation */ '');

FILE_SCHEMA (('AUTOMOTIVE_DESIGN { 1 0 10303 214 3 1 1 }'));
ENDSEC;

DATA;
#10=MECHANICAL_DESIGN_GEOMETRIC_PRESENTATION_REPRESENTATION('',(#17),#1776);
#11=ITEM_DEFINED_TRANSFORMATION($,$,#1042,#1152);
#12=(
REPRESENTATION_RELATIONSHIP($,$,#1787,#1786)
REPRESENTATION_RELATIONSHIP_WITH_TRANSFORMATION(#11)
SHAPE_REPRESENTATION_RELATIONSHIP()
);
#13=CONTEXT_DEPENDENT_SHAPE_REPRESENTATION(#12,#1785);
#14=NEXT_ASSEMBLY_USAGE_OCCURRENCE('clip:1','clip:1','clip:1',#1789,#1790,
'clip:1');
#15=SHAPE_REPRESENTATION_RELATIONSHIP('SRR','None',#1787,#16);
#16=ADVANCED_BREP_SHAPE_REPRESENTATION('',(#18),#1775);
#17=STYLED_ITEM('',(#1802),#18);
#18=MANIFOLD_SOLID_BREP('Body1',#1028);
#19=CYLINDRICAL_SURFACE('',#1136,0.5);
#20=CYLINDRICAL_SURFACE('',#1137,0.4);
#21=CYLINDRICAL_SURFACE('',#1139,0.399999999999999);
#22=CYLINDRICAL_SURFACE('',#1143,0.4);
#23=CYLINDRICAL_SURFACE('',#1144,0.5);
#24=CYLINDRICAL_SURFACE('',#1145,0.5);
#25=CYLINDRICAL_SURFACE('',#1146,0.399999999999999);
#26=CYLINDRICAL_SURFACE('',#1148,0.4);
#27=CYLINDRICAL_SURFACE('',#1149,0.5);
#28=CYLINDRICAL_SURFACE('',#1150,0.5);
#29=CYLINDRICAL_SURFACE('',#1151,0.400000000000001);
#30=B_SPLINE_CURVE_WITH_KNOTS('',3,(#1498,#1499,#1500,#1501),
 .UNSPECIFIED.,.F.,.F.,(4,4),(0.,0.0417575675319085),.UNSPECIFIED.);
#31=B_SPLINE_CURVE_WITH_KNOTS('',3,(#1610,#1611,#1612,#1613),
 .UNSPECIFIED.,.F.,.F.,(4,4),(0.,0.04175756753198),.UNSPECIFIED.);
#32=CIRCLE('',#1046,0.800000000000002);
#33=CIRCLE('',#1047,0.5);
#34=CIRCLE('',#1049,0.4);
#35=CIRCLE('',#1050,0.100000000000001);
#36=CIRCLE('',#1053,0.400000000000001);
#37=CIRCLE('',#1054,0.100000000000001);
#38=CIRCLE('',#1056,0.5);
#39=CIRCLE('',#1057,0.8);
#40=CIRCLE('',#1060,0.5);
#41=CIRCLE('',#1061,0.8);
#42=CIRCLE('',#1063,0.4);
#43=CIRCLE('',#1064,0.100000000000001);
#44=CIRCLE('',#1067,0.399999999999999);
#45=CIRCLE('',#1068,0.1);
#46=CIRCLE('',#1070,0.5);
#47=CIRCLE('',#1071,0.8);
#48=CIRCLE('',#1074,0.5);
#49=CIRCLE('',#1075,0.8);
#50=CIRCLE('',#1077,0.4);
#51=CIRCLE('',#1078,0.100000000000001);
#52=CIRCLE('',#1081,0.399999999999999);
#53=CIRCLE('',#1082,0.100000000000001);
#54=CIRCLE('',#1092,0.399999999999999);
#55=CIRCLE('',#1093,0.100000000000001);
#56=CIRCLE('',#1096,0.4);
#57=CIRCLE('',#1097,0.100000000000001);
#58=CIRCLE('',#1099,0.5);
#59=CIRCLE('',#1100,0.8);
#60=CIRCLE('',#1103,0.5);
#61=CIRCLE('',#1104,0.8);
#62=CIRCLE('',#1106,0.399999999999999);
#63=CIRCLE('',#1107,0.1);
#64=CIRCLE('',#1110,0.4);
#65=CIRCLE('',#1111,0.100000000000001);
#66=CIRCLE('',#1113,0.5);
#67=CIRCLE('',#1114,0.8);
#68=CIRCLE('',#1117,0.5);
#69=CIRCLE('',#1118,0.8);
#70=CIRCLE('',#1120,0.400000000000001);
#71=CIRCLE('',#1121,0.0999999999999993);
#72=CIRCLE('',#1124,0.4);
#73=CIRCLE('',#1125,0.100000000000001);
#74=CIRCLE('',#1127,0.5);
#75=CIRCLE('',#1128,0.800000000000003);
#76=CONICAL_SURFACE('',#1045,0.650000000000001,0.785398163397451);
#77=CONICAL_SURFACE('',#1048,0.250000000000001,0.785398163397447);
#78=CONICAL_SURFACE('',#1052,0.250000000000001,0.78539816339744);
#79=CONICAL_SURFACE('',#1055,0.65,0.78539816339744);
#80=CONICAL_SURFACE('',#1059,0.65,0.785398163397447);
#81=CONICAL_SURFACE('',#1062,0.250000000000001,0.785398163397447);
#82=CONICAL_SURFACE('',#1066,0.25,0.785398163397447);
#83=CONICAL_SURFACE('',#1069,0.65,0.785398163397447);
#84=CONICAL_SURFACE('',#1073,0.65,0.785398163397447);
#85=CONICAL_SURFACE('',#1076,0.250000000000001,0.785398163397447);
#86=CONICAL_SURFACE('',#1080,0.25,0.785398163397445);
#87=CONICAL_SURFACE('',#1091,0.25,0.785398163397445);
#88=CONICAL_SURFACE('',#1095,0.250000000000001,0.785398163397447);
#89=CONICAL_SURFACE('',#1098,0.65,0.785398163397447);
#90=CONICAL_SURFACE('',#1102,0.65,0.785398163397447);
#91=CONICAL_SURFACE('',#1105,0.25,0.785398163397447);
#92=CONICAL_SURFACE('',#1109,0.250000000000001,0.785398163397447);
#93=CONICAL_SURFACE('',#1112,0.65,0.785398163397447);
#94=CONICAL_SURFACE('',#1116,0.65,0.78539816339744);
#95=CONICAL_SURFACE('',#1119,0.25,0.785398163397444);
#96=CONICAL_SURFACE('',#1123,0.250000000000001,0.785398163397447);
#97=CONICAL_SURFACE('',#1126,0.650000000000002,0.785398163397451);
#98=FACE_OUTER_BOUND('',#163,.T.);
#99=FACE_OUTER_BOUND('',#164,.T.);
#100=FACE_OUTER_BOUND('',#165,.T.);
#101=FACE_OUTER_BOUND('',#166,.T.);
#102=FACE_OUTER_BOUND('',#167,.T.);
#103=FACE_OUTER_BOUND('',#168,.T.);
#104=FACE_OUTER_BOUND('',#169,.T.);
#105=FACE_OUTER_BOUND('',#170,.T.);
#106=FACE_OUTER_BOUND('',#171,.T.);
#107=FACE_OUTER_BOUND('',#172,.T.);
#108=FACE_OUTER_BOUND('',#173,.T.);
#109=FACE_OUTER_BOUND('',#174,.T.);
#110=FACE_OUTER_BOUND('',#175,.T.);
#111=FACE_OUTER_BOUND('',#176,.T.);
#112=FACE_OUTER_BOUND('',#177,.T.);
#113=FACE_OUTER_BOUND('',#178,.T.);
#114=FACE_OUTER_BOUND('',#179,.T.);
#115=FACE_OUTER_BOUND('',#180,.T.);
#116=FACE_OUTER_BOUND('',#181,.T.);
#117=FACE_OUTER_BOUND('',#182,.T.);
#118=FACE_OUTER_BOUND('',#183,.T.);
#119=FACE_OUTER_BOUND('',#184,.T.);
#120=FACE_OUTER_BOUND('',#185,.T.);
#121=FACE_OUTER_BOUND('',#186,.T.);
#122=FACE_OUTER_BOUND('',#187,.T.);
#123=FACE_OUTER_BOUND('',#188,.T.);
#124=FACE_OUTER_BOUND('',#189,.T.);
#125=FACE_OUTER_BOUND('',#190,.T.);
#126=FACE_OUTER_BOUND('',#191,.T.);
#127=FACE_OUTER_BOUND('',#192,.T.);
#128=FACE_OUTER_BOUND('',#193,.T.);
#129=FACE_OUTER_BOUND('',#194,.T.);
#130=FACE_OUTER_BOUND('',#195,.T.);
#131=FACE_OUTER_BOUND('',#196,.T.);
#132=FACE_OUTER_BOUND('',#197,.T.);
#133=FACE_OUTER_BOUND('',#198,.T.);
#134=FACE_OUTER_BOUND('',#199,.T.);
#135=FACE_OUTER_BOUND('',#200,.T.);
#136=FACE_OUTER_BOUND('',#201,.T.);
#137=FACE_OUTER_BOUND('',#202,.T.);
#138=FACE_OUTER_BOUND('',#203,.T.);
#139=FACE_OUTER_BOUND('',#204,.T.);
#140=FACE_OUTER_BOUND('',#205,.T.);
#141=FACE_OUTER_BOUND('',#206,.T.);
#142=FACE_OUTER_BOUND('',#207,.T.);
#143=FACE_OUTER_BOUND('',#208,.T.);
#144=FACE_OUTER_BOUND('',#209,.T.);
#145=FACE_OUTER_BOUND('',#210,.T.);
#146=FACE_OUTER_BOUND('',#211,.T.);
#147=FACE_OUTER_BOUND('',#212,.T.);
#148=FACE_OUTER_BOUND('',#213,.T.);
#149=FACE_OUTER_BOUND('',#214,.T.);
#150=FACE_OUTER_BOUND('',#215,.T.);
#151=FACE_OUTER_BOUND('',#216,.T.);
#152=FACE_OUTER_BOUND('',#217,.T.);
#153=FACE_OUTER_BOUND('',#218,.T.);
#154=FACE_OUTER_BOUND('',#219,.T.);
#155=FACE_OUTER_BOUND('',#220,.T.);
#156=FACE_OUTER_BOUND('',#221,.T.);
#157=FACE_OUTER_BOUND('',#222,.T.);
#158=FACE_OUTER_BOUND('',#223,.T.);
#159=FACE_OUTER_BOUND('',#224,.T.);
#160=FACE_OUTER_BOUND('',#225,.T.);
#161=FACE_OUTER_BOUND('',#226,.T.);
#162=FACE_OUTER_BOUND('',#227,.T.);
#163=EDGE_LOOP('',(#645,#646,#647));
#164=EDGE_LOOP('',(#648,#649,#650));
#165=EDGE_LOOP('',(#651,#652,#653,#654));
#166=EDGE_LOOP('',(#655,#656,#657,#658));
#167=EDGE_LOOP('',(#659,#660,#661,#662));
#168=EDGE_LOOP('',(#663,#664,#665,#666));
#169=EDGE_LOOP('',(#667,#668,#669,#670));
#170=EDGE_LOOP('',(#671,#672,#673,#674));
#171=EDGE_LOOP('',(#675,#676,#677,#678));
#172=EDGE_LOOP('',(#679,#680,#681,#682));
#173=EDGE_LOOP('',(#683,#684,#685,#686));
#174=EDGE_LOOP('',(#687,#688,#689,#690));
#175=EDGE_LOOP('',(#691,#692,#693,#694));
#176=EDGE_LOOP('',(#695,#696,#697,#698));
#177=EDGE_LOOP('',(#699,#700,#701,#702));
#178=EDGE_LOOP('',(#703,#704,#705,#706));
#179=EDGE_LOOP('',(#707,#708,#709,#710));
#180=EDGE_LOOP('',(#711,#712,#713,#714));
#181=EDGE_LOOP('',(#715,#716,#717,#718));
#182=EDGE_LOOP('',(#719,#720,#721,#722));
#183=EDGE_LOOP('',(#723,#724,#725));
#184=EDGE_LOOP('',(#726,#727,#728,#729));
#185=EDGE_LOOP('',(#730,#731,#732));
#186=EDGE_LOOP('',(#733,#734,#735,#736));
#187=EDGE_LOOP('',(#737,#738,#739,#740));
#188=EDGE_LOOP('',(#741,#742,#743,#744));
#189=EDGE_LOOP('',(#745,#746,#747,#748));
#190=EDGE_LOOP('',(#749,#750,#751,#752));
#191=EDGE_LOOP('',(#753,#754,#755,#756));
#192=EDGE_LOOP('',(#757,#758,#759,#760));
#193=EDGE_LOOP('',(#761,#762,#763,#764));
#194=EDGE_LOOP('',(#765,#766,#767,#768));
#195=EDGE_LOOP('',(#769,#770,#771,#772));
#196=EDGE_LOOP('',(#773,#774,#775,#776));
#197=EDGE_LOOP('',(#777,#778,#779,#780));
#198=EDGE_LOOP('',(#781,#782,#783,#784));
#199=EDGE_LOOP('',(#785,#786,#787,#788));
#200=EDGE_LOOP('',(#789,#790,#791,#792));
#201=EDGE_LOOP('',(#793,#794,#795,#796));
#202=EDGE_LOOP('',(#797,#798,#799,#800));
#203=EDGE_LOOP('',(#801,#802,#803,#804));
#204=EDGE_LOOP('',(#805,#806,#807,#808));
#205=EDGE_LOOP('',(#809,#810,#811,#812));
#206=EDGE_LOOP('',(#813,#814,#815,#816));
#207=EDGE_LOOP('',(#817,#818,#819,#820));
#208=EDGE_LOOP('',(#821,#822,#823,#824,#825,#826,#827,#828,#829,#830,#831,
#832,#833,#834,#835,#836,#837,#838,#839));
#209=EDGE_LOOP('',(#840,#841,#842,#843));
#210=EDGE_LOOP('',(#844,#845,#846,#847,#848,#849,#850,#851,#852,#853,#854,
#855,#856,#857,#858,#859,#860,#861,#862));
#211=EDGE_LOOP('',(#863,#864,#865,#866));
#212=EDGE_LOOP('',(#867,#868,#869,#870));
#213=EDGE_LOOP('',(#871,#872,#873,#874));
#214=EDGE_LOOP('',(#875,#876,#877,#878));
#215=EDGE_LOOP('',(#879,#880,#881,#882));
#216=EDGE_LOOP('',(#883,#884,#885,#886));
#217=EDGE_LOOP('',(#887,#888,#889,#890));
#218=EDGE_LOOP('',(#891,#892,#893,#894));
#219=EDGE_LOOP('',(#895,#896,#897,#898));
#220=EDGE_LOOP('',(#899,#900,#901,#902));
#221=EDGE_LOOP('',(#903,#904,#905,#906));
#222=EDGE_LOOP('',(#907,#908,#909,#910));
#223=EDGE_LOOP('',(#911,#912,#913,#914));
#224=EDGE_LOOP('',(#915,#916,#917,#918));
#225=EDGE_LOOP('',(#919,#920,#921,#922));
#226=EDGE_LOOP('',(#923,#924,#925,#926));
#227=EDGE_LOOP('',(#927,#928,#929,#930));
#228=LINE('',#1479,#325);
#229=LINE('',#1481,#326);
#230=LINE('',#1482,#327);
#231=LINE('',#1486,#328);
#232=LINE('',#1488,#329);
#233=LINE('',#1489,#330);
#234=LINE('',#1495,#331);
#235=LINE('',#1505,#332);
#236=LINE('',#1511,#333);
#237=LINE('',#1512,#334);
#238=LINE('',#1513,#335);
#239=LINE('',#1517,#336);
#240=LINE('',#1523,#337);
#241=LINE('',#1529,#338);
#242=LINE('',#1530,#339);
#243=LINE('',#1531,#340);
#244=LINE('',#1535,#341);
#245=LINE('',#1541,#342);
#246=LINE('',#1547,#343);
#247=LINE('',#1548,#344);
#248=LINE('',#1549,#345);
#249=LINE('',#1553,#346);
#250=LINE('',#1559,#347);
#251=LINE('',#1565,#348);
#252=LINE('',#1566,#349);
#253=LINE('',#1567,#350);
#254=LINE('',#1571,#351);
#255=LINE('',#1577,#352);
#256=LINE('',#1583,#353);
#257=LINE('',#1584,#354);
#258=LINE('',#1585,#355);
#259=LINE('',#1589,#356);
#260=LINE('',#1593,#357);
#261=LINE('',#1594,#358);
#262=LINE('',#1596,#359);
#263=LINE('',#1597,#360);
#264=LINE('',#1601,#361);
#265=LINE('',#1603,#362);
#266=LINE('',#1604,#363);
#267=LINE('',#1607,#364);
#268=LINE('',#1609,#365);
#269=LINE('',#1617,#366);
#270=LINE('',#1619,#367);
#271=LINE('',#1620,#368);
#272=LINE('',#1622,#369);
#273=LINE('',#1623,#370);
#274=LINE('',#1625,#371);
#275=LINE('',#1626,#372);
#276=LINE('',#1630,#373);
#277=LINE('',#1631,#374);
#278=LINE('',#1632,#375);
#279=LINE('',#1636,#376);
#280=LINE('',#1642,#377);
#281=LINE('',#1643,#378);
#282=LINE('',#1644,#379);
#283=LINE('',#1648,#380);
#284=LINE('',#1654,#381);
#285=LINE('',#1660,#382);
#286=LINE('',#1661,#383);
#287=LINE('',#1662,#384);
#288=LINE('',#1666,#385);
#289=LINE('',#1672,#386);
#290=LINE('',#1678,#387);
#291=LINE('',#1679,#388);
#292=LINE('',#1680,#389);
#293=LINE('',#1684,#390);
#294=LINE('',#1690,#391);
#295=LINE('',#1696,#392);
#296=LINE('',#1697,#393);
#297=LINE('',#1698,#394);
#298=LINE('',#1702,#395);
#299=LINE('',#1708,#396);
#300=LINE('',#1714,#397);
#301=LINE('',#1715,#398);
#302=LINE('',#1716,#399);
#303=LINE('',#1720,#400);
#304=LINE('',#1727,#401);
#305=LINE('',#1728,#402);
#306=LINE('',#1730,#403);
#307=LINE('',#1731,#404);
#308=LINE('',#1733,#405);
#309=LINE('',#1738,#406);
#310=LINE('',#1740,#407);
#311=LINE('',#1742,#408);
#312=LINE('',#1744,#409);
#313=LINE('',#1746,#410);
#314=LINE('',#1748,#411);
#315=LINE('',#1750,#412);
#316=LINE('',#1751,#413);
#317=LINE('',#1753,#414);
#318=LINE('',#1754,#415);
#319=LINE('',#1756,#416);
#320=LINE('',#1759,#417);
#321=LINE('',#1761,#418);
#322=LINE('',#1763,#419);
#323=LINE('',#1765,#420);
#324=LINE('',#1768,#421);
#325=VECTOR('',#1159,10.);
#326=VECTOR('',#1160,10.);
#327=VECTOR('',#1161,10.);
#328=VECTOR('',#1164,10.);
#329=VECTOR('',#1165,10.);
#330=VECTOR('',#1166,10.);
#331=VECTOR('',#1171,10.);
#332=VECTOR('',#1176,10.);
#333=VECTOR('',#1183,10.);
#334=VECTOR('',#1184,10.);
#335=VECTOR('',#1185,10.);
#336=VECTOR('',#1188,10.);
#337=VECTOR('',#1195,10.);
#338=VECTOR('',#1202,10.);
#339=VECTOR('',#1203,10.);
#340=VECTOR('',#1204,10.);
#341=VECTOR('',#1207,10.);
#342=VECTOR('',#1214,10.);
#343=VECTOR('',#1221,10.);
#344=VECTOR('',#1222,10.);
#345=VECTOR('',#1223,10.);
#346=VECTOR('',#1226,10.);
#347=VECTOR('',#1233,10.);
#348=VECTOR('',#1240,10.);
#349=VECTOR('',#1241,10.);
#350=VECTOR('',#1242,10.);
#351=VECTOR('',#1245,10.);
#352=VECTOR('',#1252,10.);
#353=VECTOR('',#1259,10.);
#354=VECTOR('',#1260,10.);
#355=VECTOR('',#1261,10.);
#356=VECTOR('',#1264,10.);
#357=VECTOR('',#1271,10.);
#358=VECTOR('',#1272,10.);
#359=VECTOR('',#1275,10.);
#360=VECTOR('',#1276,10.);
#361=VECTOR('',#1279,10.);
#362=VECTOR('',#1280,10.);
#363=VECTOR('',#1281,10.);
#364=VECTOR('',#1284,10.);
#365=VECTOR('',#1285,10.);
#366=VECTOR('',#1288,10.);
#367=VECTOR('',#1289,10.);
#368=VECTOR('',#1290,10.);
#369=VECTOR('',#1293,10.);
#370=VECTOR('',#1294,10.);
#371=VECTOR('',#1297,10.);
#372=VECTOR('',#1298,10.);
#373=VECTOR('',#1301,10.);
#374=VECTOR('',#1302,10.);
#375=VECTOR('',#1303,10.);
#376=VECTOR('',#1306,10.);
#377=VECTOR('',#1313,10.);
#378=VECTOR('',#1314,10.);
#379=VECTOR('',#1315,10.);
#380=VECTOR('',#1318,10.);
#381=VECTOR('',#1325,10.);
#382=VECTOR('',#1332,10.);
#383=VECTOR('',#1333,10.);
#384=VECTOR('',#1334,10.);
#385=VECTOR('',#1337,10.);
#386=VECTOR('',#1344,10.);
#387=VECTOR('',#1351,10.);
#388=VECTOR('',#1352,10.);
#389=VECTOR('',#1353,10.);
#390=VECTOR('',#1356,10.);
#391=VECTOR('',#1363,10.);
#392=VECTOR('',#1370,10.);
#393=VECTOR('',#1371,10.);
#394=VECTOR('',#1372,10.);
#395=VECTOR('',#1375,10.);
#396=VECTOR('',#1382,10.);
#397=VECTOR('',#1389,10.);
#398=VECTOR('',#1390,10.);
#399=VECTOR('',#1391,10.);
#400=VECTOR('',#1394,10.);
#401=VECTOR('',#1407,10.);
#402=VECTOR('',#1408,10.);
#403=VECTOR('',#1411,10.);
#404=VECTOR('',#1412,10.);
#405=VECTOR('',#1415,1000.);
#406=VECTOR('',#1424,10.);
#407=VECTOR('',#1427,1000.);
#408=VECTOR('',#1430,1000.);
#409=VECTOR('',#1433,1000.);
#410=VECTOR('',#1436,1000.);
#411=VECTOR('',#1439,1000.);
#412=VECTOR('',#1442,1000.);
#413=VECTOR('',#1443,1000.);
#414=VECTOR('',#1446,1000.);
#415=VECTOR('',#1447,1000.);
#416=VECTOR('',#1450,1000.);
#417=VECTOR('',#1455,1000.);
#418=VECTOR('',#1458,1000.);
#419=VECTOR('',#1461,1000.);
#420=VECTOR('',#1464,1000.);
#421=VECTOR('',#1469,1000.);
#422=VERTEX_POINT('',#1477);
#423=VERTEX_POINT('',#1478);
#424=VERTEX_POINT('',#1480);
#425=VERTEX_POINT('',#1484);
#426=VERTEX_POINT('',#1485);
#427=VERTEX_POINT('',#1487);
#428=VERTEX_POINT('',#1491);
#429=VERTEX_POINT('',#1492);
#430=VERTEX_POINT('',#1494);
#431=VERTEX_POINT('',#1496);
#432=VERTEX_POINT('',#1503);
#433=VERTEX_POINT('',#1504);
#434=VERTEX_POINT('',#1509);
#435=VERTEX_POINT('',#1510);
#436=VERTEX_POINT('',#1515);
#437=VERTEX_POINT('',#1516);
#438=VERTEX_POINT('',#1521);
#439=VERTEX_POINT('',#1522);
#440=VERTEX_POINT('',#1527);
#441=VERTEX_POINT('',#1528);
#442=VERTEX_POINT('',#1533);
#443=VERTEX_POINT('',#1534);
#444=VERTEX_POINT('',#1539);
#445=VERTEX_POINT('',#1540);
#446=VERTEX_POINT('',#1545);
#447=VERTEX_POINT('',#1546);
#448=VERTEX_POINT('',#1551);
#449=VERTEX_POINT('',#1552);
#450=VERTEX_POINT('',#1557);
#451=VERTEX_POINT('',#1558);
#452=VERTEX_POINT('',#1563);
#453=VERTEX_POINT('',#1564);
#454=VERTEX_POINT('',#1569);
#455=VERTEX_POINT('',#1570);
#456=VERTEX_POINT('',#1575);
#457=VERTEX_POINT('',#1576);
#458=VERTEX_POINT('',#1581);
#459=VERTEX_POINT('',#1582);
#460=VERTEX_POINT('',#1587);
#461=VERTEX_POINT('',#1588);
#462=VERTEX_POINT('',#1599);
#463=VERTEX_POINT('',#1600);
#464=VERTEX_POINT('',#1602);
#465=VERTEX_POINT('',#1606);
#466=VERTEX_POINT('',#1608);
#467=VERTEX_POINT('',#1615);
#468=VERTEX_POINT('',#1616);
#469=VERTEX_POINT('',#1618);
#470=VERTEX_POINT('',#1628);
#471=VERTEX_POINT('',#1629);
#472=VERTEX_POINT('',#1634);
#473=VERTEX_POINT('',#1635);
#474=VERTEX_POINT('',#1640);
#475=VERTEX_POINT('',#1641);
#476=VERTEX_POINT('',#1646);
#477=VERTEX_POINT('',#1647);
#478=VERTEX_POINT('',#1652);
#479=VERTEX_POINT('',#1653);
#480=VERTEX_POINT('',#1658);
#481=VERTEX_POINT('',#1659);
#482=VERTEX_POINT('',#1664);
#483=VERTEX_POINT('',#1665);
#484=VERTEX_POINT('',#1670);
#485=VERTEX_POINT('',#1671);
#486=VERTEX_POINT('',#1676);
#487=VERTEX_POINT('',#1677);
#488=VERTEX_POINT('',#1682);
#489=VERTEX_POINT('',#1683);
#490=VERTEX_POINT('',#1688);
#491=VERTEX_POINT('',#1689);
#492=VERTEX_POINT('',#1694);
#493=VERTEX_POINT('',#1695);
#494=VERTEX_POINT('',#1700);
#495=VERTEX_POINT('',#1701);
#496=VERTEX_POINT('',#1706);
#497=VERTEX_POINT('',#1707);
#498=VERTEX_POINT('',#1712);
#499=VERTEX_POINT('',#1713);
#500=VERTEX_POINT('',#1718);
#501=VERTEX_POINT('',#1719);
#502=EDGE_CURVE('',#422,#423,#228,.T.);
#503=EDGE_CURVE('',#424,#422,#229,.T.);
#504=EDGE_CURVE('',#423,#424,#230,.T.);
#505=EDGE_CURVE('',#425,#426,#231,.T.);
#506=EDGE_CURVE('',#427,#425,#232,.T.);
#507=EDGE_CURVE('',#426,#427,#233,.T.);
#508=EDGE_CURVE('',#428,#429,#32,.T.);
#509=EDGE_CURVE('',#429,#430,#234,.T.);
#510=EDGE_CURVE('',#430,#431,#33,.T.);
#511=EDGE_CURVE('',#431,#428,#30,.T.);
#512=EDGE_CURVE('',#432,#433,#235,.T.);
#513=EDGE_CURVE('',#433,#430,#34,.T.);
#514=EDGE_CURVE('',#429,#432,#35,.T.);
#515=EDGE_CURVE('',#434,#435,#236,.T.);
#516=EDGE_CURVE('',#435,#433,#237,.T.);
#517=EDGE_CURVE('',#432,#434,#238,.T.);
#518=EDGE_CURVE('',#436,#437,#239,.T.);
#519=EDGE_CURVE('',#437,#435,#36,.T.);
#520=EDGE_CURVE('',#434,#436,#37,.T.);
#521=EDGE_CURVE('',#438,#439,#240,.T.);
#522=EDGE_CURVE('',#439,#437,#38,.T.);
#523=EDGE_CURVE('',#436,#438,#39,.T.);
#524=EDGE_CURVE('',#440,#441,#241,.T.);
#525=EDGE_CURVE('',#441,#439,#242,.T.);
#526=EDGE_CURVE('',#438,#440,#243,.T.);
#527=EDGE_CURVE('',#442,#443,#244,.T.);
#528=EDGE_CURVE('',#443,#441,#40,.T.);
#529=EDGE_CURVE('',#440,#442,#41,.T.);
#530=EDGE_CURVE('',#444,#445,#245,.T.);
#531=EDGE_CURVE('',#445,#443,#42,.T.);
#532=EDGE_CURVE('',#442,#444,#43,.T.);
#533=EDGE_CURVE('',#446,#447,#246,.T.);
#534=EDGE_CURVE('',#447,#445,#247,.T.);
#535=EDGE_CURVE('',#444,#446,#248,.T.);
#536=EDGE_CURVE('',#448,#449,#249,.T.);
#537=EDGE_CURVE('',#449,#447,#44,.T.);
#538=EDGE_CURVE('',#446,#448,#45,.T.);
#539=EDGE_CURVE('',#450,#451,#250,.T.);
#540=EDGE_CURVE('',#451,#449,#46,.T.);
#541=EDGE_CURVE('',#448,#450,#47,.T.);
#542=EDGE_CURVE('',#452,#453,#251,.T.);
#543=EDGE_CURVE('',#453,#451,#252,.T.);
#544=EDGE_CURVE('',#450,#452,#253,.T.);
#545=EDGE_CURVE('',#454,#455,#254,.T.);
#546=EDGE_CURVE('',#455,#453,#48,.T.);
#547=EDGE_CURVE('',#452,#454,#49,.T.);
#548=EDGE_CURVE('',#456,#457,#255,.T.);
#549=EDGE_CURVE('',#457,#455,#50,.T.);
#550=EDGE_CURVE('',#454,#456,#51,.T.);
#551=EDGE_CURVE('',#458,#459,#256,.T.);
#552=EDGE_CURVE('',#459,#457,#257,.T.);
#553=EDGE_CURVE('',#456,#458,#258,.T.);
#554=EDGE_CURVE('',#460,#461,#259,.T.);
#555=EDGE_CURVE('',#461,#459,#52,.T.);
#556=EDGE_CURVE('',#458,#460,#53,.T.);
#557=EDGE_CURVE('',#460,#427,#260,.T.);
#558=EDGE_CURVE('',#425,#461,#261,.T.);
#559=EDGE_CURVE('',#424,#426,#262,.T.);
#560=EDGE_CURVE('',#427,#423,#263,.T.);
#561=EDGE_CURVE('',#462,#463,#264,.T.);
#562=EDGE_CURVE('',#464,#462,#265,.T.);
#563=EDGE_CURVE('',#463,#464,#266,.T.);
#564=EDGE_CURVE('',#465,#462,#267,.T.);
#565=EDGE_CURVE('',#463,#466,#268,.T.);
#566=EDGE_CURVE('',#466,#465,#31,.T.);
#567=EDGE_CURVE('',#467,#468,#269,.T.);
#568=EDGE_CURVE('',#469,#467,#270,.T.);
#569=EDGE_CURVE('',#468,#469,#271,.T.);
#570=EDGE_CURVE('',#426,#469,#272,.T.);
#571=EDGE_CURVE('',#467,#425,#273,.T.);
#572=EDGE_CURVE('',#469,#464,#274,.T.);
#573=EDGE_CURVE('',#462,#468,#275,.T.);
#574=EDGE_CURVE('',#470,#471,#276,.T.);
#575=EDGE_CURVE('',#471,#467,#277,.T.);
#576=EDGE_CURVE('',#468,#470,#278,.T.);
#577=EDGE_CURVE('',#472,#473,#279,.T.);
#578=EDGE_CURVE('',#473,#471,#54,.T.);
#579=EDGE_CURVE('',#470,#472,#55,.T.);
#580=EDGE_CURVE('',#474,#475,#280,.T.);
#581=EDGE_CURVE('',#475,#473,#281,.T.);
#582=EDGE_CURVE('',#472,#474,#282,.T.);
#583=EDGE_CURVE('',#476,#477,#283,.T.);
#584=EDGE_CURVE('',#477,#475,#56,.T.);
#585=EDGE_CURVE('',#474,#476,#57,.T.);
#586=EDGE_CURVE('',#478,#479,#284,.T.);
#587=EDGE_CURVE('',#479,#477,#58,.T.);
#588=EDGE_CURVE('',#476,#478,#59,.T.);
#589=EDGE_CURVE('',#480,#481,#285,.T.);
#590=EDGE_CURVE('',#481,#479,#286,.T.);
#591=EDGE_CURVE('',#478,#480,#287,.T.);
#592=EDGE_CURVE('',#482,#483,#288,.T.);
#593=EDGE_CURVE('',#483,#481,#60,.T.);
#594=EDGE_CURVE('',#480,#482,#61,.T.);
#595=EDGE_CURVE('',#484,#485,#289,.T.);
#596=EDGE_CURVE('',#485,#483,#62,.T.);
#597=EDGE_CURVE('',#482,#484,#63,.T.);
#598=EDGE_CURVE('',#486,#487,#290,.T.);
#599=EDGE_CURVE('',#487,#485,#291,.T.);
#600=EDGE_CURVE('',#484,#486,#292,.T.);
#601=EDGE_CURVE('',#488,#489,#293,.T.);
#602=EDGE_CURVE('',#489,#487,#64,.T.);
#603=EDGE_CURVE('',#486,#488,#65,.T.);
#604=EDGE_CURVE('',#490,#491,#294,.T.);
#605=EDGE_CURVE('',#491,#489,#66,.T.);
#606=EDGE_CURVE('',#488,#490,#67,.T.);
#607=EDGE_CURVE('',#492,#493,#295,.T.);
#608=EDGE_CURVE('',#493,#491,#296,.T.);
#609=EDGE_CURVE('',#490,#492,#297,.T.);
#610=EDGE_CURVE('',#494,#495,#298,.T.);
#611=EDGE_CURVE('',#495,#493,#68,.T.);
#612=EDGE_CURVE('',#492,#494,#69,.T.);
#613=EDGE_CURVE('',#496,#497,#299,.T.);
#614=EDGE_CURVE('',#497,#495,#70,.T.);
#615=EDGE_CURVE('',#494,#496,#71,.T.);
#616=EDGE_CURVE('',#498,#499,#300,.T.);
#617=EDGE_CURVE('',#499,#497,#301,.T.);
#618=EDGE_CURVE('',#496,#498,#302,.T.);
#619=EDGE_CURVE('',#500,#501,#303,.T.);
#620=EDGE_CURVE('',#501,#499,#72,.T.);
#621=EDGE_CURVE('',#498,#500,#73,.T.);
#622=EDGE_CURVE('',#466,#501,#74,.T.);
#623=EDGE_CURVE('',#500,#465,#75,.T.);
#624=EDGE_CURVE('',#464,#424,#304,.T.);
#625=EDGE_CURVE('',#422,#463,#305,.T.);
#626=EDGE_CURVE('',#431,#422,#306,.T.);
#627=EDGE_CURVE('',#423,#428,#307,.T.);
#628=EDGE_CURVE('',#461,#471,#308,.T.);
#629=EDGE_CURVE('',#466,#431,#309,.T.);
#630=EDGE_CURVE('',#501,#430,#310,.T.);
#631=EDGE_CURVE('',#433,#499,#311,.T.);
#632=EDGE_CURVE('',#435,#497,#312,.T.);
#633=EDGE_CURVE('',#473,#459,#313,.T.);
#634=EDGE_CURVE('',#475,#457,#314,.T.);
#635=EDGE_CURVE('',#441,#491,#315,.T.);
#636=EDGE_CURVE('',#493,#439,#316,.T.);
#637=EDGE_CURVE('',#453,#479,#317,.T.);
#638=EDGE_CURVE('',#481,#451,#318,.T.);
#639=EDGE_CURVE('',#477,#455,#319,.T.);
#640=EDGE_CURVE('',#449,#483,#320,.T.);
#641=EDGE_CURVE('',#485,#447,#321,.T.);
#642=EDGE_CURVE('',#487,#445,#322,.T.);
#643=EDGE_CURVE('',#489,#443,#323,.T.);
#644=EDGE_CURVE('',#437,#495,#324,.T.);
#645=ORIENTED_EDGE('',*,*,#502,.F.);
#646=ORIENTED_EDGE('',*,*,#503,.F.);
#647=ORIENTED_EDGE('',*,*,#504,.F.);
#648=ORIENTED_EDGE('',*,*,#505,.F.);
#649=ORIENTED_EDGE('',*,*,#506,.F.);
#650=ORIENTED_EDGE('',*,*,#507,.F.);
#651=ORIENTED_EDGE('',*,*,#508,.T.);
#652=ORIENTED_EDGE('',*,*,#509,.T.);
#653=ORIENTED_EDGE('',*,*,#510,.T.);
#654=ORIENTED_EDGE('',*,*,#511,.T.);
#655=ORIENTED_EDGE('',*,*,#512,.T.);
#656=ORIENTED_EDGE('',*,*,#513,.T.);
#657=ORIENTED_EDGE('',*,*,#509,.F.);
#658=ORIENTED_EDGE('',*,*,#514,.T.);
#659=ORIENTED_EDGE('',*,*,#515,.T.);
#660=ORIENTED_EDGE('',*,*,#516,.T.);
#661=ORIENTED_EDGE('',*,*,#512,.F.);
#662=ORIENTED_EDGE('',*,*,#517,.T.);
#663=ORIENTED_EDGE('',*,*,#518,.T.);
#664=ORIENTED_EDGE('',*,*,#519,.T.);
#665=ORIENTED_EDGE('',*,*,#515,.F.);
#666=ORIENTED_EDGE('',*,*,#520,.T.);
#667=ORIENTED_EDGE('',*,*,#521,.T.);
#668=ORIENTED_EDGE('',*,*,#522,.T.);
#669=ORIENTED_EDGE('',*,*,#518,.F.);
#670=ORIENTED_EDGE('',*,*,#523,.T.);
#671=ORIENTED_EDGE('',*,*,#524,.T.);
#672=ORIENTED_EDGE('',*,*,#525,.T.);
#673=ORIENTED_EDGE('',*,*,#521,.F.);
#674=ORIENTED_EDGE('',*,*,#526,.T.);
#675=ORIENTED_EDGE('',*,*,#527,.T.);
#676=ORIENTED_EDGE('',*,*,#528,.T.);
#677=ORIENTED_EDGE('',*,*,#524,.F.);
#678=ORIENTED_EDGE('',*,*,#529,.T.);
#679=ORIENTED_EDGE('',*,*,#530,.T.);
#680=ORIENTED_EDGE('',*,*,#531,.T.);
#681=ORIENTED_EDGE('',*,*,#527,.F.);
#682=ORIENTED_EDGE('',*,*,#532,.T.);
#683=ORIENTED_EDGE('',*,*,#533,.T.);
#684=ORIENTED_EDGE('',*,*,#534,.T.);
#685=ORIENTED_EDGE('',*,*,#530,.F.);
#686=ORIENTED_EDGE('',*,*,#535,.T.);
#687=ORIENTED_EDGE('',*,*,#536,.T.);
#688=ORIENTED_EDGE('',*,*,#537,.T.);
#689=ORIENTED_EDGE('',*,*,#533,.F.);
#690=ORIENTED_EDGE('',*,*,#538,.T.);
#691=ORIENTED_EDGE('',*,*,#539,.T.);
#692=ORIENTED_EDGE('',*,*,#540,.T.);
#693=ORIENTED_EDGE('',*,*,#536,.F.);
#694=ORIENTED_EDGE('',*,*,#541,.T.);
#695=ORIENTED_EDGE('',*,*,#542,.T.);
#696=ORIENTED_EDGE('',*,*,#543,.T.);
#697=ORIENTED_EDGE('',*,*,#539,.F.);
#698=ORIENTED_EDGE('',*,*,#544,.T.);
#699=ORIENTED_EDGE('',*,*,#545,.T.);
#700=ORIENTED_EDGE('',*,*,#546,.T.);
#701=ORIENTED_EDGE('',*,*,#542,.F.);
#702=ORIENTED_EDGE('',*,*,#547,.T.);
#703=ORIENTED_EDGE('',*,*,#548,.T.);
#704=ORIENTED_EDGE('',*,*,#549,.T.);
#705=ORIENTED_EDGE('',*,*,#545,.F.);
#706=ORIENTED_EDGE('',*,*,#550,.T.);
#707=ORIENTED_EDGE('',*,*,#551,.T.);
#708=ORIENTED_EDGE('',*,*,#552,.T.);
#709=ORIENTED_EDGE('',*,*,#548,.F.);
#710=ORIENTED_EDGE('',*,*,#553,.T.);
#711=ORIENTED_EDGE('',*,*,#554,.T.);
#712=ORIENTED_EDGE('',*,*,#555,.T.);
#713=ORIENTED_EDGE('',*,*,#551,.F.);
#714=ORIENTED_EDGE('',*,*,#556,.T.);
#715=ORIENTED_EDGE('',*,*,#554,.F.);
#716=ORIENTED_EDGE('',*,*,#557,.T.);
#717=ORIENTED_EDGE('',*,*,#506,.T.);
#718=ORIENTED_EDGE('',*,*,#558,.T.);
#719=ORIENTED_EDGE('',*,*,#504,.T.);
#720=ORIENTED_EDGE('',*,*,#559,.T.);
#721=ORIENTED_EDGE('',*,*,#507,.T.);
#722=ORIENTED_EDGE('',*,*,#560,.T.);
#723=ORIENTED_EDGE('',*,*,#561,.F.);
#724=ORIENTED_EDGE('',*,*,#562,.F.);
#725=ORIENTED_EDGE('',*,*,#563,.F.);
#726=ORIENTED_EDGE('',*,*,#564,.T.);
#727=ORIENTED_EDGE('',*,*,#561,.T.);
#728=ORIENTED_EDGE('',*,*,#565,.T.);
#729=ORIENTED_EDGE('',*,*,#566,.T.);
#730=ORIENTED_EDGE('',*,*,#567,.F.);
#731=ORIENTED_EDGE('',*,*,#568,.F.);
#732=ORIENTED_EDGE('',*,*,#569,.F.);
#733=ORIENTED_EDGE('',*,*,#505,.T.);
#734=ORIENTED_EDGE('',*,*,#570,.T.);
#735=ORIENTED_EDGE('',*,*,#568,.T.);
#736=ORIENTED_EDGE('',*,*,#571,.T.);
#737=ORIENTED_EDGE('',*,*,#569,.T.);
#738=ORIENTED_EDGE('',*,*,#572,.T.);
#739=ORIENTED_EDGE('',*,*,#562,.T.);
#740=ORIENTED_EDGE('',*,*,#573,.T.);
#741=ORIENTED_EDGE('',*,*,#574,.T.);
#742=ORIENTED_EDGE('',*,*,#575,.T.);
#743=ORIENTED_EDGE('',*,*,#567,.T.);
#744=ORIENTED_EDGE('',*,*,#576,.T.);
#745=ORIENTED_EDGE('',*,*,#577,.T.);
#746=ORIENTED_EDGE('',*,*,#578,.T.);
#747=ORIENTED_EDGE('',*,*,#574,.F.);
#748=ORIENTED_EDGE('',*,*,#579,.T.);
#749=ORIENTED_EDGE('',*,*,#580,.T.);
#750=ORIENTED_EDGE('',*,*,#581,.T.);
#751=ORIENTED_EDGE('',*,*,#577,.F.);
#752=ORIENTED_EDGE('',*,*,#582,.T.);
#753=ORIENTED_EDGE('',*,*,#583,.T.);
#754=ORIENTED_EDGE('',*,*,#584,.T.);
#755=ORIENTED_EDGE('',*,*,#580,.F.);
#756=ORIENTED_EDGE('',*,*,#585,.T.);
#757=ORIENTED_EDGE('',*,*,#586,.T.);
#758=ORIENTED_EDGE('',*,*,#587,.T.);
#759=ORIENTED_EDGE('',*,*,#583,.F.);
#760=ORIENTED_EDGE('',*,*,#588,.T.);
#761=ORIENTED_EDGE('',*,*,#589,.T.);
#762=ORIENTED_EDGE('',*,*,#590,.T.);
#763=ORIENTED_EDGE('',*,*,#586,.F.);
#764=ORIENTED_EDGE('',*,*,#591,.T.);
#765=ORIENTED_EDGE('',*,*,#592,.T.);
#766=ORIENTED_EDGE('',*,*,#593,.T.);
#767=ORIENTED_EDGE('',*,*,#589,.F.);
#768=ORIENTED_EDGE('',*,*,#594,.T.);
#769=ORIENTED_EDGE('',*,*,#595,.T.);
#770=ORIENTED_EDGE('',*,*,#596,.T.);
#771=ORIENTED_EDGE('',*,*,#592,.F.);
#772=ORIENTED_EDGE('',*,*,#597,.T.);
#773=ORIENTED_EDGE('',*,*,#598,.T.);
#774=ORIENTED_EDGE('',*,*,#599,.T.);
#775=ORIENTED_EDGE('',*,*,#595,.F.);
#776=ORIENTED_EDGE('',*,*,#600,.T.);
#777=ORIENTED_EDGE('',*,*,#601,.T.);
#778=ORIENTED_EDGE('',*,*,#602,.T.);
#779=ORIENTED_EDGE('',*,*,#598,.F.);
#780=ORIENTED_EDGE('',*,*,#603,.T.);
#781=ORIENTED_EDGE('',*,*,#604,.T.);
#782=ORIENTED_EDGE('',*,*,#605,.T.);
#783=ORIENTED_EDGE('',*,*,#601,.F.);
#784=ORIENTED_EDGE('',*,*,#606,.T.);
#785=ORIENTED_EDGE('',*,*,#607,.T.);
#786=ORIENTED_EDGE('',*,*,#608,.T.);
#787=ORIENTED_EDGE('',*,*,#604,.F.);
#788=ORIENTED_EDGE('',*,*,#609,.T.);
#789=ORIENTED_EDGE('',*,*,#610,.T.);
#790=ORIENTED_EDGE('',*,*,#611,.T.);
#791=ORIENTED_EDGE('',*,*,#607,.F.);
#792=ORIENTED_EDGE('',*,*,#612,.T.);
#793=ORIENTED_EDGE('',*,*,#613,.T.);
#794=ORIENTED_EDGE('',*,*,#614,.T.);
#795=ORIENTED_EDGE('',*,*,#610,.F.);
#796=ORIENTED_EDGE('',*,*,#615,.T.);
#797=ORIENTED_EDGE('',*,*,#616,.T.);
#798=ORIENTED_EDGE('',*,*,#617,.T.);
#799=ORIENTED_EDGE('',*,*,#613,.F.);
#800=ORIENTED_EDGE('',*,*,#618,.T.);
#801=ORIENTED_EDGE('',*,*,#619,.T.);
#802=ORIENTED_EDGE('',*,*,#620,.T.);
#803=ORIENTED_EDGE('',*,*,#616,.F.);
#804=ORIENTED_EDGE('',*,*,#621,.T.);
#805=ORIENTED_EDGE('',*,*,#622,.T.);
#806=ORIENTED_EDGE('',*,*,#619,.F.);
#807=ORIENTED_EDGE('',*,*,#623,.T.);
#808=ORIENTED_EDGE('',*,*,#566,.F.);
#809=ORIENTED_EDGE('',*,*,#563,.T.);
#810=ORIENTED_EDGE('',*,*,#624,.T.);
#811=ORIENTED_EDGE('',*,*,#503,.T.);
#812=ORIENTED_EDGE('',*,*,#625,.T.);
#813=ORIENTED_EDGE('',*,*,#626,.T.);
#814=ORIENTED_EDGE('',*,*,#502,.T.);
#815=ORIENTED_EDGE('',*,*,#627,.T.);
#816=ORIENTED_EDGE('',*,*,#511,.F.);
#817=ORIENTED_EDGE('',*,*,#558,.F.);
#818=ORIENTED_EDGE('',*,*,#571,.F.);
#819=ORIENTED_EDGE('',*,*,#575,.F.);
#820=ORIENTED_EDGE('',*,*,#628,.F.);
#821=ORIENTED_EDGE('',*,*,#508,.F.);
#822=ORIENTED_EDGE('',*,*,#627,.F.);
#823=ORIENTED_EDGE('',*,*,#560,.F.);
#824=ORIENTED_EDGE('',*,*,#557,.F.);
#825=ORIENTED_EDGE('',*,*,#556,.F.);
#826=ORIENTED_EDGE('',*,*,#553,.F.);
#827=ORIENTED_EDGE('',*,*,#550,.F.);
#828=ORIENTED_EDGE('',*,*,#547,.F.);
#829=ORIENTED_EDGE('',*,*,#544,.F.);
#830=ORIENTED_EDGE('',*,*,#541,.F.);
#831=ORIENTED_EDGE('',*,*,#538,.F.);
#832=ORIENTED_EDGE('',*,*,#535,.F.);
#833=ORIENTED_EDGE('',*,*,#532,.F.);
#834=ORIENTED_EDGE('',*,*,#529,.F.);
#835=ORIENTED_EDGE('',*,*,#526,.F.);
#836=ORIENTED_EDGE('',*,*,#523,.F.);
#837=ORIENTED_EDGE('',*,*,#520,.F.);
#838=ORIENTED_EDGE('',*,*,#517,.F.);
#839=ORIENTED_EDGE('',*,*,#514,.F.);
#840=ORIENTED_EDGE('',*,*,#559,.F.);
#841=ORIENTED_EDGE('',*,*,#624,.F.);
#842=ORIENTED_EDGE('',*,*,#572,.F.);
#843=ORIENTED_EDGE('',*,*,#570,.F.);
#844=ORIENTED_EDGE('',*,*,#564,.F.);
#845=ORIENTED_EDGE('',*,*,#623,.F.);
#846=ORIENTED_EDGE('',*,*,#621,.F.);
#847=ORIENTED_EDGE('',*,*,#618,.F.);
#848=ORIENTED_EDGE('',*,*,#615,.F.);
#849=ORIENTED_EDGE('',*,*,#612,.F.);
#850=ORIENTED_EDGE('',*,*,#609,.F.);
#851=ORIENTED_EDGE('',*,*,#606,.F.);
#852=ORIENTED_EDGE('',*,*,#603,.F.);
#853=ORIENTED_EDGE('',*,*,#600,.F.);
#854=ORIENTED_EDGE('',*,*,#597,.F.);
#855=ORIENTED_EDGE('',*,*,#594,.F.);
#856=ORIENTED_EDGE('',*,*,#591,.F.);
#857=ORIENTED_EDGE('',*,*,#588,.F.);
#858=ORIENTED_EDGE('',*,*,#585,.F.);
#859=ORIENTED_EDGE('',*,*,#582,.F.);
#860=ORIENTED_EDGE('',*,*,#579,.F.);
#861=ORIENTED_EDGE('',*,*,#576,.F.);
#862=ORIENTED_EDGE('',*,*,#573,.F.);
#863=ORIENTED_EDGE('',*,*,#626,.F.);
#864=ORIENTED_EDGE('',*,*,#629,.F.);
#865=ORIENTED_EDGE('',*,*,#565,.F.);
#866=ORIENTED_EDGE('',*,*,#625,.F.);
#867=ORIENTED_EDGE('',*,*,#510,.F.);
#868=ORIENTED_EDGE('',*,*,#630,.F.);
#869=ORIENTED_EDGE('',*,*,#622,.F.);
#870=ORIENTED_EDGE('',*,*,#629,.T.);
#871=ORIENTED_EDGE('',*,*,#513,.F.);
#872=ORIENTED_EDGE('',*,*,#631,.T.);
#873=ORIENTED_EDGE('',*,*,#620,.F.);
#874=ORIENTED_EDGE('',*,*,#630,.T.);
#875=ORIENTED_EDGE('',*,*,#516,.F.);
#876=ORIENTED_EDGE('',*,*,#632,.T.);
#877=ORIENTED_EDGE('',*,*,#617,.F.);
#878=ORIENTED_EDGE('',*,*,#631,.F.);
#879=ORIENTED_EDGE('',*,*,#555,.F.);
#880=ORIENTED_EDGE('',*,*,#628,.T.);
#881=ORIENTED_EDGE('',*,*,#578,.F.);
#882=ORIENTED_EDGE('',*,*,#633,.T.);
#883=ORIENTED_EDGE('',*,*,#552,.F.);
#884=ORIENTED_EDGE('',*,*,#633,.F.);
#885=ORIENTED_EDGE('',*,*,#581,.F.);
#886=ORIENTED_EDGE('',*,*,#634,.T.);
#887=ORIENTED_EDGE('',*,*,#525,.F.);
#888=ORIENTED_EDGE('',*,*,#635,.T.);
#889=ORIENTED_EDGE('',*,*,#608,.F.);
#890=ORIENTED_EDGE('',*,*,#636,.T.);
#891=ORIENTED_EDGE('',*,*,#543,.F.);
#892=ORIENTED_EDGE('',*,*,#637,.T.);
#893=ORIENTED_EDGE('',*,*,#590,.F.);
#894=ORIENTED_EDGE('',*,*,#638,.T.);
#895=ORIENTED_EDGE('',*,*,#549,.F.);
#896=ORIENTED_EDGE('',*,*,#634,.F.);
#897=ORIENTED_EDGE('',*,*,#584,.F.);
#898=ORIENTED_EDGE('',*,*,#639,.T.);
#899=ORIENTED_EDGE('',*,*,#546,.F.);
#900=ORIENTED_EDGE('',*,*,#639,.F.);
#901=ORIENTED_EDGE('',*,*,#587,.F.);
#902=ORIENTED_EDGE('',*,*,#637,.F.);
#903=ORIENTED_EDGE('',*,*,#540,.F.);
#904=ORIENTED_EDGE('',*,*,#638,.F.);
#905=ORIENTED_EDGE('',*,*,#593,.F.);
#906=ORIENTED_EDGE('',*,*,#640,.F.);
#907=ORIENTED_EDGE('',*,*,#537,.F.);
#908=ORIENTED_EDGE('',*,*,#640,.T.);
#909=ORIENTED_EDGE('',*,*,#596,.F.);
#910=ORIENTED_EDGE('',*,*,#641,.T.);
#911=ORIENTED_EDGE('',*,*,#534,.F.);
#912=ORIENTED_EDGE('',*,*,#641,.F.);
#913=ORIENTED_EDGE('',*,*,#599,.F.);
#914=ORIENTED_EDGE('',*,*,#642,.T.);
#915=ORIENTED_EDGE('',*,*,#531,.F.);
#916=ORIENTED_EDGE('',*,*,#642,.F.);
#917=ORIENTED_EDGE('',*,*,#602,.F.);
#918=ORIENTED_EDGE('',*,*,#643,.T.);
#919=ORIENTED_EDGE('',*,*,#528,.F.);
#920=ORIENTED_EDGE('',*,*,#643,.F.);
#921=ORIENTED_EDGE('',*,*,#605,.F.);
#922=ORIENTED_EDGE('',*,*,#635,.F.);
#923=ORIENTED_EDGE('',*,*,#522,.F.);
#924=ORIENTED_EDGE('',*,*,#636,.F.);
#925=ORIENTED_EDGE('',*,*,#611,.F.);
#926=ORIENTED_EDGE('',*,*,#644,.F.);
#927=ORIENTED_EDGE('',*,*,#519,.F.);
#928=ORIENTED_EDGE('',*,*,#644,.T.);
#929=ORIENTED_EDGE('',*,*,#614,.F.);
#930=ORIENTED_EDGE('',*,*,#632,.F.);
#931=PLANE('',#1043);
#932=PLANE('',#1044);
#933=PLANE('',#1051);
#934=PLANE('',#1058);
#935=PLANE('',#1065);
#936=PLANE('',#1072);
#937=PLANE('',#1079);
#938=PLANE('',#1083);
#939=PLANE('',#1084);
#940=PLANE('',#1085);
#941=PLANE('',#1086);
#942=PLANE('',#1087);
#943=PLANE('',#1088);
#944=PLANE('',#1089);
#945=PLANE('',#1090);
#946=PLANE('',#1094);
#947=PLANE('',#1101);
#948=PLANE('',#1108);
#949=PLANE('',#1115);
#950=PLANE('',#1122);
#951=PLANE('',#1129);
#952=PLANE('',#1130);
#953=PLANE('',#1131);
#954=PLANE('',#1132);
#955=PLANE('',#1133);
#956=PLANE('',#1134);
#957=PLANE('',#1135);
#958=PLANE('',#1138);
#959=PLANE('',#1140);
#960=PLANE('',#1141);
#961=PLANE('',#1142);
#962=PLANE('',#1147);
#963=ADVANCED_FACE('',(#98),#931,.T.);
#964=ADVANCED_FACE('',(#99),#932,.T.);
#965=ADVANCED_FACE('',(#100),#76,.F.);
#966=ADVANCED_FACE('',(#101),#77,.T.);
#967=ADVANCED_FACE('',(#102),#933,.T.);
#968=ADVANCED_FACE('',(#103),#78,.T.);
#969=ADVANCED_FACE('',(#104),#79,.F.);
#970=ADVANCED_FACE('',(#105),#934,.T.);
#971=ADVANCED_FACE('',(#106),#80,.F.);
#972=ADVANCED_FACE('',(#107),#81,.T.);
#973=ADVANCED_FACE('',(#108),#935,.T.);
#974=ADVANCED_FACE('',(#109),#82,.T.);
#975=ADVANCED_FACE('',(#110),#83,.F.);
#976=ADVANCED_FACE('',(#111),#936,.T.);
#977=ADVANCED_FACE('',(#112),#84,.F.);
#978=ADVANCED_FACE('',(#113),#85,.T.);
#979=ADVANCED_FACE('',(#114),#937,.T.);
#980=ADVANCED_FACE('',(#115),#86,.T.);
#981=ADVANCED_FACE('',(#116),#938,.T.);
#982=ADVANCED_FACE('',(#117),#939,.T.);
#983=ADVANCED_FACE('',(#118),#940,.T.);
#984=ADVANCED_FACE('',(#119),#941,.T.);
#985=ADVANCED_FACE('',(#120),#942,.T.);
#986=ADVANCED_FACE('',(#121),#943,.T.);
#987=ADVANCED_FACE('',(#122),#944,.T.);
#988=ADVANCED_FACE('',(#123),#945,.T.);
#989=ADVANCED_FACE('',(#124),#87,.T.);
#990=ADVANCED_FACE('',(#125),#946,.T.);
#991=ADVANCED_FACE('',(#126),#88,.T.);
#992=ADVANCED_FACE('',(#127),#89,.F.);
#993=ADVANCED_FACE('',(#128),#947,.T.);
#994=ADVANCED_FACE('',(#129),#90,.F.);
#995=ADVANCED_FACE('',(#130),#91,.T.);
#996=ADVANCED_FACE('',(#131),#948,.T.);
#997=ADVANCED_FACE('',(#132),#92,.T.);
#998=ADVANCED_FACE('',(#133),#93,.F.);
#999=ADVANCED_FACE('',(#134),#949,.T.);
#1000=ADVANCED_FACE('',(#135),#94,.F.);
#1001=ADVANCED_FACE('',(#136),#95,.T.);
#1002=ADVANCED_FACE('',(#137),#950,.T.);
#1003=ADVANCED_FACE('',(#138),#96,.T.);
#1004=ADVANCED_FACE('',(#139),#97,.F.);
#1005=ADVANCED_FACE('',(#140),#951,.T.);
#1006=ADVANCED_FACE('',(#141),#952,.T.);
#1007=ADVANCED_FACE('',(#142),#953,.F.);
#1008=ADVANCED_FACE('',(#143),#954,.F.);
#1009=ADVANCED_FACE('',(#144),#955,.T.);
#1010=ADVANCED_FACE('',(#145),#956,.F.);
#1011=ADVANCED_FACE('',(#146),#957,.F.);
#1012=ADVANCED_FACE('',(#147),#19,.F.);
#1013=ADVANCED_FACE('',(#148),#20,.T.);
#1014=ADVANCED_FACE('',(#149),#958,.T.);
#1015=ADVANCED_FACE('',(#150),#21,.T.);
#1016=ADVANCED_FACE('',(#151),#959,.T.);
#1017=ADVANCED_FACE('',(#152),#960,.T.);
#1018=ADVANCED_FACE('',(#153),#961,.T.);
#1019=ADVANCED_FACE('',(#154),#22,.T.);
#1020=ADVANCED_FACE('',(#155),#23,.F.);
#1021=ADVANCED_FACE('',(#156),#24,.F.);
#1022=ADVANCED_FACE('',(#157),#25,.T.);
#1023=ADVANCED_FACE('',(#158),#962,.T.);
#1024=ADVANCED_FACE('',(#159),#26,.T.);
#1025=ADVANCED_FACE('',(#160),#27,.F.);
#1026=ADVANCED_FACE('',(#161),#28,.F.);
#1027=ADVANCED_FACE('',(#162),#29,.T.);
#1028=CLOSED_SHELL('',(#963,#964,#965,#966,#967,#968,#969,#970,#971,#972,
#973,#974,#975,#976,#977,#978,#979,#980,#981,#982,#983,#984,#985,#986,#987,
#988,#989,#990,#991,#992,#993,#994,#995,#996,#997,#998,#999,#1000,#1001,
#1002,#1003,#1004,#1005,#1006,#1007,#1008,#1009,#1010,#1011,#1012,#1013,
#1014,#1015,#1016,#1017,#1018,#1019,#1020,#1021,#1022,#1023,#1024,#1025,
#1026,#1027));
#1029=DERIVED_UNIT_ELEMENT(#1031,1.);
#1030=DERIVED_UNIT_ELEMENT(#1778,-3.);
#1031=(
MASS_UNIT()
NAMED_UNIT(*)
SI_UNIT(.KILO.,.GRAM.)
);
#1032=DERIVED_UNIT((#1029,#1030));
#1033=MEASURE_REPRESENTATION_ITEM('density measure',
POSITIVE_RATIO_MEASURE(1060.),#1032);
#1034=PROPERTY_DEFINITION_REPRESENTATION(#1039,#1036);
#1035=PROPERTY_DEFINITION_REPRESENTATION(#1040,#1037);
#1036=REPRESENTATION('material name',(#1038),#1775);
#1037=REPRESENTATION('density',(#1033),#1775);
#1038=DESCRIPTIVE_REPRESENTATION_ITEM('ABS Plastic','ABS Plastic');
#1039=PROPERTY_DEFINITION('material property','material name',#1790);
#1040=PROPERTY_DEFINITION('material property','density of part',#1790);
#1041=AXIS2_PLACEMENT_3D('',#1474,#1153,#1154);
#1042=AXIS2_PLACEMENT_3D('',#1475,#1155,#1156);
#1043=AXIS2_PLACEMENT_3D('',#1476,#1157,#1158);
#1044=AXIS2_PLACEMENT_3D('',#1483,#1162,#1163);
#1045=AXIS2_PLACEMENT_3D('',#1490,#1167,#1168);
#1046=AXIS2_PLACEMENT_3D('',#1493,#1169,#1170);
#1047=AXIS2_PLACEMENT_3D('',#1497,#1172,#1173);
#1048=AXIS2_PLACEMENT_3D('',#1502,#1174,#1175);
#1049=AXIS2_PLACEMENT_3D('',#1506,#1177,#1178);
#1050=AXIS2_PLACEMENT_3D('',#1507,#1179,#1180);
#1051=AXIS2_PLACEMENT_3D('',#1508,#1181,#1182);
#1052=AXIS2_PLACEMENT_3D('',#1514,#1186,#1187);
#1053=AXIS2_PLACEMENT_3D('',#1518,#1189,#1190);
#1054=AXIS2_PLACEMENT_3D('',#1519,#1191,#1192);
#1055=AXIS2_PLACEMENT_3D('',#1520,#1193,#1194);
#1056=AXIS2_PLACEMENT_3D('',#1524,#1196,#1197);
#1057=AXIS2_PLACEMENT_3D('',#1525,#1198,#1199);
#1058=AXIS2_PLACEMENT_3D('',#1526,#1200,#1201);
#1059=AXIS2_PLACEMENT_3D('',#1532,#1205,#1206);
#1060=AXIS2_PLACEMENT_3D('',#1536,#1208,#1209);
#1061=AXIS2_PLACEMENT_3D('',#1537,#1210,#1211);
#1062=AXIS2_PLACEMENT_3D('',#1538,#1212,#1213);
#1063=AXIS2_PLACEMENT_3D('',#1542,#1215,#1216);
#1064=AXIS2_PLACEMENT_3D('',#1543,#1217,#1218);
#1065=AXIS2_PLACEMENT_3D('',#1544,#1219,#1220);
#1066=AXIS2_PLACEMENT_3D('',#1550,#1224,#1225);
#1067=AXIS2_PLACEMENT_3D('',#1554,#1227,#1228);
#1068=AXIS2_PLACEMENT_3D('',#1555,#1229,#1230);
#1069=AXIS2_PLACEMENT_3D('',#1556,#1231,#1232);
#1070=AXIS2_PLACEMENT_3D('',#1560,#1234,#1235);
#1071=AXIS2_PLACEMENT_3D('',#1561,#1236,#1237);
#1072=AXIS2_PLACEMENT_3D('',#1562,#1238,#1239);
#1073=AXIS2_PLACEMENT_3D('',#1568,#1243,#1244);
#1074=AXIS2_PLACEMENT_3D('',#1572,#1246,#1247);
#1075=AXIS2_PLACEMENT_3D('',#1573,#1248,#1249);
#1076=AXIS2_PLACEMENT_3D('',#1574,#1250,#1251);
#1077=AXIS2_PLACEMENT_3D('',#1578,#1253,#1254);
#1078=AXIS2_PLACEMENT_3D('',#1579,#1255,#1256);
#1079=AXIS2_PLACEMENT_3D('',#1580,#1257,#1258);
#1080=AXIS2_PLACEMENT_3D('',#1586,#1262,#1263);
#1081=AXIS2_PLACEMENT_3D('',#1590,#1265,#1266);
#1082=AXIS2_PLACEMENT_3D('',#1591,#1267,#1268);
#1083=AXIS2_PLACEMENT_3D('',#1592,#1269,#1270);
#1084=AXIS2_PLACEMENT_3D('',#1595,#1273,#1274);
#1085=AXIS2_PLACEMENT_3D('',#1598,#1277,#1278);
#1086=AXIS2_PLACEMENT_3D('',#1605,#1282,#1283);
#1087=AXIS2_PLACEMENT_3D('',#1614,#1286,#1287);
#1088=AXIS2_PLACEMENT_3D('',#1621,#1291,#1292);
#1089=AXIS2_PLACEMENT_3D('',#1624,#1295,#1296);
#1090=AXIS2_PLACEMENT_3D('',#1627,#1299,#1300);
#1091=AXIS2_PLACEMENT_3D('',#1633,#1304,#1305);
#1092=AXIS2_PLACEMENT_3D('',#1637,#1307,#1308);
#1093=AXIS2_PLACEMENT_3D('',#1638,#1309,#1310);
#1094=AXIS2_PLACEMENT_3D('',#1639,#1311,#1312);
#1095=AXIS2_PLACEMENT_3D('',#1645,#1316,#1317);
#1096=AXIS2_PLACEMENT_3D('',#1649,#1319,#1320);
#1097=AXIS2_PLACEMENT_3D('',#1650,#1321,#1322);
#1098=AXIS2_PLACEMENT_3D('',#1651,#1323,#1324);
#1099=AXIS2_PLACEMENT_3D('',#1655,#1326,#1327);
#1100=AXIS2_PLACEMENT_3D('',#1656,#1328,#1329);
#1101=AXIS2_PLACEMENT_3D('',#1657,#1330,#1331);
#1102=AXIS2_PLACEMENT_3D('',#1663,#1335,#1336);
#1103=AXIS2_PLACEMENT_3D('',#1667,#1338,#1339);
#1104=AXIS2_PLACEMENT_3D('',#1668,#1340,#1341);
#1105=AXIS2_PLACEMENT_3D('',#1669,#1342,#1343);
#1106=AXIS2_PLACEMENT_3D('',#1673,#1345,#1346);
#1107=AXIS2_PLACEMENT_3D('',#1674,#1347,#1348);
#1108=AXIS2_PLACEMENT_3D('',#1675,#1349,#1350);
#1109=AXIS2_PLACEMENT_3D('',#1681,#1354,#1355);
#1110=AXIS2_PLACEMENT_3D('',#1685,#1357,#1358);
#1111=AXIS2_PLACEMENT_3D('',#1686,#1359,#1360);
#1112=AXIS2_PLACEMENT_3D('',#1687,#1361,#1362);
#1113=AXIS2_PLACEMENT_3D('',#1691,#1364,#1365);
#1114=AXIS2_PLACEMENT_3D('',#1692,#1366,#1367);
#1115=AXIS2_PLACEMENT_3D('',#1693,#1368,#1369);
#1116=AXIS2_PLACEMENT_3D('',#1699,#1373,#1374);
#1117=AXIS2_PLACEMENT_3D('',#1703,#1376,#1377);
#1118=AXIS2_PLACEMENT_3D('',#1704,#1378,#1379);
#1119=AXIS2_PLACEMENT_3D('',#1705,#1380,#1381);
#1120=AXIS2_PLACEMENT_3D('',#1709,#1383,#1384);
#1121=AXIS2_PLACEMENT_3D('',#1710,#1385,#1386);
#1122=AXIS2_PLACEMENT_3D('',#1711,#1387,#1388);
#1123=AXIS2_PLACEMENT_3D('',#1717,#1392,#1393);
#1124=AXIS2_PLACEMENT_3D('',#1721,#1395,#1396);
#1125=AXIS2_PLACEMENT_3D('',#1722,#1397,#1398);
#1126=AXIS2_PLACEMENT_3D('',#1723,#1399,#1400);
#1127=AXIS2_PLACEMENT_3D('',#1724,#1401,#1402);
#1128=AXIS2_PLACEMENT_3D('',#1725,#1403,#1404);
#1129=AXIS2_PLACEMENT_3D('',#1726,#1405,#1406);
#1130=AXIS2_PLACEMENT_3D('',#1729,#1409,#1410);
#1131=AXIS2_PLACEMENT_3D('',#1732,#1413,#1414);
#1132=AXIS2_PLACEMENT_3D('',#1734,#1416,#1417);
#1133=AXIS2_PLACEMENT_3D('',#1735,#1418,#1419);
#1134=AXIS2_PLACEMENT_3D('',#1736,#1420,#1421);
#1135=AXIS2_PLACEMENT_3D('',#1737,#1422,#1423);
#1136=AXIS2_PLACEMENT_3D('',#1739,#1425,#1426);
#1137=AXIS2_PLACEMENT_3D('',#1741,#1428,#1429);
#1138=AXIS2_PLACEMENT_3D('',#1743,#1431,#1432);
#1139=AXIS2_PLACEMENT_3D('',#1745,#1434,#1435);
#1140=AXIS2_PLACEMENT_3D('',#1747,#1437,#1438);
#1141=AXIS2_PLACEMENT_3D('',#1749,#1440,#1441);
#1142=AXIS2_PLACEMENT_3D('',#1752,#1444,#1445);
#1143=AXIS2_PLACEMENT_3D('',#1755,#1448,#1449);
#1144=AXIS2_PLACEMENT_3D('',#1757,#1451,#1452);
#1145=AXIS2_PLACEMENT_3D('',#1758,#1453,#1454);
#1146=AXIS2_PLACEMENT_3D('',#1760,#1456,#1457);
#1147=AXIS2_PLACEMENT_3D('',#1762,#1459,#1460);
#1148=AXIS2_PLACEMENT_3D('',#1764,#1462,#1463);
#1149=AXIS2_PLACEMENT_3D('',#1766,#1465,#1466);
#1150=AXIS2_PLACEMENT_3D('',#1767,#1467,#1468);
#1151=AXIS2_PLACEMENT_3D('',#1769,#1470,#1471);
#1152=AXIS2_PLACEMENT_3D('',#1770,#1472,#1473);
#1153=DIRECTION('axis',(0.,0.,1.));
#1154=DIRECTION('refdir',(1.,0.,0.));
#1155=DIRECTION('axis',(0.,0.,1.));
#1156=DIRECTION('refdir',(1.,0.,0.));
#1157=DIRECTION('center_axis',(-0.577350269189627,0.577350269189621,0.577350269189629));
#1158=DIRECTION('ref_axis',(0.707106781186549,0.,0.707106781186546));
#1159=DIRECTION('',(0.707106781186545,0.70710678118655,2.61682076447297E-15));
#1160=DIRECTION('',(-0.707106781186549,0.,-0.707106781186546));
#1161=DIRECTION('',(1.04672830578918E-14,-0.707106781186548,0.707106781186548));
#1162=DIRECTION('center_axis',(0.577350269189626,0.577350269189626,0.577350269189626));
#1163=DIRECTION('ref_axis',(0.707106781186548,0.,-0.707106781186548));
#1164=DIRECTION('',(-0.707106781186545,-5.23364152894593E-15,0.70710678118655));
#1165=DIRECTION('',(0.707106781186547,-0.707106781186547,0.));
#1166=DIRECTION('',(0.,0.707106781186548,-0.707106781186548));
#1167=DIRECTION('center_axis',(0.,1.,0.));
#1168=DIRECTION('ref_axis',(0.,0.,1.));
#1169=DIRECTION('center_axis',(0.,1.,0.));
#1170=DIRECTION('ref_axis',(0.,0.,1.));
#1171=DIRECTION('',(-0.702728368926306,-0.707106781186548,-0.0785674201318378));
#1172=DIRECTION('center_axis',(0.,-1.,0.));
#1173=DIRECTION('ref_axis',(0.,0.,1.));
#1174=DIRECTION('center_axis',(0.,-1.,0.));
#1175=DIRECTION('ref_axis',(0.,0.,-1.));
#1176=DIRECTION('',(0.,-0.707106781186549,-0.707106781186546));
#1177=DIRECTION('center_axis',(0.,1.,0.));
#1178=DIRECTION('ref_axis',(0.,0.,-1.));
#1179=DIRECTION('center_axis',(0.,-1.,0.));
#1180=DIRECTION('ref_axis',(0.,0.,-1.));
#1181=DIRECTION('center_axis',(0.,0.707106781186548,-0.707106781186548));
#1182=DIRECTION('ref_axis',(-1.,0.,0.));
#1183=DIRECTION('',(0.,-0.707106781186548,-0.707106781186548));
#1184=DIRECTION('',(-1.,0.,0.));
#1185=DIRECTION('',(1.,0.,0.));
#1186=DIRECTION('center_axis',(0.,-1.,0.));
#1187=DIRECTION('ref_axis',(1.,4.27008855625059E-16,0.));
#1188=DIRECTION('',(0.702728368926301,-0.707106781186553,-0.0785674201318372));
#1189=DIRECTION('center_axis',(0.,1.,0.));
#1190=DIRECTION('ref_axis',(1.,5.33761069531325E-16,0.));
#1191=DIRECTION('center_axis',(0.,-1.,0.));
#1192=DIRECTION('ref_axis',(1.,0.,0.));
#1193=DIRECTION('center_axis',(0.,1.,0.));
#1194=DIRECTION('ref_axis',(-1.,-2.0529271905051E-16,0.));
#1195=DIRECTION('',(0.,-0.707106781186553,-0.707106781186542));
#1196=DIRECTION('center_axis',(0.,-1.,0.));
#1197=DIRECTION('ref_axis',(-1.,-5.33761069531325E-16,0.));
#1198=DIRECTION('center_axis',(0.,1.,0.));
#1199=DIRECTION('ref_axis',(-1.,0.,0.));
#1200=DIRECTION('center_axis',(0.,0.707106781186549,-0.707106781186546));
#1201=DIRECTION('ref_axis',(-1.,0.,0.));
#1202=DIRECTION('',(0.,-0.707106781186546,-0.707106781186549));
#1203=DIRECTION('',(-1.,0.,0.));
#1204=DIRECTION('',(1.,0.,0.));
#1205=DIRECTION('center_axis',(0.,1.,0.));
#1206=DIRECTION('ref_axis',(0.,0.,1.));
#1207=DIRECTION('',(-0.702728368926306,-0.707106781186548,-0.0785674201318378));
#1208=DIRECTION('center_axis',(0.,-1.,0.));
#1209=DIRECTION('ref_axis',(0.,0.,1.));
#1210=DIRECTION('center_axis',(0.,1.,0.));
#1211=DIRECTION('ref_axis',(0.,0.,1.));
#1212=DIRECTION('center_axis',(0.,-1.,0.));
#1213=DIRECTION('ref_axis',(0.,0.,-1.));
#1214=DIRECTION('',(0.,-0.707106781186551,-0.707106781186544));
#1215=DIRECTION('center_axis',(0.,1.,0.));
#1216=DIRECTION('ref_axis',(0.,0.,-1.));
#1217=DIRECTION('center_axis',(0.,-1.,0.));
#1218=DIRECTION('ref_axis',(0.,0.,-1.));
#1219=DIRECTION('center_axis',(0.,0.707106781186548,-0.707106781186548));
#1220=DIRECTION('ref_axis',(-1.,0.,0.));
#1221=DIRECTION('',(0.,-0.707106781186546,-0.707106781186549));
#1222=DIRECTION('',(-1.,0.,0.));
#1223=DIRECTION('',(1.,0.,0.));
#1224=DIRECTION('center_axis',(0.,-1.,0.));
#1225=DIRECTION('ref_axis',(0.,0.,-1.));
#1226=DIRECTION('',(0.702728368926317,-0.707106781186538,-0.0785674201318366));
#1227=DIRECTION('center_axis',(0.,1.,0.));
#1228=DIRECTION('ref_axis',(0.,0.,-1.));
#1229=DIRECTION('center_axis',(0.,-1.,0.));
#1230=DIRECTION('ref_axis',(0.,0.,-1.));
#1231=DIRECTION('center_axis',(0.,1.,0.));
#1232=DIRECTION('ref_axis',(0.,0.,1.));
#1233=DIRECTION('',(0.,-0.707106781186548,-0.707106781186548));
#1234=DIRECTION('center_axis',(0.,-1.,0.));
#1235=DIRECTION('ref_axis',(0.,0.,1.));
#1236=DIRECTION('center_axis',(0.,1.,0.));
#1237=DIRECTION('ref_axis',(0.,0.,1.));
#1238=DIRECTION('center_axis',(0.,0.707106781186549,-0.707106781186546));
#1239=DIRECTION('ref_axis',(-1.,0.,0.));
#1240=DIRECTION('',(0.,-0.707106781186546,-0.707106781186549));
#1241=DIRECTION('',(-1.,0.,0.));
#1242=DIRECTION('',(1.,0.,0.));
#1243=DIRECTION('center_axis',(0.,1.,0.));
#1244=DIRECTION('ref_axis',(0.,0.,1.));
#1245=DIRECTION('',(-0.702728368926301,-0.707106781186553,-0.0785674201318384));
#1246=DIRECTION('center_axis',(0.,-1.,0.));
#1247=DIRECTION('ref_axis',(0.,0.,1.));
#1248=DIRECTION('center_axis',(0.,1.,0.));
#1249=DIRECTION('ref_axis',(0.,0.,1.));
#1250=DIRECTION('center_axis',(0.,-1.,0.));
#1251=DIRECTION('ref_axis',(0.,0.,-1.));
#1252=DIRECTION('',(0.,-0.707106781186551,-0.707106781186544));
#1253=DIRECTION('center_axis',(0.,1.,0.));
#1254=DIRECTION('ref_axis',(0.,0.,-1.));
#1255=DIRECTION('center_axis',(0.,-1.,0.));
#1256=DIRECTION('ref_axis',(0.,0.,-1.));
#1257=DIRECTION('center_axis',(0.,0.707106781186548,-0.707106781186548));
#1258=DIRECTION('ref_axis',(-1.,0.,0.));
#1259=DIRECTION('',(0.,-0.707106781186546,-0.707106781186549));
#1260=DIRECTION('',(-1.,0.,0.));
#1261=DIRECTION('',(1.,0.,0.));
#1262=DIRECTION('center_axis',(0.,-1.,0.));
#1263=DIRECTION('ref_axis',(0.,0.,-1.));
#1264=DIRECTION('',(0.707106781186545,-0.70710678118655,0.));
#1265=DIRECTION('center_axis',(0.,1.,0.));
#1266=DIRECTION('ref_axis',(0.,0.,-1.));
#1267=DIRECTION('center_axis',(0.,-1.,0.));
#1268=DIRECTION('ref_axis',(0.,0.,-1.));
#1269=DIRECTION('center_axis',(0.707106781186548,0.707106781186548,0.));
#1270=DIRECTION('ref_axis',(0.,0.,-1.));
#1271=DIRECTION('',(0.,0.,1.));
#1272=DIRECTION('',(0.,0.,-1.));
#1273=DIRECTION('center_axis',(0.,0.707106781186548,0.707106781186548));
#1274=DIRECTION('ref_axis',(1.,0.,0.));
#1275=DIRECTION('',(1.,0.,0.));
#1276=DIRECTION('',(-1.,0.,0.));
#1277=DIRECTION('center_axis',(-0.577350269189628,-0.577350269189619,0.57735026918963));
#1278=DIRECTION('ref_axis',(0.707106781186549,0.,0.707106781186546));
#1279=DIRECTION('',(-0.707106781186545,0.70710678118655,-5.23364152894593E-15));
#1280=DIRECTION('',(-1.04672830578918E-14,-0.707106781186549,-0.707106781186546));
#1281=DIRECTION('',(0.707106781186549,0.,0.707106781186546));
#1282=DIRECTION('center_axis',(-0.70710678118655,-0.707106781186545,0.));
#1283=DIRECTION('ref_axis',(0.,0.,1.));
#1284=DIRECTION('',(0.,0.,1.));
#1285=DIRECTION('',(0.,0.,-1.));
#1286=DIRECTION('center_axis',(0.577350269189632,-0.577350269189622,0.577350269189624));
#1287=DIRECTION('ref_axis',(0.707106781186542,0.,-0.707106781186553));
#1288=DIRECTION('',(-0.707106781186542,-0.707106781186553,2.61682076447296E-15));
#1289=DIRECTION('',(0.707106781186545,5.23364152894593E-15,-0.70710678118655));
#1290=DIRECTION('',(0.,0.707106781186549,0.707106781186546));
#1291=DIRECTION('center_axis',(0.70710678118655,0.,0.707106781186545));
#1292=DIRECTION('ref_axis',(0.707106781186545,0.,-0.70710678118655));
#1293=DIRECTION('',(0.,-1.,0.));
#1294=DIRECTION('',(0.,1.,0.));
#1295=DIRECTION('center_axis',(0.,-0.707106781186546,0.707106781186549));
#1296=DIRECTION('ref_axis',(1.,0.,0.));
#1297=DIRECTION('',(-1.,0.,0.));
#1298=DIRECTION('',(1.,0.,0.));
#1299=DIRECTION('center_axis',(0.707106781186553,-0.707106781186542,0.));
#1300=DIRECTION('ref_axis',(0.,0.,-1.));
#1301=DIRECTION('',(0.707106781186542,0.707106781186553,0.));
#1302=DIRECTION('',(0.,0.,1.));
#1303=DIRECTION('',(0.,0.,-1.));
#1304=DIRECTION('center_axis',(0.,1.,0.));
#1305=DIRECTION('ref_axis',(0.,0.,-1.));
#1306=DIRECTION('',(0.,0.70710678118655,-0.707106781186545));
#1307=DIRECTION('center_axis',(0.,-1.,0.));
#1308=DIRECTION('ref_axis',(0.,0.,-1.));
#1309=DIRECTION('center_axis',(0.,1.,0.));
#1310=DIRECTION('ref_axis',(0.,0.,-1.));
#1311=DIRECTION('center_axis',(0.,-0.707106781186548,-0.707106781186548));
#1312=DIRECTION('ref_axis',(-1.,0.,0.));
#1313=DIRECTION('',(0.,0.707106781186548,-0.707106781186548));
#1314=DIRECTION('',(1.,0.,0.));
#1315=DIRECTION('',(-1.,0.,0.));
#1316=DIRECTION('center_axis',(0.,1.,0.));
#1317=DIRECTION('ref_axis',(0.,0.,-1.));
#1318=DIRECTION('',(-0.702728368926306,0.707106781186548,-0.0785674201318378));
#1319=DIRECTION('center_axis',(0.,-1.,0.));
#1320=DIRECTION('ref_axis',(0.,0.,-1.));
#1321=DIRECTION('center_axis',(0.,1.,0.));
#1322=DIRECTION('ref_axis',(0.,0.,-1.));
#1323=DIRECTION('center_axis',(0.,-1.,0.));
#1324=DIRECTION('ref_axis',(0.,0.,1.));
#1325=DIRECTION('',(0.,0.707106781186548,-0.707106781186548));
#1326=DIRECTION('center_axis',(0.,1.,0.));
#1327=DIRECTION('ref_axis',(0.,0.,1.));
#1328=DIRECTION('center_axis',(0.,-1.,0.));
#1329=DIRECTION('ref_axis',(0.,0.,1.));
#1330=DIRECTION('center_axis',(0.,-0.707106781186549,-0.707106781186546));
#1331=DIRECTION('ref_axis',(-1.,0.,0.));
#1332=DIRECTION('',(0.,0.707106781186546,-0.707106781186549));
#1333=DIRECTION('',(1.,0.,0.));
#1334=DIRECTION('',(-1.,0.,0.));
#1335=DIRECTION('center_axis',(0.,-1.,0.));
#1336=DIRECTION('ref_axis',(0.,0.,1.));
#1337=DIRECTION('',(0.702728368926306,0.707106781186548,-0.0785674201318378));
#1338=DIRECTION('center_axis',(0.,1.,0.));
#1339=DIRECTION('ref_axis',(0.,0.,1.));
#1340=DIRECTION('center_axis',(0.,-1.,0.));
#1341=DIRECTION('ref_axis',(0.,0.,1.));
#1342=DIRECTION('center_axis',(0.,1.,0.));
#1343=DIRECTION('ref_axis',(0.,0.,-1.));
#1344=DIRECTION('',(0.,0.707106781186549,-0.707106781186546));
#1345=DIRECTION('center_axis',(0.,-1.,0.));
#1346=DIRECTION('ref_axis',(0.,0.,-1.));
#1347=DIRECTION('center_axis',(0.,1.,0.));
#1348=DIRECTION('ref_axis',(0.,0.,-1.));
#1349=DIRECTION('center_axis',(0.,-0.707106781186548,-0.707106781186548));
#1350=DIRECTION('ref_axis',(-1.,0.,0.));
#1351=DIRECTION('',(0.,0.707106781186548,-0.707106781186548));
#1352=DIRECTION('',(1.,0.,0.));
#1353=DIRECTION('',(-1.,0.,0.));
#1354=DIRECTION('center_axis',(0.,1.,0.));
#1355=DIRECTION('ref_axis',(0.,0.,-1.));
#1356=DIRECTION('',(-0.702728368926312,0.707106781186543,-0.0785674201318372));
#1357=DIRECTION('center_axis',(0.,-1.,0.));
#1358=DIRECTION('ref_axis',(0.,0.,-1.));
#1359=DIRECTION('center_axis',(0.,1.,0.));
#1360=DIRECTION('ref_axis',(0.,0.,-1.));
#1361=DIRECTION('center_axis',(0.,-1.,0.));
#1362=DIRECTION('ref_axis',(0.,0.,1.));
#1363=DIRECTION('',(0.,0.707106781186548,-0.707106781186548));
#1364=DIRECTION('center_axis',(0.,1.,0.));
#1365=DIRECTION('ref_axis',(0.,0.,1.));
#1366=DIRECTION('center_axis',(0.,-1.,0.));
#1367=DIRECTION('ref_axis',(0.,0.,1.));
#1368=DIRECTION('center_axis',(0.,-0.707106781186549,-0.707106781186546));
#1369=DIRECTION('ref_axis',(-1.,0.,0.));
#1370=DIRECTION('',(0.,0.707106781186546,-0.707106781186549));
#1371=DIRECTION('',(1.,0.,0.));
#1372=DIRECTION('',(-1.,0.,0.));
#1373=DIRECTION('center_axis',(0.,-1.,0.));
#1374=DIRECTION('ref_axis',(-1.,-2.0529271905051E-16,0.));
#1375=DIRECTION('',(0.702728368926296,0.707106781186558,-0.0785674201318378));
#1376=DIRECTION('center_axis',(0.,1.,0.));
#1377=DIRECTION('ref_axis',(-1.,-5.33761069531325E-16,0.));
#1378=DIRECTION('center_axis',(0.,-1.,0.));
#1379=DIRECTION('ref_axis',(-1.,0.,0.));
#1380=DIRECTION('center_axis',(0.,1.,0.));
#1381=DIRECTION('ref_axis',(1.,4.27008855625061E-16,0.));
#1382=DIRECTION('',(-1.04672830578918E-14,0.707106781186554,-0.707106781186541));
#1383=DIRECTION('center_axis',(0.,-1.,0.));
#1384=DIRECTION('ref_axis',(1.,5.33761069531325E-16,0.));
#1385=DIRECTION('center_axis',(0.,1.,0.));
#1386=DIRECTION('ref_axis',(1.,0.,0.));
#1387=DIRECTION('center_axis',(0.,-0.707106781186548,-0.707106781186548));
#1388=DIRECTION('ref_axis',(-1.,0.,0.));
#1389=DIRECTION('',(0.,0.707106781186545,-0.70710678118655));
#1390=DIRECTION('',(1.,0.,0.));
#1391=DIRECTION('',(-1.,0.,0.));
#1392=DIRECTION('center_axis',(0.,1.,0.));
#1393=DIRECTION('ref_axis',(0.,0.,-1.));
#1394=DIRECTION('',(-0.702728368926306,0.707106781186548,-0.0785674201318378));
#1395=DIRECTION('center_axis',(0.,-1.,0.));
#1396=DIRECTION('ref_axis',(0.,0.,-1.));
#1397=DIRECTION('center_axis',(0.,1.,0.));
#1398=DIRECTION('ref_axis',(0.,0.,-1.));
#1399=DIRECTION('center_axis',(0.,-1.,0.));
#1400=DIRECTION('ref_axis',(0.,0.,1.));
#1401=DIRECTION('center_axis',(0.,1.,0.));
#1402=DIRECTION('ref_axis',(0.,0.,1.));
#1403=DIRECTION('center_axis',(0.,-1.,0.));
#1404=DIRECTION('ref_axis',(0.,0.,1.));
#1405=DIRECTION('center_axis',(-0.707106781186546,0.,0.707106781186549));
#1406=DIRECTION('ref_axis',(0.707106781186549,0.,0.707106781186546));
#1407=DIRECTION('',(0.,1.,0.));
#1408=DIRECTION('',(0.,-1.,0.));
#1409=DIRECTION('center_axis',(-0.70710678118655,0.707106781186545,0.));
#1410=DIRECTION('ref_axis',(0.,0.,1.));
#1411=DIRECTION('',(0.,0.,1.));
#1412=DIRECTION('',(0.,0.,-1.));
#1413=DIRECTION('center_axis',(-1.,0.,0.));
#1414=DIRECTION('ref_axis',(0.,0.,1.));
#1415=DIRECTION('',(0.,-1.,0.));
#1416=DIRECTION('center_axis',(0.,-1.,0.));
#1417=DIRECTION('ref_axis',(-1.,0.,0.));
#1418=DIRECTION('center_axis',(0.,0.,1.));
#1419=DIRECTION('ref_axis',(1.,0.,0.));
#1420=DIRECTION('center_axis',(0.,1.,0.));
#1421=DIRECTION('ref_axis',(1.,0.,0.));
#1422=DIRECTION('center_axis',(1.,0.,0.));
#1423=DIRECTION('ref_axis',(0.,0.,1.));
#1424=DIRECTION('',(0.,1.,0.));
#1425=DIRECTION('center_axis',(0.,-1.,0.));
#1426=DIRECTION('ref_axis',(0.,0.,-1.));
#1427=DIRECTION('',(0.,1.,0.));
#1428=DIRECTION('center_axis',(0.,-1.,0.));
#1429=DIRECTION('ref_axis',(0.,0.,-1.));
#1430=DIRECTION('',(0.,-1.,0.));
#1431=DIRECTION('center_axis',(0.,0.,-1.));
#1432=DIRECTION('ref_axis',(-1.,0.,0.));
#1433=DIRECTION('',(0.,-1.,0.));
#1434=DIRECTION('center_axis',(0.,1.,0.));
#1435=DIRECTION('ref_axis',(0.,0.,1.));
#1436=DIRECTION('',(0.,1.,0.));
#1437=DIRECTION('center_axis',(0.,0.,-1.));
#1438=DIRECTION('ref_axis',(-1.,0.,0.));
#1439=DIRECTION('',(0.,1.,0.));
#1440=DIRECTION('center_axis',(0.,0.,-1.));
#1441=DIRECTION('ref_axis',(-1.,0.,0.));
#1442=DIRECTION('',(0.,-1.,0.));
#1443=DIRECTION('',(-5.33761069531325E-16,1.,0.));
#1444=DIRECTION('center_axis',(0.,0.,-1.));
#1445=DIRECTION('ref_axis',(-1.,0.,0.));
#1446=DIRECTION('',(0.,-1.,0.));
#1447=DIRECTION('',(0.,1.,0.));
#1448=DIRECTION('center_axis',(0.,-1.,0.));
#1449=DIRECTION('ref_axis',(0.,0.,-1.));
#1450=DIRECTION('',(0.,1.,0.));
#1451=DIRECTION('center_axis',(0.,-1.,0.));
#1452=DIRECTION('ref_axis',(0.,0.,-1.));
#1453=DIRECTION('center_axis',(0.,1.,0.));
#1454=DIRECTION('ref_axis',(0.,0.,1.));
#1455=DIRECTION('',(0.,-1.,0.));
#1456=DIRECTION('center_axis',(0.,1.,0.));
#1457=DIRECTION('ref_axis',(0.,0.,1.));
#1458=DIRECTION('',(0.,1.,0.));
#1459=DIRECTION('center_axis',(0.,0.,-1.));
#1460=DIRECTION('ref_axis',(-1.,0.,0.));
#1461=DIRECTION('',(0.,1.,0.));
#1462=DIRECTION('center_axis',(0.,-1.,0.));
#1463=DIRECTION('ref_axis',(0.,0.,-1.));
#1464=DIRECTION('',(0.,1.,0.));
#1465=DIRECTION('center_axis',(0.,-1.,0.));
#1466=DIRECTION('ref_axis',(0.,0.,-1.));
#1467=DIRECTION('center_axis',(-5.33761069531325E-16,1.,0.));
#1468=DIRECTION('ref_axis',(-1.,-5.33761069531325E-16,0.));
#1469=DIRECTION('',(5.33761069531325E-16,-1.,0.));
#1470=DIRECTION('center_axis',(-5.33761069531325E-16,1.,0.));
#1471=DIRECTION('ref_axis',(-1.,-5.33761069531325E-16,0.));
#1472=DIRECTION('',(0.,0.,1.));
#1473=DIRECTION('',(1.,0.,0.));
#1474=CARTESIAN_POINT('',(0.,0.,0.));
#1475=CARTESIAN_POINT('',(0.,0.,0.));
#1476=CARTESIAN_POINT('Origin',(33.6,-10.8,9.05));
#1477=CARTESIAN_POINT('',(33.3,-10.8,8.75));
#1478=CARTESIAN_POINT('',(33.6,-10.5,8.75));
#1479=CARTESIAN_POINT('',(33.3,-10.8,8.75));
#1480=CARTESIAN_POINT('',(33.6,-10.8,9.05));
#1481=CARTESIAN_POINT('',(33.6,-10.8,9.05));
#1482=CARTESIAN_POINT('',(33.6,-10.5,8.75));
#1483=CARTESIAN_POINT('Origin',(38.,-10.5,8.75));
#1484=CARTESIAN_POINT('',(38.3,-10.8,8.75));
#1485=CARTESIAN_POINT('',(38.,-10.8,9.05));
#1486=CARTESIAN_POINT('',(38.3,-10.8,8.75));
#1487=CARTESIAN_POINT('',(38.,-10.5,8.75));
#1488=CARTESIAN_POINT('',(38.,-10.5,8.75));
#1489=CARTESIAN_POINT('',(38.,-10.8,9.05));
#1490=CARTESIAN_POINT('Origin',(32.8055728090001,-10.65,7.85));
#1491=CARTESIAN_POINT('',(33.6,-10.5,7.94426260234033));
#1492=CARTESIAN_POINT('',(33.600619201,-10.5,7.93888888888889));
#1493=CARTESIAN_POINT('Origin',(32.8055728090001,-10.5,7.85));
#1494=CARTESIAN_POINT('',(33.302476804,-10.8,7.90555555555556));
#1495=CARTESIAN_POINT('',(33.600619201,-10.5,7.93888888888889));
#1496=CARTESIAN_POINT('',(33.3,-10.8,7.92444294996788));
#1497=CARTESIAN_POINT('Origin',(32.8055728090001,-10.8,7.85));
#1498=CARTESIAN_POINT('Ctrl Pts',(33.3,-10.8,7.9244429499679));
#1499=CARTESIAN_POINT('Ctrl Pts',(33.3982859273348,-10.7017140726652,7.93180064738141));
#1500=CARTESIAN_POINT('Ctrl Pts',(33.5017756992882,-10.5982243007118,7.93845557756654));
#1501=CARTESIAN_POINT('Ctrl Pts',(33.6,-10.5,7.94426260234034));
#1502=CARTESIAN_POINT('Origin',(33.7,-10.65,7.95));
#1503=CARTESIAN_POINT('',(33.7,-10.5,7.85));
#1504=CARTESIAN_POINT('',(33.7,-10.8,7.55));
#1505=CARTESIAN_POINT('',(33.7,-10.5,7.85));
#1506=CARTESIAN_POINT('Origin',(33.7,-10.8,7.95));
#1507=CARTESIAN_POINT('Origin',(33.7,-10.5,7.95));
#1508=CARTESIAN_POINT('Origin',(49.17625,-10.65,7.7));
#1509=CARTESIAN_POINT('',(33.9,-10.5,7.85));
#1510=CARTESIAN_POINT('',(33.9,-10.8,7.55));
#1511=CARTESIAN_POINT('',(33.9,-10.5,7.85));
#1512=CARTESIAN_POINT('',(49.17625,-10.8,7.55));
#1513=CARTESIAN_POINT('',(49.17625,-10.5,7.85));
#1514=CARTESIAN_POINT('Origin',(33.9,-10.65,7.95));
#1515=CARTESIAN_POINT('',(33.999380799,-10.5,7.93888888888889));
#1516=CARTESIAN_POINT('',(34.297523196,-10.8,7.90555555555556));
#1517=CARTESIAN_POINT('',(33.999380799,-10.5,7.93888888888889));
#1518=CARTESIAN_POINT('Origin',(33.9,-10.8,7.95));
#1519=CARTESIAN_POINT('Origin',(33.9,-10.5,7.95));
#1520=CARTESIAN_POINT('Origin',(34.7944271909999,-10.65,7.85));
#1521=CARTESIAN_POINT('',(34.7944271909999,-10.5,8.65));
#1522=CARTESIAN_POINT('',(34.7944271909999,-10.8,8.35));
#1523=CARTESIAN_POINT('',(34.7944271909999,-10.5,8.65));
#1524=CARTESIAN_POINT('Origin',(34.7944271909999,-10.8,7.85));
#1525=CARTESIAN_POINT('Origin',(34.7944271909999,-10.5,7.85));
#1526=CARTESIAN_POINT('Origin',(49.17625,-10.65,8.5));
#1527=CARTESIAN_POINT('',(34.8055728090001,-10.5,8.65));
#1528=CARTESIAN_POINT('',(34.8055728090001,-10.8,8.35));
#1529=CARTESIAN_POINT('',(34.8055728090001,-10.5,8.65));
#1530=CARTESIAN_POINT('',(49.17625,-10.8,8.35));
#1531=CARTESIAN_POINT('',(49.17625,-10.5,8.65));
#1532=CARTESIAN_POINT('Origin',(34.8055728090001,-10.65,7.85));
#1533=CARTESIAN_POINT('',(35.600619201,-10.5,7.93888888888889));
#1534=CARTESIAN_POINT('',(35.302476804,-10.8,7.90555555555556));
#1535=CARTESIAN_POINT('',(35.600619201,-10.5,7.93888888888889));
#1536=CARTESIAN_POINT('Origin',(34.8055728090001,-10.8,7.85));
#1537=CARTESIAN_POINT('Origin',(34.8055728090001,-10.5,7.85));
#1538=CARTESIAN_POINT('Origin',(35.7,-10.65,7.95));
#1539=CARTESIAN_POINT('',(35.7,-10.5,7.85));
#1540=CARTESIAN_POINT('',(35.7,-10.8,7.55));
#1541=CARTESIAN_POINT('',(35.7,-10.5,7.85));
#1542=CARTESIAN_POINT('Origin',(35.7,-10.8,7.95));
#1543=CARTESIAN_POINT('Origin',(35.7,-10.5,7.95));
#1544=CARTESIAN_POINT('Origin',(49.17625,-10.65,7.7));
#1545=CARTESIAN_POINT('',(35.9,-10.5,7.85));
#1546=CARTESIAN_POINT('',(35.9,-10.8,7.55));
#1547=CARTESIAN_POINT('',(35.9,-10.5,7.85));
#1548=CARTESIAN_POINT('',(49.17625,-10.8,7.55));
#1549=CARTESIAN_POINT('',(49.17625,-10.5,7.85));
#1550=CARTESIAN_POINT('Origin',(35.9,-10.65,7.95));
#1551=CARTESIAN_POINT('',(35.999380799,-10.5,7.93888888888889));
#1552=CARTESIAN_POINT('',(36.297523196,-10.8,7.90555555555556));
#1553=CARTESIAN_POINT('',(35.999380799,-10.5,7.93888888888889));
#1554=CARTESIAN_POINT('Origin',(35.9,-10.8,7.95));
#1555=CARTESIAN_POINT('Origin',(35.9,-10.5,7.95));
#1556=CARTESIAN_POINT('Origin',(36.7944271909999,-10.65,7.85));
#1557=CARTESIAN_POINT('',(36.7944271909999,-10.5,8.65));
#1558=CARTESIAN_POINT('',(36.7944271909999,-10.8,8.35));
#1559=CARTESIAN_POINT('',(36.7944271909999,-10.5,8.65));
#1560=CARTESIAN_POINT('Origin',(36.7944271909999,-10.8,7.85));
#1561=CARTESIAN_POINT('Origin',(36.7944271909999,-10.5,7.85));
#1562=CARTESIAN_POINT('Origin',(49.17625,-10.65,8.5));
#1563=CARTESIAN_POINT('',(36.8055728090001,-10.5,8.65));
#1564=CARTESIAN_POINT('',(36.8055728090001,-10.8,8.35));
#1565=CARTESIAN_POINT('',(36.8055728090001,-10.5,8.65));
#1566=CARTESIAN_POINT('',(49.17625,-10.8,8.35));
#1567=CARTESIAN_POINT('',(49.17625,-10.5,8.65));
#1568=CARTESIAN_POINT('Origin',(36.8055728090001,-10.65,7.85));
#1569=CARTESIAN_POINT('',(37.600619201,-10.5,7.93888888888889));
#1570=CARTESIAN_POINT('',(37.302476804,-10.8,7.90555555555556));
#1571=CARTESIAN_POINT('',(37.600619201,-10.5,7.93888888888889));
#1572=CARTESIAN_POINT('Origin',(36.8055728090001,-10.8,7.85));
#1573=CARTESIAN_POINT('Origin',(36.8055728090001,-10.5,7.85));
#1574=CARTESIAN_POINT('Origin',(37.7,-10.65,7.95));
#1575=CARTESIAN_POINT('',(37.7,-10.5,7.85));
#1576=CARTESIAN_POINT('',(37.7,-10.8,7.55));
#1577=CARTESIAN_POINT('',(37.7,-10.5,7.85));
#1578=CARTESIAN_POINT('Origin',(37.7,-10.8,7.95));
#1579=CARTESIAN_POINT('Origin',(37.7,-10.5,7.95));
#1580=CARTESIAN_POINT('Origin',(49.17625,-10.65,7.7));
#1581=CARTESIAN_POINT('',(37.9,-10.5,7.85));
#1582=CARTESIAN_POINT('',(37.9,-10.8,7.55));
#1583=CARTESIAN_POINT('',(37.9,-10.5,7.85));
#1584=CARTESIAN_POINT('',(49.17625,-10.8,7.55));
#1585=CARTESIAN_POINT('',(49.17625,-10.5,7.85));
#1586=CARTESIAN_POINT('Origin',(37.9,-10.65,7.95));
#1587=CARTESIAN_POINT('',(38.,-10.5,7.95));
#1588=CARTESIAN_POINT('',(38.3,-10.8,7.95));
#1589=CARTESIAN_POINT('',(38.,-10.5,7.95));
#1590=CARTESIAN_POINT('Origin',(37.9,-10.8,7.95));
#1591=CARTESIAN_POINT('Origin',(37.9,-10.5,7.95));
#1592=CARTESIAN_POINT('Origin',(38.15,-10.65,18.5794552658191));
#1593=CARTESIAN_POINT('',(38.,-10.5,18.5794552658191));
#1594=CARTESIAN_POINT('',(38.3,-10.8,18.5794552658191));
#1595=CARTESIAN_POINT('Origin',(49.17625,-10.65,8.9));
#1596=CARTESIAN_POINT('',(49.17625,-10.8,9.05));
#1597=CARTESIAN_POINT('',(49.17625,-10.5,8.75));
#1598=CARTESIAN_POINT('Origin',(33.6,-16.45,9.05));
#1599=CARTESIAN_POINT('',(33.6,-16.75,8.75));
#1600=CARTESIAN_POINT('',(33.3,-16.45,8.75));
#1601=CARTESIAN_POINT('',(33.6,-16.75,8.75));
#1602=CARTESIAN_POINT('',(33.6,-16.45,9.05));
#1603=CARTESIAN_POINT('',(33.6,-16.45,9.05));
#1604=CARTESIAN_POINT('',(33.3,-16.45,8.75));
#1605=CARTESIAN_POINT('Origin',(33.45,-16.6,11.4622214749839));
#1606=CARTESIAN_POINT('',(33.6,-16.75,7.94426260234033));
#1607=CARTESIAN_POINT('',(33.6,-16.75,11.4622214749839));
#1608=CARTESIAN_POINT('',(33.3,-16.45,7.92444294996788));
#1609=CARTESIAN_POINT('',(33.3,-16.45,11.4622214749839));
#1610=CARTESIAN_POINT('Ctrl Pts',(33.3,-16.45,7.92444294996789));
#1611=CARTESIAN_POINT('Ctrl Pts',(33.398285927335,-16.548285927335,7.93180064738141));
#1612=CARTESIAN_POINT('Ctrl Pts',(33.5017756992888,-16.6517756992888,7.93845557756656));
#1613=CARTESIAN_POINT('Ctrl Pts',(33.6,-16.75,7.94426260234033));
#1614=CARTESIAN_POINT('Origin',(38.,-16.45,9.05));
#1615=CARTESIAN_POINT('',(38.3,-16.45,8.75));
#1616=CARTESIAN_POINT('',(38.,-16.75,8.75));
#1617=CARTESIAN_POINT('',(38.3,-16.45,8.75));
#1618=CARTESIAN_POINT('',(38.,-16.45,9.05));
#1619=CARTESIAN_POINT('',(38.,-16.45,9.05));
#1620=CARTESIAN_POINT('',(38.,-16.75,8.75));
#1621=CARTESIAN_POINT('Origin',(38.15,-4.875,8.9));
#1622=CARTESIAN_POINT('',(38.,-4.875,9.05));
#1623=CARTESIAN_POINT('',(38.3,-4.875,8.75));
#1624=CARTESIAN_POINT('Origin',(45.67625,-16.6,8.9));
#1625=CARTESIAN_POINT('',(45.67625,-16.45,9.05));
#1626=CARTESIAN_POINT('',(45.67625,-16.75,8.75));
#1627=CARTESIAN_POINT('Origin',(38.15,-16.6,18.5794552658191));
#1628=CARTESIAN_POINT('',(38.,-16.75,7.95));
#1629=CARTESIAN_POINT('',(38.3,-16.45,7.95));
#1630=CARTESIAN_POINT('',(38.,-16.75,7.95));
#1631=CARTESIAN_POINT('',(38.3,-16.45,18.5794552658191));
#1632=CARTESIAN_POINT('',(38.,-16.75,18.5794552658191));
#1633=CARTESIAN_POINT('Origin',(37.9,-16.6,7.95));
#1634=CARTESIAN_POINT('',(37.9,-16.75,7.85));
#1635=CARTESIAN_POINT('',(37.9,-16.45,7.55));
#1636=CARTESIAN_POINT('',(37.9,-16.75,7.85));
#1637=CARTESIAN_POINT('Origin',(37.9,-16.45,7.95));
#1638=CARTESIAN_POINT('Origin',(37.9,-16.75,7.95));
#1639=CARTESIAN_POINT('Origin',(45.67625,-16.6,7.7));
#1640=CARTESIAN_POINT('',(37.7,-16.75,7.85));
#1641=CARTESIAN_POINT('',(37.7,-16.45,7.55));
#1642=CARTESIAN_POINT('',(37.7,-16.75,7.85));
#1643=CARTESIAN_POINT('',(45.67625,-16.45,7.55));
#1644=CARTESIAN_POINT('',(45.67625,-16.75,7.85));
#1645=CARTESIAN_POINT('Origin',(37.7,-16.6,7.95));
#1646=CARTESIAN_POINT('',(37.600619201,-16.75,7.93888888888889));
#1647=CARTESIAN_POINT('',(37.302476804,-16.45,7.90555555555556));
#1648=CARTESIAN_POINT('',(37.600619201,-16.75,7.93888888888889));
#1649=CARTESIAN_POINT('Origin',(37.7,-16.45,7.95));
#1650=CARTESIAN_POINT('Origin',(37.7,-16.75,7.95));
#1651=CARTESIAN_POINT('Origin',(36.8055728090001,-16.6,7.85));
#1652=CARTESIAN_POINT('',(36.8055728090001,-16.75,8.65));
#1653=CARTESIAN_POINT('',(36.8055728090001,-16.45,8.35));
#1654=CARTESIAN_POINT('',(36.8055728090001,-16.75,8.65));
#1655=CARTESIAN_POINT('Origin',(36.8055728090001,-16.45,7.85));
#1656=CARTESIAN_POINT('Origin',(36.8055728090001,-16.75,7.85));
#1657=CARTESIAN_POINT('Origin',(45.67625,-16.6,8.5));
#1658=CARTESIAN_POINT('',(36.7944271909999,-16.75,8.65));
#1659=CARTESIAN_POINT('',(36.7944271909999,-16.45,8.35));
#1660=CARTESIAN_POINT('',(36.7944271909999,-16.75,8.65));
#1661=CARTESIAN_POINT('',(45.67625,-16.45,8.35));
#1662=CARTESIAN_POINT('',(45.67625,-16.75,8.65));
#1663=CARTESIAN_POINT('Origin',(36.7944271909999,-16.6,7.85));
#1664=CARTESIAN_POINT('',(35.999380799,-16.75,7.93888888888889));
#1665=CARTESIAN_POINT('',(36.297523196,-16.45,7.90555555555556));
#1666=CARTESIAN_POINT('',(35.999380799,-16.75,7.93888888888889));
#1667=CARTESIAN_POINT('Origin',(36.7944271909999,-16.45,7.85));
#1668=CARTESIAN_POINT('Origin',(36.7944271909999,-16.75,7.85));
#1669=CARTESIAN_POINT('Origin',(35.9,-16.6,7.95));
#1670=CARTESIAN_POINT('',(35.9,-16.75,7.85));
#1671=CARTESIAN_POINT('',(35.9,-16.45,7.55));
#1672=CARTESIAN_POINT('',(35.9,-16.75,7.85));
#1673=CARTESIAN_POINT('Origin',(35.9,-16.45,7.95));
#1674=CARTESIAN_POINT('Origin',(35.9,-16.75,7.95));
#1675=CARTESIAN_POINT('Origin',(45.67625,-16.6,7.7));
#1676=CARTESIAN_POINT('',(35.7,-16.75,7.85));
#1677=CARTESIAN_POINT('',(35.7,-16.45,7.55));
#1678=CARTESIAN_POINT('',(35.7,-16.75,7.85));
#1679=CARTESIAN_POINT('',(45.67625,-16.45,7.55));
#1680=CARTESIAN_POINT('',(45.67625,-16.75,7.85));
#1681=CARTESIAN_POINT('Origin',(35.7,-16.6,7.95));
#1682=CARTESIAN_POINT('',(35.600619201,-16.75,7.93888888888889));
#1683=CARTESIAN_POINT('',(35.302476804,-16.45,7.90555555555556));
#1684=CARTESIAN_POINT('',(35.600619201,-16.75,7.93888888888889));
#1685=CARTESIAN_POINT('Origin',(35.7,-16.45,7.95));
#1686=CARTESIAN_POINT('Origin',(35.7,-16.75,7.95));
#1687=CARTESIAN_POINT('Origin',(34.8055728090001,-16.6,7.85));
#1688=CARTESIAN_POINT('',(34.8055728090001,-16.75,8.65));
#1689=CARTESIAN_POINT('',(34.8055728090001,-16.45,8.35));
#1690=CARTESIAN_POINT('',(34.8055728090001,-16.75,8.65));
#1691=CARTESIAN_POINT('Origin',(34.8055728090001,-16.45,7.85));
#1692=CARTESIAN_POINT('Origin',(34.8055728090001,-16.75,7.85));
#1693=CARTESIAN_POINT('Origin',(45.67625,-16.6,8.5));
#1694=CARTESIAN_POINT('',(34.7944271909999,-16.75,8.65));
#1695=CARTESIAN_POINT('',(34.7944271909999,-16.45,8.35));
#1696=CARTESIAN_POINT('',(34.7944271909999,-16.75,8.65));
#1697=CARTESIAN_POINT('',(45.67625,-16.45,8.35));
#1698=CARTESIAN_POINT('',(45.67625,-16.75,8.65));
#1699=CARTESIAN_POINT('Origin',(34.7944271909999,-16.6,7.85));
#1700=CARTESIAN_POINT('',(33.999380799,-16.75,7.93888888888889));
#1701=CARTESIAN_POINT('',(34.297523196,-16.45,7.90555555555556));
#1702=CARTESIAN_POINT('',(33.999380799,-16.75,7.93888888888889));
#1703=CARTESIAN_POINT('Origin',(34.7944271909999,-16.45,7.85));
#1704=CARTESIAN_POINT('Origin',(34.7944271909999,-16.75,7.85));
#1705=CARTESIAN_POINT('Origin',(33.9,-16.6,7.95));
#1706=CARTESIAN_POINT('',(33.9,-16.75,7.85));
#1707=CARTESIAN_POINT('',(33.9,-16.45,7.55));
#1708=CARTESIAN_POINT('',(33.9,-16.75,7.85));
#1709=CARTESIAN_POINT('Origin',(33.9,-16.45,7.95));
#1710=CARTESIAN_POINT('Origin',(33.9,-16.75,7.95));
#1711=CARTESIAN_POINT('Origin',(45.67625,-16.6,7.7));
#1712=CARTESIAN_POINT('',(33.7,-16.75,7.85));
#1713=CARTESIAN_POINT('',(33.7,-16.45,7.55));
#1714=CARTESIAN_POINT('',(33.7,-16.75,7.85));
#1715=CARTESIAN_POINT('',(45.67625,-16.45,7.55));
#1716=CARTESIAN_POINT('',(45.67625,-16.75,7.85));
#1717=CARTESIAN_POINT('Origin',(33.7,-16.6,7.95));
#1718=CARTESIAN_POINT('',(33.600619201,-16.75,7.93888888888889));
#1719=CARTESIAN_POINT('',(33.302476804,-16.45,7.90555555555556));
#1720=CARTESIAN_POINT('',(33.600619201,-16.75,7.93888888888889));
#1721=CARTESIAN_POINT('Origin',(33.7,-16.45,7.95));
#1722=CARTESIAN_POINT('Origin',(33.7,-16.75,7.95));
#1723=CARTESIAN_POINT('Origin',(32.8055728090001,-16.6,7.85));
#1724=CARTESIAN_POINT('Origin',(32.8055728090001,-16.45,7.85));
#1725=CARTESIAN_POINT('Origin',(32.8055728090001,-16.75,7.85));
#1726=CARTESIAN_POINT('Origin',(33.45,-5.25,8.9));
#1727=CARTESIAN_POINT('',(33.6,-5.25,9.05));
#1728=CARTESIAN_POINT('',(33.3,-5.25,8.75));
#1729=CARTESIAN_POINT('Origin',(33.45,-10.65,11.4622214749839));
#1730=CARTESIAN_POINT('',(33.3,-10.8,11.4622214749839));
#1731=CARTESIAN_POINT('',(33.6,-10.5,11.4622214749839));
#1732=CARTESIAN_POINT('Origin',(38.3,-9.75000000000001,22.1589105316382));
#1733=CARTESIAN_POINT('',(38.3,-9.75000000000001,7.95));
#1734=CARTESIAN_POINT('Origin',(38.3525,-10.5,15.));
#1735=CARTESIAN_POINT('Origin',(60.,0.,9.05));
#1736=CARTESIAN_POINT('Origin',(31.3525,-16.75,15.));
#1737=CARTESIAN_POINT('Origin',(33.3,-10.5,7.92444294996787));
#1738=CARTESIAN_POINT('',(33.3,0.,7.92444294996788));
#1739=CARTESIAN_POINT('Origin',(32.8055728090001,0.,7.85));
#1740=CARTESIAN_POINT('',(33.302476804,0.,7.90555555555556));
#1741=CARTESIAN_POINT('Origin',(33.7,0.,7.95));
#1742=CARTESIAN_POINT('',(33.7,0.,7.55));
#1743=CARTESIAN_POINT('Origin',(60.,0.,7.55));
#1744=CARTESIAN_POINT('',(33.9,0.,7.55));
#1745=CARTESIAN_POINT('Origin',(37.9,0.,7.95));
#1746=CARTESIAN_POINT('',(37.9,0.,7.55));
#1747=CARTESIAN_POINT('Origin',(60.,0.,7.55));
#1748=CARTESIAN_POINT('',(37.7,0.,7.55));
#1749=CARTESIAN_POINT('Origin',(60.,0.,8.35));
#1750=CARTESIAN_POINT('',(34.8055728090001,0.,8.35));
#1751=CARTESIAN_POINT('',(34.7944271909999,-1.34537535006816E-14,8.35));
#1752=CARTESIAN_POINT('Origin',(60.,0.,8.35));
#1753=CARTESIAN_POINT('',(36.8055728090001,0.,8.35));
#1754=CARTESIAN_POINT('',(36.7944271909999,0.,8.35));
#1755=CARTESIAN_POINT('Origin',(37.7,0.,7.95));
#1756=CARTESIAN_POINT('',(37.302476804,0.,7.90555555555556));
#1757=CARTESIAN_POINT('Origin',(36.8055728090001,0.,7.85));
#1758=CARTESIAN_POINT('Origin',(36.7944271909999,0.,7.85));
#1759=CARTESIAN_POINT('',(36.297523196,0.,7.90555555555556));
#1760=CARTESIAN_POINT('Origin',(35.9,0.,7.95));
#1761=CARTESIAN_POINT('',(35.9,0.,7.55));
#1762=CARTESIAN_POINT('Origin',(60.,0.,7.55));
#1763=CARTESIAN_POINT('',(35.7,0.,7.55));
#1764=CARTESIAN_POINT('Origin',(35.7,0.,7.95));
#1765=CARTESIAN_POINT('',(35.302476804,0.,7.90555555555556));
#1766=CARTESIAN_POINT('Origin',(34.8055728090001,0.,7.85));
#1767=CARTESIAN_POINT('Origin',(34.7944271909999,-1.34537535006816E-14,
7.85));
#1768=CARTESIAN_POINT('',(34.297523196,-1.37189815085071E-14,7.90555555555556));
#1769=CARTESIAN_POINT('Origin',(33.9,-1.39311639147676E-14,7.95));
#1770=CARTESIAN_POINT('',(0.,0.,0.));
#1771=UNCERTAINTY_MEASURE_WITH_UNIT(LENGTH_MEASURE(0.01),#1777,
'DISTANCE_ACCURACY_VALUE',
'Maximum model space distance between geometric entities at asserted c
onnectivities');
#1772=UNCERTAINTY_MEASURE_WITH_UNIT(LENGTH_MEASURE(0.01),#1777,
'DISTANCE_ACCURACY_VALUE',
'Maximum model space distance between geometric entities at asserted c
onnectivities');
#1773=UNCERTAINTY_MEASURE_WITH_UNIT(LENGTH_MEASURE(0.01),#1777,
'DISTANCE_ACCURACY_VALUE',
'Maximum model space distance between geometric entities at asserted c
onnectivities');
#1774=(
GEOMETRIC_REPRESENTATION_CONTEXT(3)
GLOBAL_UNCERTAINTY_ASSIGNED_CONTEXT((#1771))
GLOBAL_UNIT_ASSIGNED_CONTEXT((#1777,#1779,#1780))
REPRESENTATION_CONTEXT('','3D')
);
#1775=(
GEOMETRIC_REPRESENTATION_CONTEXT(3)
GLOBAL_UNCERTAINTY_ASSIGNED_CONTEXT((#1772))
GLOBAL_UNIT_ASSIGNED_CONTEXT((#1777,#1779,#1780))
REPRESENTATION_CONTEXT('','3D')
);
#1776=(
GEOMETRIC_REPRESENTATION_CONTEXT(3)
GLOBAL_UNCERTAINTY_ASSIGNED_CONTEXT((#1773))
GLOBAL_UNIT_ASSIGNED_CONTEXT((#1777,#1779,#1780))
REPRESENTATION_CONTEXT('','3D')
);
#1777=(
LENGTH_UNIT()
NAMED_UNIT(*)
SI_UNIT(.MILLI.,.METRE.)
);
#1778=(
LENGTH_UNIT()
NAMED_UNIT(*)
SI_UNIT($,.METRE.)
);
#1779=(
NAMED_UNIT(*)
PLANE_ANGLE_UNIT()
SI_UNIT($,.RADIAN.)
);
#1780=(
NAMED_UNIT(*)
SI_UNIT($,.STERADIAN.)
SOLID_ANGLE_UNIT()
);
#1781=SHAPE_DEFINITION_REPRESENTATION(#1783,#1786);
#1782=SHAPE_DEFINITION_REPRESENTATION(#1784,#1787);
#1783=PRODUCT_DEFINITION_SHAPE('',$,#1789);
#1784=PRODUCT_DEFINITION_SHAPE('',$,#1790);
#1785=PRODUCT_DEFINITION_SHAPE($,$,#14);
#1786=SHAPE_REPRESENTATION('',(#1041,#1152),#1774);
#1787=SHAPE_REPRESENTATION('',(#1042),#1775);
#1788=PRODUCT_DEFINITION_CONTEXT('part definition',#1796,'design');
#1789=PRODUCT_DEFINITION('\X\BC\X\B7\X\B3\X\F6\X\BB\X\FA\X\C7\X\B0\X\BB
\X\AC\X\BF\X\E9\X\B0\X\E5','carriage opt v9',#1791,#1788);
#1790=PRODUCT_DEFINITION('clip','clip',#1792,#1788);
#1791=PRODUCT_DEFINITION_FORMATION('',$,#1798);
#1792=PRODUCT_DEFINITION_FORMATION('',$,#1799);
#1793=PRODUCT_RELATED_PRODUCT_CATEGORY('carriage opt v9',
'carriage opt v9',(#1798));
#1794=PRODUCT_RELATED_PRODUCT_CATEGORY('clip','clip',(#1799));
#1795=APPLICATION_PROTOCOL_DEFINITION('international standard',
'automotive_design',2009,#1796);
#1796=APPLICATION_CONTEXT(
'Core Data for Automotive Mechanical Design Process');
#1797=PRODUCT_CONTEXT('part definition',#1796,'mechanical');
#1798=PRODUCT('\X\BC\X\B7\X\B3\X\F6\X\BB\X\FA\X\C7\X\B0\X\BB\X\AC\X\BF
\X\E9\X\B0\X\E5','carriage opt v9','STEP AP214',(#1797));
#1799=PRODUCT('clip','clip',$,(#1797));
#1800=PRESENTATION_STYLE_ASSIGNMENT((#1803));
#1801=PRESENTATION_STYLE_ASSIGNMENT((#1804));
#1802=PRESENTATION_STYLE_ASSIGNMENT((#1805));
#1803=SURFACE_STYLE_USAGE(.BOTH.,#1806);
#1804=SURFACE_STYLE_USAGE(.BOTH.,#1807);
#1805=SURFACE_STYLE_USAGE(.BOTH.,#1808);
#1806=SURFACE_SIDE_STYLE('',(#1809));
#1807=SURFACE_SIDE_STYLE('',(#1810));
#1808=SURFACE_SIDE_STYLE('',(#1811));
#1809=SURFACE_STYLE_FILL_AREA(#1812);
#1810=SURFACE_STYLE_FILL_AREA(#1813);
#1811=SURFACE_STYLE_FILL_AREA(#1814);
#1812=FILL_AREA_STYLE('Plastic - Matte (Green)',(#1815));
#1813=FILL_AREA_STYLE('Brass - Matte',(#1816));
#1814=FILL_AREA_STYLE('Powder Coat - Rough (Dark Grey)',(#1817));
#1815=FILL_AREA_STYLE_COLOUR('Plastic - Matte (Green)',#1818);
#1816=FILL_AREA_STYLE_COLOUR('Brass - Matte',#1819);
#1817=FILL_AREA_STYLE_COLOUR('Powder Coat - Rough (Dark Grey)',#1820);
#1818=COLOUR_RGB('Plastic - Matte (Green)',0.266666666666667,0.588235294117647,
0.282352941176471);
#1819=COLOUR_RGB('Brass - Matte',0.952941176470588,0.796078431372549,0.486274509803922);
#1820=COLOUR_RGB('Powder Coat - Rough (Dark Grey)',0.349019607843137,0.349019607843137,
0.349019607843137);
ENDSEC;
END-ISO-10303-21;
