ISO-10303-21;
HEADER;
/* Generated by software containing ST-Developer
 * from STEP Tools, Inc. (www.steptools.com) 
 */

FILE_DESCRIPTION(
/* description */ ('STEP AP214'),
/* implementation_level */ '2;1');

FILE_NAME(
/* name */ 'filament cutter opt.step',
/* time_stamp */ '2025-12-22T14:12:48-05:00',
/* author */ (''),
/* organization */ (''),
/* preprocessor_version */ 'ST-DEVELOPER v20.1',
/* originating_system */ 'Autodesk Translation Framework v14.21.0.0',
/* authorisation */ '');

FILE_SCHEMA (('AUTOMOTIVE_DESIGN { 1 0 10303 214 3 1 1 }'));
ENDSEC;

DATA;
#10=MECHANICAL_DESIGN_GEOMETRIC_PRESENTATION_REPRESENTATION('',(#13),#1023);
#11=SHAPE_REPRESENTATION_RELATIONSHIP('SRR','None',#1030,#12);
#12=ADVANCED_BREP_SHAPE_REPRESENTATION('',(#14),#1022);
#13=STYLED_ITEM('',(#1039),#14);
#14=MANIFOLD_SOLID_BREP('Body2',#566);
#15=(
BOUNDED_SURFACE()
B_SPLINE_SURFACE(3,2,((#1008,#1009,#1010),(#1011,#1012,#1013),(#1014,#1015,
#1016),(#1017,#1018,#1019)),.UNSPECIFIED.,.F.,.F.,.F.)
B_SPLINE_SURFACE_WITH_KNOTS((4,4),(3,3),(0.00221100430138685,0.00778477464870848),
(0.,1.),.UNSPECIFIED.)
GEOMETRIC_REPRESENTATION_ITEM()
RATIONAL_B_SPLINE_SURFACE(((1.,0.712025206455006,1.),(1.,0.712026631958853,
1.),(1.,0.712026899776342,1.),(1.,0.71202601411297,1.)))
REPRESENTATION_ITEM('')
SURFACE()
);
#16=B_SPLINE_SURFACE_WITH_KNOTS('',1,3,((#936,#937,#938,#939),(#940,#941,
#942,#943)),.UNSPECIFIED.,.F.,.F.,.F.,(2,2),(4,4),(0.,1.),(4.67316113481699,
4.71450365587904),.UNSPECIFIED.);
#17=CYLINDRICAL_SURFACE('',#602,2.3);
#18=CYLINDRICAL_SURFACE('',#610,1.);
#19=CYLINDRICAL_SURFACE('',#615,2.);
#20=CYLINDRICAL_SURFACE('',#618,1.);
#21=CYLINDRICAL_SURFACE('',#626,1.);
#22=CYLINDRICAL_SURFACE('',#632,0.300000029718715);
#23=CYLINDRICAL_SURFACE('',#633,0.5);
#24=CYLINDRICAL_SURFACE('',#637,0.30000002973824);
#25=B_SPLINE_CURVE_WITH_KNOTS('',3,(#843,#844,#845,#846,#847,#848),
 .UNSPECIFIED.,.F.,.F.,(4,2,4),(-0.450567650296474,-0.22526501524144,0.),
 .UNSPECIFIED.);
#26=B_SPLINE_CURVE_WITH_KNOTS('',3,(#865,#866,#867,#868,#869,#870,#871,
#872,#873,#874),.UNSPECIFIED.,.F.,.F.,(4,2,2,2,4),(-0.0780715130808889,
-0.0591073289076196,-0.0398463958587571,-0.0198112504683919,0.),
 .UNSPECIFIED.);
#27=B_SPLINE_CURVE_WITH_KNOTS('',3,(#926,#927,#928,#929,#930,#931,#932,
#933,#934,#935),.UNSPECIFIED.,.F.,.F.,(4,2,2,2,4),(-0.308229120346642,-0.289386889393368,
-0.270544658440094,-0.25145546995504,-0.232366281469987),.UNSPECIFIED.);
#28=B_SPLINE_CURVE_WITH_KNOTS('',3,(#945,#946,#947,#948),.UNSPECIFIED.,
 .F.,.F.,(4,4),(0.163693602695167,1.),.UNSPECIFIED.);
#29=B_SPLINE_CURVE_WITH_KNOTS('',3,(#961,#962,#963,#964,#965,#966,#967,
#968,#969,#970),.UNSPECIFIED.,.F.,.F.,(4,2,2,2,4),(0.,0.0197554554536886,
0.0390454451528651,0.058335944588325,0.07809024879447),.UNSPECIFIED.);
#30=FACE_BOUND('',#89,.T.);
#31=FACE_BOUND('',#90,.T.);
#32=FACE_BOUND('',#93,.T.);
#33=FACE_BOUND('',#94,.T.);
#34=ELLIPSE('',#590,0.300031971013993,0.300000029718715);
#35=ELLIPSE('',#591,0.300031972626343,0.30000002973824);
#36=ELLIPSE('',#606,1.00009748549319,1.);
#37=ELLIPSE('',#607,1.00009748549319,1.);
#38=ELLIPSE('',#608,1.00009748549319,1.);
#39=ELLIPSE('',#609,0.500048742746596,0.5);
#40=ELLIPSE('',#616,128.381315424128,1.50010452220779);
#41=ELLIPSE('',#623,0.300031972626343,0.30000002973824);
#42=ELLIPSE('',#624,0.300031971013993,0.300000029718715);
#43=PLANE('',#587);
#44=PLANE('',#595);
#45=PLANE('',#605);
#46=PLANE('',#612);
#47=PLANE('',#621);
#48=PLANE('',#625);
#49=PLANE('',#627);
#50=PLANE('',#628);
#51=PLANE('',#629);
#52=PLANE('',#630);
#53=PLANE('',#634);
#54=PLANE('',#635);
#55=PLANE('',#636);
#56=FACE_OUTER_BOUND('',#86,.T.);
#57=FACE_OUTER_BOUND('',#87,.T.);
#58=FACE_OUTER_BOUND('',#88,.T.);
#59=FACE_OUTER_BOUND('',#91,.T.);
#60=FACE_OUTER_BOUND('',#92,.T.);
#61=FACE_OUTER_BOUND('',#95,.T.);
#62=FACE_OUTER_BOUND('',#96,.T.);
#63=FACE_OUTER_BOUND('',#97,.T.);
#64=FACE_OUTER_BOUND('',#98,.T.);
#65=FACE_OUTER_BOUND('',#99,.T.);
#66=FACE_OUTER_BOUND('',#100,.T.);
#67=FACE_OUTER_BOUND('',#101,.T.);
#68=FACE_OUTER_BOUND('',#102,.T.);
#69=FACE_OUTER_BOUND('',#103,.T.);
#70=FACE_OUTER_BOUND('',#104,.T.);
#71=FACE_OUTER_BOUND('',#105,.T.);
#72=FACE_OUTER_BOUND('',#106,.T.);
#73=FACE_OUTER_BOUND('',#107,.T.);
#74=FACE_OUTER_BOUND('',#108,.T.);
#75=FACE_OUTER_BOUND('',#109,.T.);
#76=FACE_OUTER_BOUND('',#110,.T.);
#77=FACE_OUTER_BOUND('',#111,.T.);
#78=FACE_OUTER_BOUND('',#112,.T.);
#79=FACE_OUTER_BOUND('',#113,.T.);
#80=FACE_OUTER_BOUND('',#114,.T.);
#81=FACE_OUTER_BOUND('',#115,.T.);
#82=FACE_OUTER_BOUND('',#116,.T.);
#83=FACE_OUTER_BOUND('',#117,.T.);
#84=FACE_OUTER_BOUND('',#118,.T.);
#85=FACE_OUTER_BOUND('',#119,.T.);
#86=EDGE_LOOP('',(#367,#368,#369,#370,#371));
#87=EDGE_LOOP('',(#372,#373,#374,#375,#376,#377));
#88=EDGE_LOOP('',(#378,#379,#380,#381,#382,#383,#384,#385));
#89=EDGE_LOOP('',(#386));
#90=EDGE_LOOP('',(#387));
#91=EDGE_LOOP('',(#388,#389,#390,#391,#392));
#92=EDGE_LOOP('',(#393,#394,#395,#396,#397,#398,#399,#400,#401,#402));
#93=EDGE_LOOP('',(#403));
#94=EDGE_LOOP('',(#404));
#95=EDGE_LOOP('',(#405,#406,#407,#408));
#96=EDGE_LOOP('',(#409,#410,#411,#412));
#97=EDGE_LOOP('',(#413,#414,#415,#416));
#98=EDGE_LOOP('',(#417,#418,#419,#420,#421,#422,#423,#424,#425,#426));
#99=EDGE_LOOP('',(#427,#428,#429,#430));
#100=EDGE_LOOP('',(#431,#432,#433,#434,#435,#436,#437,#438));
#101=EDGE_LOOP('',(#439,#440,#441,#442,#443));
#102=EDGE_LOOP('',(#444,#445,#446,#447));
#103=EDGE_LOOP('',(#448,#449,#450,#451));
#104=EDGE_LOOP('',(#452,#453,#454,#455,#456,#457));
#105=EDGE_LOOP('',(#458,#459,#460,#461,#462,#463,#464,#465,#466,#467,#468,
#469,#470));
#106=EDGE_LOOP('',(#471,#472,#473,#474));
#107=EDGE_LOOP('',(#475,#476,#477,#478));
#108=EDGE_LOOP('',(#479,#480,#481,#482));
#109=EDGE_LOOP('',(#483,#484,#485,#486));
#110=EDGE_LOOP('',(#487,#488,#489,#490));
#111=EDGE_LOOP('',(#491,#492,#493,#494));
#112=EDGE_LOOP('',(#495,#496,#497,#498,#499,#500));
#113=EDGE_LOOP('',(#501,#502,#503,#504));
#114=EDGE_LOOP('',(#505,#506,#507,#508));
#115=EDGE_LOOP('',(#509,#510,#511,#512));
#116=EDGE_LOOP('',(#513,#514,#515,#516));
#117=EDGE_LOOP('',(#517,#518,#519,#520));
#118=EDGE_LOOP('',(#521,#522,#523,#524));
#119=EDGE_LOOP('',(#525,#526,#527,#528));
#120=LINE('',#807,#166);
#121=LINE('',#816,#167);
#122=LINE('',#822,#168);
#123=LINE('',#828,#169);
#124=LINE('',#830,#170);
#125=LINE('',#832,#171);
#126=LINE('',#839,#172);
#127=LINE('',#852,#173);
#128=LINE('',#854,#174);
#129=LINE('',#856,#175);
#130=LINE('',#860,#176);
#131=LINE('',#864,#177);
#132=LINE('',#879,#178);
#133=LINE('',#883,#179);
#134=LINE('',#886,#180);
#135=LINE('',#891,#181);
#136=LINE('',#895,#182);
#137=LINE('',#899,#183);
#138=LINE('',#903,#184);
#139=LINE('',#904,#185);
#140=LINE('',#908,#186);
#141=LINE('',#912,#187);
#142=LINE('',#915,#188);
#143=LINE('',#917,#189);
#144=LINE('',#919,#190);
#145=LINE('',#949,#191);
#146=LINE('',#951,#192);
#147=LINE('',#952,#193);
#148=LINE('',#956,#194);
#149=LINE('',#957,#195);
#150=LINE('',#959,#196);
#151=LINE('',#972,#197);
#152=LINE('',#978,#198);
#153=LINE('',#980,#199);
#154=LINE('',#982,#200);
#155=LINE('',#985,#201);
#156=LINE('',#986,#202);
#157=LINE('',#988,#203);
#158=LINE('',#992,#204);
#159=LINE('',#993,#205);
#160=LINE('',#995,#206);
#161=LINE('',#997,#207);
#162=LINE('',#999,#208);
#163=LINE('',#1002,#209);
#164=LINE('',#1004,#210);
#165=LINE('',#1006,#211);
#166=VECTOR('',#644,2.19790567294982);
#167=VECTOR('',#655,2.04999999999993);
#168=VECTOR('',#660,1000.);
#169=VECTOR('',#665,1000.);
#170=VECTOR('',#666,1000.);
#171=VECTOR('',#667,1000.);
#172=VECTOR('',#676,2.14484380710918);
#173=VECTOR('',#681,10.);
#174=VECTOR('',#682,10.);
#175=VECTOR('',#683,10.);
#176=VECTOR('',#686,10.);
#177=VECTOR('',#689,10.);
#178=VECTOR('',#694,2.45);
#179=VECTOR('',#699,2.15);
#180=VECTOR('',#704,2.45);
#181=VECTOR('',#709,1000.);
#182=VECTOR('',#712,1000.);
#183=VECTOR('',#715,1000.);
#184=VECTOR('',#718,1000.);
#185=VECTOR('',#719,1000.);
#186=VECTOR('',#724,1000.);
#187=VECTOR('',#727,1000.);
#188=VECTOR('',#730,1000.);
#189=VECTOR('',#731,1000.);
#190=VECTOR('',#732,1000.);
#191=VECTOR('',#741,1000.);
#192=VECTOR('',#744,1000.);
#193=VECTOR('',#745,1000.);
#194=VECTOR('',#750,10.);
#195=VECTOR('',#751,1000.);
#196=VECTOR('',#754,1000.);
#197=VECTOR('',#755,1000.);
#198=VECTOR('',#760,1000.);
#199=VECTOR('',#761,1000.);
#200=VECTOR('',#762,1000.);
#201=VECTOR('',#767,1000.);
#202=VECTOR('',#768,1000.);
#203=VECTOR('',#771,1000.);
#204=VECTOR('',#778,1000.);
#205=VECTOR('',#779,1000.);
#206=VECTOR('',#782,1000.);
#207=VECTOR('',#785,10.);
#208=VECTOR('',#788,1000.);
#209=VECTOR('',#793,1000.);
#210=VECTOR('',#796,1000.);
#211=VECTOR('',#799,1000.);
#212=CIRCLE('',#581,2.35000000000073);
#213=CIRCLE('',#582,2.04581134589892);
#214=CIRCLE('',#583,2.04581134589892);
#215=CIRCLE('',#585,1.99693813416008);
#216=CIRCLE('',#586,1.99693813416008);
#217=CIRCLE('',#588,4.99301822927639);
#218=CIRCLE('',#589,4.99301822927639);
#219=CIRCLE('',#592,2.6);
#220=CIRCLE('',#594,2.29274948005828);
#221=CIRCLE('',#596,2.);
#222=CIRCLE('',#597,4.935767709335);
#223=CIRCLE('',#598,4.935767709335);
#224=CIRCLE('',#599,2.6);
#225=CIRCLE('',#601,2.3);
#226=CIRCLE('',#603,2.3);
#227=CIRCLE('',#611,1.);
#228=CIRCLE('',#613,1.);
#229=CIRCLE('',#614,1.);
#230=CIRCLE('',#617,2.);
#231=CIRCLE('',#620,5.00000000000079);
#232=CIRCLE('',#622,5.00000000000079);
#233=VERTEX_POINT('',#804);
#234=VERTEX_POINT('',#806);
#235=VERTEX_POINT('',#808);
#236=VERTEX_POINT('',#812);
#237=VERTEX_POINT('',#813);
#238=VERTEX_POINT('',#818);
#239=VERTEX_POINT('',#819);
#240=VERTEX_POINT('',#821);
#241=VERTEX_POINT('',#823);
#242=VERTEX_POINT('',#825);
#243=VERTEX_POINT('',#827);
#244=VERTEX_POINT('',#829);
#245=VERTEX_POINT('',#831);
#246=VERTEX_POINT('',#834);
#247=VERTEX_POINT('',#837);
#248=VERTEX_POINT('',#841);
#249=VERTEX_POINT('',#842);
#250=VERTEX_POINT('',#849);
#251=VERTEX_POINT('',#851);
#252=VERTEX_POINT('',#853);
#253=VERTEX_POINT('',#855);
#254=VERTEX_POINT('',#857);
#255=VERTEX_POINT('',#859);
#256=VERTEX_POINT('',#861);
#257=VERTEX_POINT('',#863);
#258=VERTEX_POINT('',#875);
#259=VERTEX_POINT('',#878);
#260=VERTEX_POINT('',#882);
#261=VERTEX_POINT('',#888);
#262=VERTEX_POINT('',#890);
#263=VERTEX_POINT('',#892);
#264=VERTEX_POINT('',#894);
#265=VERTEX_POINT('',#896);
#266=VERTEX_POINT('',#898);
#267=VERTEX_POINT('',#900);
#268=VERTEX_POINT('',#902);
#269=VERTEX_POINT('',#906);
#270=VERTEX_POINT('',#910);
#271=VERTEX_POINT('',#911);
#272=VERTEX_POINT('',#913);
#273=VERTEX_POINT('',#916);
#274=VERTEX_POINT('',#918);
#275=VERTEX_POINT('',#922);
#276=VERTEX_POINT('',#924);
#277=VERTEX_POINT('',#944);
#278=VERTEX_POINT('',#954);
#279=VERTEX_POINT('',#960);
#280=VERTEX_POINT('',#971);
#281=VERTEX_POINT('',#973);
#282=VERTEX_POINT('',#975);
#283=VERTEX_POINT('',#977);
#284=VERTEX_POINT('',#979);
#285=VERTEX_POINT('',#981);
#286=EDGE_CURVE('',#233,#233,#212,.T.);
#287=EDGE_CURVE('',#233,#234,#120,.T.);
#288=EDGE_CURVE('',#234,#235,#213,.T.);
#289=EDGE_CURVE('',#235,#234,#214,.T.);
#290=EDGE_CURVE('',#236,#237,#215,.T.);
#291=EDGE_CURVE('',#237,#236,#216,.T.);
#292=EDGE_CURVE('',#237,#235,#121,.T.);
#293=EDGE_CURVE('',#238,#239,#217,.T.);
#294=EDGE_CURVE('',#240,#238,#122,.T.);
#295=EDGE_CURVE('',#241,#240,#218,.T.);
#296=EDGE_CURVE('',#241,#242,#34,.T.);
#297=EDGE_CURVE('',#242,#243,#123,.T.);
#298=EDGE_CURVE('',#243,#244,#124,.T.);
#299=EDGE_CURVE('',#244,#245,#125,.T.);
#300=EDGE_CURVE('',#245,#239,#35,.T.);
#301=EDGE_CURVE('',#246,#246,#219,.T.);
#302=EDGE_CURVE('',#247,#247,#220,.T.);
#303=EDGE_CURVE('',#247,#236,#126,.T.);
#304=EDGE_CURVE('',#248,#249,#25,.T.);
#305=EDGE_CURVE('',#249,#250,#221,.T.);
#306=EDGE_CURVE('',#250,#251,#127,.T.);
#307=EDGE_CURVE('',#251,#252,#128,.T.);
#308=EDGE_CURVE('',#252,#253,#129,.T.);
#309=EDGE_CURVE('',#253,#254,#222,.T.);
#310=EDGE_CURVE('',#254,#255,#130,.T.);
#311=EDGE_CURVE('',#255,#256,#223,.T.);
#312=EDGE_CURVE('',#256,#257,#131,.T.);
#313=EDGE_CURVE('',#257,#248,#26,.T.);
#314=EDGE_CURVE('',#258,#258,#224,.T.);
#315=EDGE_CURVE('',#258,#259,#132,.T.);
#316=EDGE_CURVE('',#259,#259,#225,.T.);
#317=EDGE_CURVE('',#259,#260,#133,.T.);
#318=EDGE_CURVE('',#260,#260,#226,.T.);
#319=EDGE_CURVE('',#246,#260,#134,.T.);
#320=EDGE_CURVE('',#252,#261,#36,.T.);
#321=EDGE_CURVE('',#261,#262,#135,.T.);
#322=EDGE_CURVE('',#262,#263,#37,.F.);
#323=EDGE_CURVE('',#263,#264,#136,.T.);
#324=EDGE_CURVE('',#264,#265,#38,.T.);
#325=EDGE_CURVE('',#265,#266,#137,.T.);
#326=EDGE_CURVE('',#266,#267,#39,.T.);
#327=EDGE_CURVE('',#267,#268,#138,.T.);
#328=EDGE_CURVE('',#268,#253,#139,.T.);
#329=EDGE_CURVE('',#251,#269,#227,.T.);
#330=EDGE_CURVE('',#269,#261,#140,.T.);
#331=EDGE_CURVE('',#270,#271,#141,.T.);
#332=EDGE_CURVE('',#272,#270,#228,.T.);
#333=EDGE_CURVE('',#269,#272,#142,.T.);
#334=EDGE_CURVE('',#250,#273,#143,.T.);
#335=EDGE_CURVE('',#273,#274,#144,.T.);
#336=EDGE_CURVE('',#271,#274,#229,.T.);
#337=EDGE_CURVE('',#275,#249,#40,.T.);
#338=EDGE_CURVE('',#276,#275,#230,.T.);
#339=EDGE_CURVE('',#273,#276,#27,.T.);
#340=EDGE_CURVE('',#248,#277,#28,.T.);
#341=EDGE_CURVE('',#275,#277,#145,.T.);
#342=EDGE_CURVE('',#263,#270,#146,.T.);
#343=EDGE_CURVE('',#272,#262,#147,.T.);
#344=EDGE_CURVE('',#268,#278,#231,.T.);
#345=EDGE_CURVE('',#278,#241,#148,.T.);
#346=EDGE_CURVE('',#240,#254,#149,.T.);
#347=EDGE_CURVE('',#267,#276,#150,.T.);
#348=EDGE_CURVE('',#279,#277,#29,.T.);
#349=EDGE_CURVE('',#279,#280,#151,.T.);
#350=EDGE_CURVE('',#280,#281,#232,.T.);
#351=EDGE_CURVE('',#281,#282,#41,.T.);
#352=EDGE_CURVE('',#282,#283,#152,.T.);
#353=EDGE_CURVE('',#283,#284,#153,.T.);
#354=EDGE_CURVE('',#284,#285,#154,.T.);
#355=EDGE_CURVE('',#285,#278,#42,.T.);
#356=EDGE_CURVE('',#274,#265,#155,.T.);
#357=EDGE_CURVE('',#266,#273,#156,.T.);
#358=EDGE_CURVE('',#264,#271,#157,.T.);
#359=EDGE_CURVE('',#256,#280,#158,.T.);
#360=EDGE_CURVE('',#279,#257,#159,.T.);
#361=EDGE_CURVE('',#238,#255,#160,.T.);
#362=EDGE_CURVE('',#239,#281,#161,.T.);
#363=EDGE_CURVE('',#285,#242,#162,.T.);
#364=EDGE_CURVE('',#284,#243,#163,.T.);
#365=EDGE_CURVE('',#283,#244,#164,.T.);
#366=EDGE_CURVE('',#282,#245,#165,.T.);
#367=ORIENTED_EDGE('',*,*,#286,.T.);
#368=ORIENTED_EDGE('',*,*,#287,.T.);
#369=ORIENTED_EDGE('',*,*,#288,.T.);
#370=ORIENTED_EDGE('',*,*,#289,.T.);
#371=ORIENTED_EDGE('',*,*,#287,.F.);
#372=ORIENTED_EDGE('',*,*,#290,.F.);
#373=ORIENTED_EDGE('',*,*,#291,.F.);
#374=ORIENTED_EDGE('',*,*,#292,.T.);
#375=ORIENTED_EDGE('',*,*,#288,.F.);
#376=ORIENTED_EDGE('',*,*,#289,.F.);
#377=ORIENTED_EDGE('',*,*,#292,.F.);
#378=ORIENTED_EDGE('',*,*,#293,.F.);
#379=ORIENTED_EDGE('',*,*,#294,.F.);
#380=ORIENTED_EDGE('',*,*,#295,.F.);
#381=ORIENTED_EDGE('',*,*,#296,.T.);
#382=ORIENTED_EDGE('',*,*,#297,.T.);
#383=ORIENTED_EDGE('',*,*,#298,.T.);
#384=ORIENTED_EDGE('',*,*,#299,.T.);
#385=ORIENTED_EDGE('',*,*,#300,.T.);
#386=ORIENTED_EDGE('',*,*,#301,.F.);
#387=ORIENTED_EDGE('',*,*,#286,.F.);
#388=ORIENTED_EDGE('',*,*,#302,.T.);
#389=ORIENTED_EDGE('',*,*,#303,.T.);
#390=ORIENTED_EDGE('',*,*,#290,.T.);
#391=ORIENTED_EDGE('',*,*,#291,.T.);
#392=ORIENTED_EDGE('',*,*,#303,.F.);
#393=ORIENTED_EDGE('',*,*,#304,.T.);
#394=ORIENTED_EDGE('',*,*,#305,.T.);
#395=ORIENTED_EDGE('',*,*,#306,.T.);
#396=ORIENTED_EDGE('',*,*,#307,.T.);
#397=ORIENTED_EDGE('',*,*,#308,.T.);
#398=ORIENTED_EDGE('',*,*,#309,.T.);
#399=ORIENTED_EDGE('',*,*,#310,.T.);
#400=ORIENTED_EDGE('',*,*,#311,.T.);
#401=ORIENTED_EDGE('',*,*,#312,.T.);
#402=ORIENTED_EDGE('',*,*,#313,.T.);
#403=ORIENTED_EDGE('',*,*,#314,.F.);
#404=ORIENTED_EDGE('',*,*,#302,.F.);
#405=ORIENTED_EDGE('',*,*,#314,.T.);
#406=ORIENTED_EDGE('',*,*,#315,.T.);
#407=ORIENTED_EDGE('',*,*,#316,.T.);
#408=ORIENTED_EDGE('',*,*,#315,.F.);
#409=ORIENTED_EDGE('',*,*,#316,.F.);
#410=ORIENTED_EDGE('',*,*,#317,.T.);
#411=ORIENTED_EDGE('',*,*,#318,.F.);
#412=ORIENTED_EDGE('',*,*,#317,.F.);
#413=ORIENTED_EDGE('',*,*,#301,.T.);
#414=ORIENTED_EDGE('',*,*,#319,.T.);
#415=ORIENTED_EDGE('',*,*,#318,.T.);
#416=ORIENTED_EDGE('',*,*,#319,.F.);
#417=ORIENTED_EDGE('',*,*,#308,.F.);
#418=ORIENTED_EDGE('',*,*,#320,.T.);
#419=ORIENTED_EDGE('',*,*,#321,.T.);
#420=ORIENTED_EDGE('',*,*,#322,.T.);
#421=ORIENTED_EDGE('',*,*,#323,.T.);
#422=ORIENTED_EDGE('',*,*,#324,.T.);
#423=ORIENTED_EDGE('',*,*,#325,.T.);
#424=ORIENTED_EDGE('',*,*,#326,.T.);
#425=ORIENTED_EDGE('',*,*,#327,.T.);
#426=ORIENTED_EDGE('',*,*,#328,.T.);
#427=ORIENTED_EDGE('',*,*,#307,.F.);
#428=ORIENTED_EDGE('',*,*,#329,.T.);
#429=ORIENTED_EDGE('',*,*,#330,.T.);
#430=ORIENTED_EDGE('',*,*,#320,.F.);
#431=ORIENTED_EDGE('',*,*,#331,.F.);
#432=ORIENTED_EDGE('',*,*,#332,.F.);
#433=ORIENTED_EDGE('',*,*,#333,.F.);
#434=ORIENTED_EDGE('',*,*,#329,.F.);
#435=ORIENTED_EDGE('',*,*,#306,.F.);
#436=ORIENTED_EDGE('',*,*,#334,.T.);
#437=ORIENTED_EDGE('',*,*,#335,.T.);
#438=ORIENTED_EDGE('',*,*,#336,.F.);
#439=ORIENTED_EDGE('',*,*,#305,.F.);
#440=ORIENTED_EDGE('',*,*,#337,.F.);
#441=ORIENTED_EDGE('',*,*,#338,.F.);
#442=ORIENTED_EDGE('',*,*,#339,.F.);
#443=ORIENTED_EDGE('',*,*,#334,.F.);
#444=ORIENTED_EDGE('',*,*,#304,.F.);
#445=ORIENTED_EDGE('',*,*,#340,.T.);
#446=ORIENTED_EDGE('',*,*,#341,.F.);
#447=ORIENTED_EDGE('',*,*,#337,.T.);
#448=ORIENTED_EDGE('',*,*,#332,.T.);
#449=ORIENTED_EDGE('',*,*,#342,.F.);
#450=ORIENTED_EDGE('',*,*,#322,.F.);
#451=ORIENTED_EDGE('',*,*,#343,.F.);
#452=ORIENTED_EDGE('',*,*,#309,.F.);
#453=ORIENTED_EDGE('',*,*,#328,.F.);
#454=ORIENTED_EDGE('',*,*,#344,.T.);
#455=ORIENTED_EDGE('',*,*,#345,.T.);
#456=ORIENTED_EDGE('',*,*,#295,.T.);
#457=ORIENTED_EDGE('',*,*,#346,.T.);
#458=ORIENTED_EDGE('',*,*,#347,.T.);
#459=ORIENTED_EDGE('',*,*,#338,.T.);
#460=ORIENTED_EDGE('',*,*,#341,.T.);
#461=ORIENTED_EDGE('',*,*,#348,.F.);
#462=ORIENTED_EDGE('',*,*,#349,.T.);
#463=ORIENTED_EDGE('',*,*,#350,.T.);
#464=ORIENTED_EDGE('',*,*,#351,.T.);
#465=ORIENTED_EDGE('',*,*,#352,.T.);
#466=ORIENTED_EDGE('',*,*,#353,.T.);
#467=ORIENTED_EDGE('',*,*,#354,.T.);
#468=ORIENTED_EDGE('',*,*,#355,.T.);
#469=ORIENTED_EDGE('',*,*,#344,.F.);
#470=ORIENTED_EDGE('',*,*,#327,.F.);
#471=ORIENTED_EDGE('',*,*,#356,.F.);
#472=ORIENTED_EDGE('',*,*,#335,.F.);
#473=ORIENTED_EDGE('',*,*,#357,.F.);
#474=ORIENTED_EDGE('',*,*,#325,.F.);
#475=ORIENTED_EDGE('',*,*,#324,.F.);
#476=ORIENTED_EDGE('',*,*,#358,.T.);
#477=ORIENTED_EDGE('',*,*,#336,.T.);
#478=ORIENTED_EDGE('',*,*,#356,.T.);
#479=ORIENTED_EDGE('',*,*,#331,.T.);
#480=ORIENTED_EDGE('',*,*,#358,.F.);
#481=ORIENTED_EDGE('',*,*,#323,.F.);
#482=ORIENTED_EDGE('',*,*,#342,.T.);
#483=ORIENTED_EDGE('',*,*,#321,.F.);
#484=ORIENTED_EDGE('',*,*,#330,.F.);
#485=ORIENTED_EDGE('',*,*,#333,.T.);
#486=ORIENTED_EDGE('',*,*,#343,.T.);
#487=ORIENTED_EDGE('',*,*,#312,.F.);
#488=ORIENTED_EDGE('',*,*,#359,.T.);
#489=ORIENTED_EDGE('',*,*,#349,.F.);
#490=ORIENTED_EDGE('',*,*,#360,.T.);
#491=ORIENTED_EDGE('',*,*,#310,.F.);
#492=ORIENTED_EDGE('',*,*,#346,.F.);
#493=ORIENTED_EDGE('',*,*,#294,.T.);
#494=ORIENTED_EDGE('',*,*,#361,.T.);
#495=ORIENTED_EDGE('',*,*,#311,.F.);
#496=ORIENTED_EDGE('',*,*,#361,.F.);
#497=ORIENTED_EDGE('',*,*,#293,.T.);
#498=ORIENTED_EDGE('',*,*,#362,.T.);
#499=ORIENTED_EDGE('',*,*,#350,.F.);
#500=ORIENTED_EDGE('',*,*,#359,.F.);
#501=ORIENTED_EDGE('',*,*,#355,.F.);
#502=ORIENTED_EDGE('',*,*,#363,.T.);
#503=ORIENTED_EDGE('',*,*,#296,.F.);
#504=ORIENTED_EDGE('',*,*,#345,.F.);
#505=ORIENTED_EDGE('',*,*,#357,.T.);
#506=ORIENTED_EDGE('',*,*,#339,.T.);
#507=ORIENTED_EDGE('',*,*,#347,.F.);
#508=ORIENTED_EDGE('',*,*,#326,.F.);
#509=ORIENTED_EDGE('',*,*,#354,.F.);
#510=ORIENTED_EDGE('',*,*,#364,.T.);
#511=ORIENTED_EDGE('',*,*,#297,.F.);
#512=ORIENTED_EDGE('',*,*,#363,.F.);
#513=ORIENTED_EDGE('',*,*,#298,.F.);
#514=ORIENTED_EDGE('',*,*,#364,.F.);
#515=ORIENTED_EDGE('',*,*,#353,.F.);
#516=ORIENTED_EDGE('',*,*,#365,.T.);
#517=ORIENTED_EDGE('',*,*,#299,.F.);
#518=ORIENTED_EDGE('',*,*,#365,.F.);
#519=ORIENTED_EDGE('',*,*,#352,.F.);
#520=ORIENTED_EDGE('',*,*,#366,.T.);
#521=ORIENTED_EDGE('',*,*,#300,.F.);
#522=ORIENTED_EDGE('',*,*,#366,.F.);
#523=ORIENTED_EDGE('',*,*,#351,.F.);
#524=ORIENTED_EDGE('',*,*,#362,.F.);
#525=ORIENTED_EDGE('',*,*,#313,.F.);
#526=ORIENTED_EDGE('',*,*,#360,.F.);
#527=ORIENTED_EDGE('',*,*,#348,.T.);
#528=ORIENTED_EDGE('',*,*,#340,.F.);
#529=CONICAL_SURFACE('',#580,2.19790567294982,0.792379480397957);
#530=CONICAL_SURFACE('',#584,2.04999999999993,0.0139626340161709);
#531=CONICAL_SURFACE('',#593,2.14484380710918,0.778416846386937);
#532=CONICAL_SURFACE('',#600,2.45,0.785398163397449);
#533=CONICAL_SURFACE('',#604,2.45,0.785398163397447);
#534=CONICAL_SURFACE('',#619,5.00000000000079,0.0139626340159079);
#535=CONICAL_SURFACE('',#631,5.00000000000079,0.0139626340159079);
#536=ADVANCED_FACE('',(#56),#529,.F.);
#537=ADVANCED_FACE('',(#57),#530,.F.);
#538=ADVANCED_FACE('',(#58,#30,#31),#43,.T.);
#539=ADVANCED_FACE('',(#59),#531,.F.);
#540=ADVANCED_FACE('',(#60,#32,#33),#44,.T.);
#541=ADVANCED_FACE('',(#61),#532,.F.);
#542=ADVANCED_FACE('',(#62),#17,.F.);
#543=ADVANCED_FACE('',(#63),#533,.F.);
#544=ADVANCED_FACE('',(#64),#45,.T.);
#545=ADVANCED_FACE('',(#65),#18,.T.);
#546=ADVANCED_FACE('',(#66),#46,.F.);
#547=ADVANCED_FACE('',(#67),#19,.F.);
#548=ADVANCED_FACE('',(#68),#16,.T.);
#549=ADVANCED_FACE('',(#69),#20,.T.);
#550=ADVANCED_FACE('',(#70),#534,.T.);
#551=ADVANCED_FACE('',(#71),#47,.T.);
#552=ADVANCED_FACE('',(#72),#48,.F.);
#553=ADVANCED_FACE('',(#73),#21,.T.);
#554=ADVANCED_FACE('',(#74),#49,.T.);
#555=ADVANCED_FACE('',(#75),#50,.T.);
#556=ADVANCED_FACE('',(#76),#51,.T.);
#557=ADVANCED_FACE('',(#77),#52,.T.);
#558=ADVANCED_FACE('',(#78),#535,.T.);
#559=ADVANCED_FACE('',(#79),#22,.T.);
#560=ADVANCED_FACE('',(#80),#23,.F.);
#561=ADVANCED_FACE('',(#81),#53,.T.);
#562=ADVANCED_FACE('',(#82),#54,.T.);
#563=ADVANCED_FACE('',(#83),#55,.T.);
#564=ADVANCED_FACE('',(#84),#24,.T.);
#565=ADVANCED_FACE('',(#85),#15,.T.);
#566=CLOSED_SHELL('',(#536,#537,#538,#539,#540,#541,#542,#543,#544,#545,
#546,#547,#548,#549,#550,#551,#552,#553,#554,#555,#556,#557,#558,#559,#560,
#561,#562,#563,#564,#565));
#567=DERIVED_UNIT_ELEMENT(#569,1.);
#568=DERIVED_UNIT_ELEMENT(#1025,-3.);
#569=(
MASS_UNIT()
NAMED_UNIT(*)
SI_UNIT(.KILO.,.GRAM.)
);
#570=DERIVED_UNIT((#567,#568));
#571=MEASURE_REPRESENTATION_ITEM('density measure',
POSITIVE_RATIO_MEASURE(7850.),#570);
#572=PROPERTY_DEFINITION_REPRESENTATION(#577,#574);
#573=PROPERTY_DEFINITION_REPRESENTATION(#578,#575);
#574=REPRESENTATION('material name',(#576),#1022);
#575=REPRESENTATION('density',(#571),#1022);
#576=DESCRIPTIVE_REPRESENTATION_ITEM('Steel','Steel');
#577=PROPERTY_DEFINITION('material property','material name',#1032);
#578=PROPERTY_DEFINITION('material property','density of part',#1032);
#579=AXIS2_PLACEMENT_3D('',#802,#638,#639);
#580=AXIS2_PLACEMENT_3D('',#803,#640,#641);
#581=AXIS2_PLACEMENT_3D('',#805,#642,#643);
#582=AXIS2_PLACEMENT_3D('',#809,#645,#646);
#583=AXIS2_PLACEMENT_3D('',#810,#647,#648);
#584=AXIS2_PLACEMENT_3D('',#811,#649,#650);
#585=AXIS2_PLACEMENT_3D('',#814,#651,#652);
#586=AXIS2_PLACEMENT_3D('',#815,#653,#654);
#587=AXIS2_PLACEMENT_3D('',#817,#656,#657);
#588=AXIS2_PLACEMENT_3D('',#820,#658,#659);
#589=AXIS2_PLACEMENT_3D('',#824,#661,#662);
#590=AXIS2_PLACEMENT_3D('',#826,#663,#664);
#591=AXIS2_PLACEMENT_3D('',#833,#668,#669);
#592=AXIS2_PLACEMENT_3D('',#835,#670,#671);
#593=AXIS2_PLACEMENT_3D('',#836,#672,#673);
#594=AXIS2_PLACEMENT_3D('',#838,#674,#675);
#595=AXIS2_PLACEMENT_3D('',#840,#677,#678);
#596=AXIS2_PLACEMENT_3D('',#850,#679,#680);
#597=AXIS2_PLACEMENT_3D('',#858,#684,#685);
#598=AXIS2_PLACEMENT_3D('',#862,#687,#688);
#599=AXIS2_PLACEMENT_3D('',#876,#690,#691);
#600=AXIS2_PLACEMENT_3D('',#877,#692,#693);
#601=AXIS2_PLACEMENT_3D('',#880,#695,#696);
#602=AXIS2_PLACEMENT_3D('',#881,#697,#698);
#603=AXIS2_PLACEMENT_3D('',#884,#700,#701);
#604=AXIS2_PLACEMENT_3D('',#885,#702,#703);
#605=AXIS2_PLACEMENT_3D('',#887,#705,#706);
#606=AXIS2_PLACEMENT_3D('',#889,#707,#708);
#607=AXIS2_PLACEMENT_3D('',#893,#710,#711);
#608=AXIS2_PLACEMENT_3D('',#897,#713,#714);
#609=AXIS2_PLACEMENT_3D('',#901,#716,#717);
#610=AXIS2_PLACEMENT_3D('',#905,#720,#721);
#611=AXIS2_PLACEMENT_3D('',#907,#722,#723);
#612=AXIS2_PLACEMENT_3D('',#909,#725,#726);
#613=AXIS2_PLACEMENT_3D('',#914,#728,#729);
#614=AXIS2_PLACEMENT_3D('',#920,#733,#734);
#615=AXIS2_PLACEMENT_3D('',#921,#735,#736);
#616=AXIS2_PLACEMENT_3D('',#923,#737,#738);
#617=AXIS2_PLACEMENT_3D('',#925,#739,#740);
#618=AXIS2_PLACEMENT_3D('',#950,#742,#743);
#619=AXIS2_PLACEMENT_3D('',#953,#746,#747);
#620=AXIS2_PLACEMENT_3D('',#955,#748,#749);
#621=AXIS2_PLACEMENT_3D('',#958,#752,#753);
#622=AXIS2_PLACEMENT_3D('',#974,#756,#757);
#623=AXIS2_PLACEMENT_3D('',#976,#758,#759);
#624=AXIS2_PLACEMENT_3D('',#983,#763,#764);
#625=AXIS2_PLACEMENT_3D('',#984,#765,#766);
#626=AXIS2_PLACEMENT_3D('',#987,#769,#770);
#627=AXIS2_PLACEMENT_3D('',#989,#772,#773);
#628=AXIS2_PLACEMENT_3D('',#990,#774,#775);
#629=AXIS2_PLACEMENT_3D('',#991,#776,#777);
#630=AXIS2_PLACEMENT_3D('',#994,#780,#781);
#631=AXIS2_PLACEMENT_3D('',#996,#783,#784);
#632=AXIS2_PLACEMENT_3D('',#998,#786,#787);
#633=AXIS2_PLACEMENT_3D('',#1000,#789,#790);
#634=AXIS2_PLACEMENT_3D('',#1001,#791,#792);
#635=AXIS2_PLACEMENT_3D('',#1003,#794,#795);
#636=AXIS2_PLACEMENT_3D('',#1005,#797,#798);
#637=AXIS2_PLACEMENT_3D('',#1007,#800,#801);
#638=DIRECTION('axis',(0.,0.,1.));
#639=DIRECTION('refdir',(1.,0.,0.));
#640=DIRECTION('center_axis',(0.,4.17606759362003E-16,1.));
#641=DIRECTION('ref_axis',(-1.,-2.84975414009913E-17,0.));
#642=DIRECTION('center_axis',(0.,0.,1.));
#643=DIRECTION('ref_axis',(-1.,0.,0.));
#644=DIRECTION('',(-0.712026045985752,-4.0071289457633E-16,-0.70215305300048));
#645=DIRECTION('center_axis',(0.,0.,-1.));
#646=DIRECTION('ref_axis',(-1.,-6.12323399573677E-17,0.));
#647=DIRECTION('center_axis',(0.,0.,-1.));
#648=DIRECTION('ref_axis',(-1.,-6.12323399573677E-17,0.));
#649=DIRECTION('center_axis',(0.,0.,1.));
#650=DIRECTION('ref_axis',(1.,0.,0.));
#651=DIRECTION('center_axis',(0.,0.,1.));
#652=DIRECTION('ref_axis',(-1.,-6.12323399573677E-17,0.));
#653=DIRECTION('center_axis',(0.,0.,1.));
#654=DIRECTION('ref_axis',(-1.,-6.12323399573677E-17,0.));
#655=DIRECTION('',(-0.0139621803393615,-1.70987394617172E-18,0.999902524009301));
#656=DIRECTION('center_axis',(0.,0.,1.));
#657=DIRECTION('ref_axis',(1.,0.,0.));
#658=DIRECTION('center_axis',(0.,0.,-1.));
#659=DIRECTION('ref_axis',(1.,1.78057788017922E-15,0.));
#660=DIRECTION('',(-2.89064217446766E-16,1.,-4.03636018179318E-18));
#661=DIRECTION('center_axis',(0.,0.,-1.));
#662=DIRECTION('ref_axis',(1.,1.78057788017922E-15,0.));
#663=DIRECTION('center_axis',(0.,0.,-1.));
#664=DIRECTION('ref_axis',(0.290513035459894,0.956871034271536,0.));
#665=DIRECTION('',(1.,0.,0.));
#666=DIRECTION('',(0.,1.,0.));
#667=DIRECTION('',(-1.,0.,0.));
#668=DIRECTION('center_axis',(0.,0.,-1.));
#669=DIRECTION('ref_axis',(0.290591607628492,-0.956847175663851,0.));
#670=DIRECTION('center_axis',(0.,0.,1.));
#671=DIRECTION('ref_axis',(1.,0.,0.));
#672=DIRECTION('center_axis',(0.,4.07630383189201E-16,-1.));
#673=DIRECTION('ref_axis',(-1.,-2.85049182368032E-17,0.));
#674=DIRECTION('center_axis',(0.,0.,-1.));
#675=DIRECTION('ref_axis',(-1.,0.,0.));
#676=DIRECTION('',(-0.702153052993358,-2.24269316448038E-16,0.712026045992776));
#677=DIRECTION('center_axis',(0.,0.,-1.));
#678=DIRECTION('ref_axis',(-1.,0.,0.));
#679=DIRECTION('center_axis',(0.,0.,1.));
#680=DIRECTION('ref_axis',(1.,0.,0.));
#681=DIRECTION('',(1.,0.,0.));
#682=DIRECTION('',(1.44560289664734E-16,-1.,0.));
#683=DIRECTION('',(-1.,-3.33600668457079E-17,0.));
#684=DIRECTION('center_axis',(0.,0.,-1.));
#685=DIRECTION('ref_axis',(1.,0.,0.));
#686=DIRECTION('',(-2.89120579329468E-16,1.,0.));
#687=DIRECTION('center_axis',(0.,0.,-1.));
#688=DIRECTION('ref_axis',(1.,0.,0.));
#689=DIRECTION('',(1.,1.66800334228539E-16,0.));
#690=DIRECTION('center_axis',(0.,0.,-1.));
#691=DIRECTION('ref_axis',(1.,0.,0.));
#692=DIRECTION('center_axis',(0.,0.,-1.));
#693=DIRECTION('ref_axis',(1.,0.,0.));
#694=DIRECTION('',(0.707106781186548,-8.65956056235494E-17,0.707106781186547));
#695=DIRECTION('center_axis',(0.,0.,1.));
#696=DIRECTION('ref_axis',(1.,0.,0.));
#697=DIRECTION('center_axis',(0.,0.,1.));
#698=DIRECTION('ref_axis',(1.,0.,0.));
#699=DIRECTION('',(0.,0.,1.));
#700=DIRECTION('center_axis',(0.,0.,-1.));
#701=DIRECTION('ref_axis',(1.,0.,0.));
#702=DIRECTION('center_axis',(0.,0.,1.));
#703=DIRECTION('ref_axis',(1.,0.,0.));
#704=DIRECTION('',(0.707106781186547,8.65956056235493E-17,-0.707106781186548));
#705=DIRECTION('center_axis',(3.33568150401424E-17,-0.999902524009304,-0.0139621803391453));
#706=DIRECTION('ref_axis',(0.,0.0139621803391453,-0.999902524009304));
#707=DIRECTION('center_axis',(3.33568150401424E-17,-0.999902524009304,-0.0139621803391453));
#708=DIRECTION('ref_axis',(2.0183768341781E-18,-0.0139621803391453,0.999902524009304));
#709=DIRECTION('',(0.0139608196270576,-0.013960819627058,0.999805076517759));
#710=DIRECTION('center_axis',(-3.33568150401424E-17,0.999902524009304,0.0139621803391453));
#711=DIRECTION('ref_axis',(2.0183768341781E-18,-0.0139621803391453,0.999902524009304));
#712=DIRECTION('',(-1.,-3.33535635515499E-17,-4.65733867129982E-19));
#713=DIRECTION('center_axis',(3.33568150401424E-17,-0.999902524009304,-0.0139621803391453));
#714=DIRECTION('ref_axis',(2.0183768341781E-18,-0.0139621803391453,0.999902524009304));
#715=DIRECTION('',(-0.0139608196270584,0.013960819627058,-0.999805076517759));
#716=DIRECTION('center_axis',(-3.33568150401424E-17,0.999902524009304,0.0139621803391453));
#717=DIRECTION('ref_axis',(2.0183768341781E-18,-0.0139621803391453,0.999902524009304));
#718=DIRECTION('',(-1.,-3.33535635515499E-17,-4.65733867129982E-19));
#719=DIRECTION('',(0.,0.0139621803391453,-0.999902524009304));
#720=DIRECTION('center_axis',(-1.44560289664734E-16,1.,0.));
#721=DIRECTION('ref_axis',(-1.,-1.44560289664734E-16,0.));
#722=DIRECTION('center_axis',(1.44560289664734E-16,-1.,0.));
#723=DIRECTION('ref_axis',(-1.,-1.44560289664734E-16,0.));
#724=DIRECTION('',(1.44560289664734E-16,-1.,0.));
#725=DIRECTION('center_axis',(0.,-1.,0.));
#726=DIRECTION('ref_axis',(0.,0.,-1.));
#727=DIRECTION('',(-1.,0.,0.));
#728=DIRECTION('center_axis',(1.44560289664734E-16,-1.,0.));
#729=DIRECTION('ref_axis',(1.,1.44560289664734E-16,0.));
#730=DIRECTION('',(0.0139621803391453,0.,0.999902524009304));
#731=DIRECTION('',(0.,0.,1.));
#732=DIRECTION('',(0.013962180339142,0.,0.999902524009304));
#733=DIRECTION('center_axis',(1.44560289664734E-16,-1.,0.));
#734=DIRECTION('ref_axis',(-1.,-1.44560289664734E-16,1.73472347597681E-15));
#735=DIRECTION('center_axis',(0.,0.,1.));
#736=DIRECTION('ref_axis',(1.,0.,0.));
#737=DIRECTION('center_axis',(3.2740668022376E-13,-0.999908988208199,0.0134913046239539));
#738=DIRECTION('ref_axis',(6.26364407853161E-5,-0.0134913045974885,-0.999908986246715));
#739=DIRECTION('center_axis',(0.,0.,-1.));
#740=DIRECTION('ref_axis',(1.,0.,0.));
#741=DIRECTION('',(-0.0139608723139022,0.999902542273113,0.));
#742=DIRECTION('center_axis',(1.44560289664734E-16,-1.,0.));
#743=DIRECTION('ref_axis',(1.,1.44560289664734E-16,0.));
#744=DIRECTION('',(0.,1.,0.));
#745=DIRECTION('',(1.44532108723383E-16,-1.,-2.01818009089659E-18));
#746=DIRECTION('center_axis',(0.,0.,1.));
#747=DIRECTION('ref_axis',(1.,0.,0.));
#748=DIRECTION('center_axis',(0.,0.,-1.));
#749=DIRECTION('ref_axis',(1.,0.,0.));
#750=DIRECTION('',(0.00401450905270268,0.0141126030930403,-0.999892353281594));
#751=DIRECTION('',(0.0139621803391453,0.,-0.999902524009304));
#752=DIRECTION('center_axis',(0.,0.,1.));
#753=DIRECTION('ref_axis',(1.,0.,0.));
#754=DIRECTION('',(0.,1.,0.));
#755=DIRECTION('',(-1.,0.,0.));
#756=DIRECTION('center_axis',(0.,0.,1.));
#757=DIRECTION('ref_axis',(1.,0.,0.));
#758=DIRECTION('center_axis',(0.,0.,1.));
#759=DIRECTION('ref_axis',(0.290591607628492,-0.956847175663851,0.));
#760=DIRECTION('',(1.,0.,0.));
#761=DIRECTION('',(0.,-1.,0.));
#762=DIRECTION('',(-1.,0.,0.));
#763=DIRECTION('center_axis',(0.,0.,1.));
#764=DIRECTION('ref_axis',(0.290513035459894,0.956871034271536,0.));
#765=DIRECTION('center_axis',(0.999902524009304,1.44546198507284E-16,-0.013962180339142));
#766=DIRECTION('ref_axis',(-0.013962180339142,-3.85185988877447E-34,-0.999902524009304));
#767=DIRECTION('',(1.44532108723383E-16,-1.,-2.01818009089611E-18));
#768=DIRECTION('',(-1.44532108723383E-16,1.,2.01818009089611E-18));
#769=DIRECTION('center_axis',(-1.44560289664734E-16,1.,0.));
#770=DIRECTION('ref_axis',(-1.,-1.44560289664734E-16,0.));
#771=DIRECTION('',(-1.44560289664734E-16,1.,0.));
#772=DIRECTION('center_axis',(0.,0.,1.));
#773=DIRECTION('ref_axis',(1.,0.,0.));
#774=DIRECTION('center_axis',(0.999902524009304,1.44546198507284E-16,-0.0139621803391453));
#775=DIRECTION('ref_axis',(-0.0139621803391453,0.,-0.999902524009304));
#776=DIRECTION('center_axis',(-1.66784075200712E-16,0.999902524009304,-0.0139621803391453));
#777=DIRECTION('ref_axis',(0.,0.0139621803391453,0.999902524009304));
#778=DIRECTION('',(0.,0.0139621803391453,0.999902524009304));
#779=DIRECTION('',(0.000255614552797024,-0.0139621798830092,-0.999902491343088));
#780=DIRECTION('center_axis',(-0.999902524009304,-2.89092397014567E-16,
-0.0139621803391453));
#781=DIRECTION('ref_axis',(-0.0139621803391453,7.70371977754894E-34,0.999902524009304));
#782=DIRECTION('',(0.0139621803391453,0.,-0.999902524009304));
#783=DIRECTION('center_axis',(0.,0.,1.));
#784=DIRECTION('ref_axis',(1.,0.,0.));
#785=DIRECTION('',(-0.00401450905261387,0.0141126030928938,0.999892353281597));
#786=DIRECTION('center_axis',(-0.00423898185199899,-0.0139620548956016,
0.999893540361148));
#787=DIRECTION('ref_axis',(8.88178331715064E-13,0.999902524009304,0.0139621803391481));
#788=DIRECTION('',(0.00423783819668377,0.0139620549632882,-0.999893545207999));
#789=DIRECTION('center_axis',(1.44560289664734E-16,-1.,0.));
#790=DIRECTION('ref_axis',(1.,1.44560289664734E-16,0.));
#791=DIRECTION('center_axis',(0.,0.999902524009304,0.0139621803391453));
#792=DIRECTION('ref_axis',(0.,-0.0139621803391453,0.999902524009304));
#793=DIRECTION('',(-0.0139608196270592,0.0139608196270574,-0.999805076517759));
#794=DIRECTION('center_axis',(-0.999902524009304,0.,0.0139621803391453));
#795=DIRECTION('ref_axis',(0.0139621803391453,0.,0.999902524009304));
#796=DIRECTION('',(-0.0139608196270592,-0.0139608196270574,-0.999805076517759));
#797=DIRECTION('center_axis',(0.,-0.999902524009304,0.0139621803391453));
#798=DIRECTION('ref_axis',(0.,-0.0139621803391453,-0.999902524009304));
#799=DIRECTION('',(0.0042396369862454,-0.0139620548568236,-0.999893537584077));
#800=DIRECTION('center_axis',(0.00424023403063555,-0.0139620548214758,-0.999893535052871));
#801=DIRECTION('ref_axis',(3.03460929982896E-13,-0.999902524009304,0.0139621803391424));
#802=CARTESIAN_POINT('',(0.,0.,0.));
#803=CARTESIAN_POINT('Origin',(-8.5,-6.26349079103612E-17,4.85001462139633));
#804=CARTESIAN_POINT('',(-6.14999999999927,2.87791997799717E-16,5.));
#805=CARTESIAN_POINT('Origin',(-8.5,0.,5.));
#806=CARTESIAN_POINT('',(-6.45418865410108,-2.50539631641445E-16,4.70002924279266));
#807=CARTESIAN_POINT('',(-6.30209432705018,2.69165814720581E-16,4.85001462139633));
#808=CARTESIAN_POINT('',(-10.5458113458989,-2.50539631641445E-16,4.70002924279266));
#809=CARTESIAN_POINT('Origin',(-8.5,-1.25269815820722E-16,4.70002924279266));
#810=CARTESIAN_POINT('Origin',(-8.5,-1.25269815820722E-16,4.70002924279266));
#811=CARTESIAN_POINT('Origin',(-8.5,0.,4.99999999993861));
#812=CARTESIAN_POINT('',(-6.50306186583991,2.44554389409444E-16,1.19997075720425));
#813=CARTESIAN_POINT('',(-10.4969381341601,-2.44554389409444E-16,1.19997075720425));
#814=CARTESIAN_POINT('Origin',(-8.5,-1.22277194704722E-16,1.19997075720425));
#815=CARTESIAN_POINT('Origin',(-8.5,-1.22277194704722E-16,1.19997075720425));
#816=CARTESIAN_POINT('',(-10.5499999999999,-2.51052593825199E-16,4.99999999993861));
#817=CARTESIAN_POINT('Origin',(0.,0.,5.));
#818=CARTESIAN_POINT('',(-12.9930182292754,0.999999999999997,4.99999999999773));
#819=CARTESIAN_POINT('',(-10.7772156186534,5.14937403301079,4.99999999984908));
#820=CARTESIAN_POINT('Origin',(-8.,0.999999999999998,4.99999999999545));
#821=CARTESIAN_POINT('',(-12.993018229276,-1.,4.99999999998238));
#822=CARTESIAN_POINT('',(-12.9930182292754,-3.75856753128308E-15,5.));
#823=CARTESIAN_POINT('',(-10.7772156662596,-5.14937410413859,4.99999999969127));
#824=CARTESIAN_POINT('Origin',(-8.,-1.,4.99999999999545));
#825=CARTESIAN_POINT('',(-10.6103310569285,-4.59999999999994,4.99999999999268));
#826=CARTESIAN_POINT('Origin',(-10.6103485254371,-4.90002927536957,5.));
#827=CARTESIAN_POINT('',(11.7,-4.6,5.));
#828=CARTESIAN_POINT('',(0.,-4.6,5.));
#829=CARTESIAN_POINT('',(11.7,4.6,5.));
#830=CARTESIAN_POINT('',(11.7,0.,5.));
#831=CARTESIAN_POINT('',(-10.6103303862873,4.6,5.));
#832=CARTESIAN_POINT('',(0.,4.6,5.));
#833=CARTESIAN_POINT('Origin',(-10.6103482123534,4.9000292753891,5.));
#834=CARTESIAN_POINT('',(4.9,-3.18408167778312E-16,5.));
#835=CARTESIAN_POINT('Origin',(7.5,0.,5.));
#836=CARTESIAN_POINT('Origin',(-8.5,-6.11385973523609E-17,1.04998537860212));
#837=CARTESIAN_POINT('',(-6.20725051994172,-2.80780831200013E-16,0.9));
#838=CARTESIAN_POINT('Origin',(-8.5,0.,0.9));
#839=CARTESIAN_POINT('',(-6.35515619289082,-2.62667610304728E-16,1.04998537860212));
#840=CARTESIAN_POINT('Origin',(-8.5,0.,0.9));
#841=CARTESIAN_POINT('',(12.938051046067,5.44270042280533,0.899999999997079));
#842=CARTESIAN_POINT('',(13.0009779454191,0.937463364135288,0.899999999999999));
#843=CARTESIAN_POINT('Ctrl Pts',(12.9380510594493,5.44270042299225,0.9));
#844=CARTESIAN_POINT('Ctrl Pts',(12.9485397944282,4.69176488690549,0.9));
#845=CARTESIAN_POINT('Ctrl Pts',(12.9590285073183,3.94082935051022,0.899999999762804));
#846=CARTESIAN_POINT('Ctrl Pts',(12.980004136156,2.43908366423107,0.899999999762804));
#847=CARTESIAN_POINT('Ctrl Pts',(12.9904910521112,1.6882735143473,0.900000000000003));
#848=CARTESIAN_POINT('Ctrl Pts',(13.0009779445658,0.937463364135287,0.900000000000003));
#849=CARTESIAN_POINT('',(15.,-1.,0.9));
#850=CARTESIAN_POINT('Origin',(15.,0.999999999999998,0.9));
#851=CARTESIAN_POINT('',(22.9320540150921,-1.,0.9));
#852=CARTESIAN_POINT('',(3.25,-1.,0.900000000000001));
#853=CARTESIAN_POINT('',(22.9320540150921,-5.93576770933377,0.9));
#854=CARTESIAN_POINT('',(22.9320540150921,3.31506437102904E-15,0.9));
#855=CARTESIAN_POINT('',(-8.,-5.93576770933377,0.9));
#856=CARTESIAN_POINT('',(-4.25,-5.93576770933377,0.900000000000001));
#857=CARTESIAN_POINT('',(-12.9357677093347,-1.,0.9));
#858=CARTESIAN_POINT('Origin',(-8.,-1.,0.9));
#859=CARTESIAN_POINT('',(-12.9357677093338,0.999999999999997,0.9));
#860=CARTESIAN_POINT('',(-12.9357677093338,-2.51123419204376E-15,0.900000000000001));
#861=CARTESIAN_POINT('',(-8.,5.93576770933376,0.9));
#862=CARTESIAN_POINT('Origin',(-8.,0.999999999999998,0.9));
#863=CARTESIAN_POINT('',(12.4382912950318,5.93576770933377,0.9));
#864=CARTESIAN_POINT('',(-4.25,5.93576770933376,0.900000000000001));
#865=CARTESIAN_POINT('Ctrl Pts',(12.4382912950171,5.93576767149203,0.9));
#866=CARTESIAN_POINT('Ctrl Pts',(12.5015038094675,5.93574307689288,0.9));
#867=CARTESIAN_POINT('Ctrl Pts',(12.5641422589156,5.9237300682826,0.9));
#868=CARTESIAN_POINT('Ctrl Pts',(12.682536813924,5.87663736441055,0.9));
#869=CARTESIAN_POINT('Ctrl Pts',(12.7370681853299,5.84163790431624,0.9));
#870=CARTESIAN_POINT('Ctrl Pts',(12.8317755858411,5.7511502713212,0.9));
#871=CARTESIAN_POINT('Ctrl Pts',(12.8703338354803,5.69580531885524,0.900000000000001));
#872=CARTESIAN_POINT('Ctrl Pts',(12.9231364973059,5.57393095032502,0.900000000000001));
#873=CARTESIAN_POINT('Ctrl Pts',(12.9371287534459,5.50873148359335,0.900000000000001));
#874=CARTESIAN_POINT('Ctrl Pts',(12.938051046067,5.44270042280541,0.900000000000001));
#875=CARTESIAN_POINT('',(4.9,3.18408167778312E-16,0.9));
#876=CARTESIAN_POINT('Origin',(7.5,0.,0.9));
#877=CARTESIAN_POINT('Origin',(7.5,0.,1.05));
#878=CARTESIAN_POINT('',(5.2,-2.81668763803891E-16,1.2));
#879=CARTESIAN_POINT('',(5.05,3.00038465791102E-16,1.05));
#880=CARTESIAN_POINT('Origin',(7.5,0.,1.2));
#881=CARTESIAN_POINT('Origin',(7.5,0.,-5.));
#882=CARTESIAN_POINT('',(5.2,2.81668763803891E-16,4.7));
#883=CARTESIAN_POINT('',(5.2,-2.81668763803891E-16,-5.));
#884=CARTESIAN_POINT('Origin',(7.5,0.,4.7));
#885=CARTESIAN_POINT('Origin',(7.5,0.,4.85));
#886=CARTESIAN_POINT('',(5.05,-3.00038465791102E-16,4.85));
#887=CARTESIAN_POINT('Origin',(2.00160401074247E-16,-6.,5.5));
#888=CARTESIAN_POINT('',(22.9369691019948,-5.9369691019948,0.986037819660854));
#889=CARTESIAN_POINT('Origin',(21.9370665779855,-5.93716406347868,1.));
#890=CARTESIAN_POINT('',(23.1184951408341,-6.11849514083416,13.9860378196609));
#891=CARTESIAN_POINT('',(22.9369691019948,-5.9369691019948,0.986037819660855));
#892=CARTESIAN_POINT('',(22.1185926168248,-6.13265364376723,15.));
#893=CARTESIAN_POINT('Origin',(22.1185926168248,-6.11869010231805,14.));
#894=CARTESIAN_POINT('',(16.1118058170866,-6.13265364376723,15.));
#895=CARTESIAN_POINT('',(2.00160401074247E-16,-6.13265364376723,15.));
#896=CARTESIAN_POINT('',(15.1119032930773,-6.11888506380193,14.0139621803391));
#897=CARTESIAN_POINT('Origin',(16.1118058170866,-6.11869010231805,14.));
#898=CARTESIAN_POINT('',(15.,-6.00698177072459,6.00000000000006));
#899=CARTESIAN_POINT('',(15.1119032930773,-6.11888506380193,14.0139621803391));
#900=CARTESIAN_POINT('',(14.5,-6.,5.5));
#901=CARTESIAN_POINT('Origin',(14.5,-6.00698177072459,6.));
#902=CARTESIAN_POINT('',(-8.,-5.99999999999989,5.49999999999181));
#903=CARTESIAN_POINT('',(2.00160401074247E-16,-6.,5.5));
#904=CARTESIAN_POINT('',(-8.,-6.,5.5));
#905=CARTESIAN_POINT('Origin',(21.9370665779855,3.17122869890814E-15,1.));
#906=CARTESIAN_POINT('',(22.9369691019948,-1.,0.986037819660854));
#907=CARTESIAN_POINT('Origin',(21.9370665779855,-1.,1.));
#908=CARTESIAN_POINT('',(22.9369691019948,3.31577489741542E-15,0.986037819660853));
#909=CARTESIAN_POINT('Origin',(15.,-1.,10.8851648071345));
#910=CARTESIAN_POINT('',(22.1185926168248,-1.,15.));
#911=CARTESIAN_POINT('',(16.1118058170866,-0.999999999999999,15.));
#912=CARTESIAN_POINT('',(15.,-0.999999999999999,15.));
#913=CARTESIAN_POINT('',(23.1184951408341,-1.,13.9860378196609));
#914=CARTESIAN_POINT('Origin',(22.1185926168248,-1.,14.));
#915=CARTESIAN_POINT('',(23.,-1.,5.5));
#916=CARTESIAN_POINT('',(15.,-1.,5.99999999999889));
#917=CARTESIAN_POINT('',(15.,-1.,5.5));
#918=CARTESIAN_POINT('',(15.1119032930773,-1.,14.0139621803391));
#919=CARTESIAN_POINT('',(15.1256718730426,-1.,15.));
#920=CARTESIAN_POINT('Origin',(16.1118058170866,-1.,14.));
#921=CARTESIAN_POINT('Origin',(15.,0.999999999999998,5.5));
#922=CARTESIAN_POINT('',(13.0000000546173,0.999529014111522,5.50000000000002));
#923=CARTESIAN_POINT('Origin',(14.500126071789,0.990716044296885,4.84682612419298));
#924=CARTESIAN_POINT('',(14.5,-0.93649167310371,5.5));
#925=CARTESIAN_POINT('Origin',(15.,0.999999999999998,5.5));
#926=CARTESIAN_POINT('Ctrl Pts',(15.,-1.,5.99999999999889));
#927=CARTESIAN_POINT('Ctrl Pts',(14.9999999999999,-1.,5.93719256348788));
#928=CARTESIAN_POINT('Ctrl Pts',(14.9874411033026,-1.00012348558499,5.87020380534105));
#929=CARTESIAN_POINT('Ctrl Pts',(14.9363941474745,-0.999151315047727,5.74700587422027));
#930=CARTESIAN_POINT('Ctrl Pts',(14.8979052248329,-0.997887470746103,5.6907984436464));
#931=CARTESIAN_POINT('Ctrl Pts',(14.8086202547264,-0.991332132833683,5.60151347353983));
#932=CARTESIAN_POINT('Ctrl Pts',(14.7517503261369,-0.985517710508147,5.56287296904635));
#933=CARTESIAN_POINT('Ctrl Pts',(14.6282258833462,-0.966136436705784,5.51213077137912));
#934=CARTESIAN_POINT('Ctrl Pts',(14.5616100909128,-0.952399330174611,5.5));
#935=CARTESIAN_POINT('Ctrl Pts',(14.5,-0.93649167310371,5.5));
#936=CARTESIAN_POINT('Ctrl Pts',(13.0015386265464,0.921564428898162,-0.278350699925336));
#937=CARTESIAN_POINT('Ctrl Pts',(13.0004577010645,0.949104905660038,1.76281366640629));
#938=CARTESIAN_POINT('Ctrl Pts',(12.9999461704828,0.97666772848787,3.80563421298299));
#939=CARTESIAN_POINT('Ctrl Pts',(13.0000044718508,1.00422934783651,5.84836556361533));
#940=CARTESIAN_POINT('Ctrl Pts',(12.9317746309894,5.91833895307425,-0.348161601621063));
#941=CARTESIAN_POINT('Ctrl Pts',(12.930655971638,5.94684083630812,1.69300276471057));
#942=CARTESIAN_POINT('Ctrl Pts',(12.9301265841101,5.97536584568348,3.73582331128727));
#943=CARTESIAN_POINT('Ctrl Pts',(12.930186920712,6.00388960956758,5.77855466191961));
#944=CARTESIAN_POINT('',(12.9370666099871,5.50693300958011,5.50000000000844));
#945=CARTESIAN_POINT('Ctrl Pts',(12.938051046067,5.44270042280537,0.899999999997077));
#946=CARTESIAN_POINT('Ctrl Pts',(12.9373917530194,5.4641055929795,2.4328454113997));
#947=CARTESIAN_POINT('Ctrl Pts',(12.9370635356279,5.48551989230037,3.96642492402678));
#948=CARTESIAN_POINT('Ctrl Pts',(12.9370665997525,5.506933009437,5.50000000001046));
#949=CARTESIAN_POINT('',(13.0000000554569,0.999529014111489,5.5));
#950=CARTESIAN_POINT('Origin',(22.1185926168248,3.19747015566445E-15,14.));
#951=CARTESIAN_POINT('',(22.1185926168248,-1.,15.));
#952=CARTESIAN_POINT('',(23.1184951408341,3.32488666228888E-15,13.9860378196609));
#953=CARTESIAN_POINT('Origin',(-8.,-1.,5.49999999998363));
#954=CARTESIAN_POINT('',(-10.7792230906429,-5.15643109630311,5.49999999983936));
#955=CARTESIAN_POINT('Origin',(-8.,-1.,5.49999999998363));
#956=CARTESIAN_POINT('',(-10.7792230658592,-5.1564310592382,5.49999999999181));
#957=CARTESIAN_POINT('',(-12.993018229276,-1.,4.99999999998238));
#958=CARTESIAN_POINT('Origin',(0.,0.,5.5));
#959=CARTESIAN_POINT('',(14.5,0.,5.5));
#960=CARTESIAN_POINT('',(12.4371153534256,6.,5.5));
#961=CARTESIAN_POINT('Ctrl Pts',(12.4371153534256,6.,5.5));
#962=CARTESIAN_POINT('Ctrl Pts',(12.5029668716045,5.99999999999671,5.5));
#963=CARTESIAN_POINT('Ctrl Pts',(12.5681738118709,5.98698947472875,5.5));
#964=CARTESIAN_POINT('Ctrl Pts',(12.6883596430511,5.9370415467626,5.5));
#965=CARTESIAN_POINT('Ctrl Pts',(12.7424220024749,5.90114114899618,5.49999999999999));
#966=CARTESIAN_POINT('Ctrl Pts',(12.8339829561678,5.81083590607819,5.49999999999999));
#967=CARTESIAN_POINT('Ctrl Pts',(12.8706273486657,5.75727265836855,5.5));
#968=CARTESIAN_POINT('Ctrl Pts',(12.9222329545661,5.63779116155073,5.5));
#969=CARTESIAN_POINT('Ctrl Pts',(12.9361473127192,5.57277453853782,5.5));
#970=CARTESIAN_POINT('Ctrl Pts',(12.9370665997525,5.50693300943722,5.5));
#971=CARTESIAN_POINT('',(-8.,5.99999999999988,5.49999999999181));
#972=CARTESIAN_POINT('',(0.,6.,5.5));
#973=CARTESIAN_POINT('',(-10.7792231398269,5.15643116986023,5.4999999996774));
#974=CARTESIAN_POINT('Origin',(-8.,0.999999999999998,5.49999999998363));
#975=CARTESIAN_POINT('',(-10.6124504304855,4.60698177072459,5.5));
#976=CARTESIAN_POINT('Origin',(-10.6124685551109,4.90701104611369,5.5));
#977=CARTESIAN_POINT('',(11.7069817707246,4.60698177072459,5.5));
#978=CARTESIAN_POINT('',(0.,4.60698177072459,5.5));
#979=CARTESIAN_POINT('',(11.7069817707246,-4.60698177072459,5.5));
#980=CARTESIAN_POINT('',(11.7069817707246,0.,5.5));
#981=CARTESIAN_POINT('',(-10.612450204825,-4.60698177072472,5.50000000000625));
#982=CARTESIAN_POINT('',(0.,-4.60698177072459,5.5));
#983=CARTESIAN_POINT('Origin',(-10.6124682420273,-4.90701104609416,5.5));
#984=CARTESIAN_POINT('Origin',(15.1256718730426,-1.,15.));
#985=CARTESIAN_POINT('',(15.1119032930773,-1.,14.0139621803391));
#986=CARTESIAN_POINT('',(15.,-1.,6.));
#987=CARTESIAN_POINT('Origin',(16.1118058170866,-1.,14.));
#988=CARTESIAN_POINT('',(16.1118058170866,-1.,15.));
#989=CARTESIAN_POINT('Origin',(15.,-1.,15.));
#990=CARTESIAN_POINT('Origin',(23.,3.32488666228888E-15,5.5));
#991=CARTESIAN_POINT('Origin',(-1.00080200537124E-15,6.,5.5));
#992=CARTESIAN_POINT('',(-8.,6.,5.5));
#993=CARTESIAN_POINT('',(12.4371153534244,6.,5.5));
#994=CARTESIAN_POINT('Origin',(-13.,-3.75856753128308E-15,5.5));
#995=CARTESIAN_POINT('',(-13.,0.999999999999997,5.5));
#996=CARTESIAN_POINT('Origin',(-8.,0.999999999999998,5.49999999998363));
#997=CARTESIAN_POINT('',(-10.7772155952353,5.14937399802236,4.99999999999773));
#998=CARTESIAN_POINT('Origin',(-10.6114083837264,-4.9035201607129,5.24999999864214));
#999=CARTESIAN_POINT('',(-10.6114083837262,-4.60354937379429,5.25418865315882));
#1000=CARTESIAN_POINT('Origin',(14.5,2.09612420013864E-15,6.));
#1001=CARTESIAN_POINT('Origin',(-28.7,-4.6,5.));
#1002=CARTESIAN_POINT('',(11.7069817707246,-4.60698177072459,5.5));
#1003=CARTESIAN_POINT('Origin',(11.7,4.6,5.));
#1004=CARTESIAN_POINT('',(11.7069817707246,4.60698177072459,5.5));
#1005=CARTESIAN_POINT('Origin',(-28.7,4.6,5.));
#1006=CARTESIAN_POINT('',(-10.6124504304855,4.60698177072459,5.5));
#1007=CARTESIAN_POINT('Origin',(-10.6114083837264,4.90352016073243,5.24999999864187));
#1008=CARTESIAN_POINT('Ctrl Pts',(12.4385421045039,5.92263941335581,-0.0401838370110022));
#1009=CARTESIAN_POINT('Ctrl Pts',(12.9316101896177,5.92264297816677,-0.0399285428242867));
#1010=CARTESIAN_POINT('Ctrl Pts',(12.938493316174,5.42967098018128,-0.0330413433492041));
#1011=CARTESIAN_POINT('Ctrl Pts',(12.4375800401451,5.94858007210278,1.81755825809996));
#1012=CARTESIAN_POINT('Ctrl Pts',(12.930646169402,5.94858238174837,1.8177236624945));
#1013=CARTESIAN_POINT('Ctrl Pts',(12.9375312687199,5.45561244886282,1.82461335083256));
#1014=CARTESIAN_POINT('Ctrl Pts',(12.4371048358897,5.97452073422267,3.6753005947623));
#1015=CARTESIAN_POINT('Ctrl Pts',(12.9301706090378,5.97452192776452,3.67538607036666));
#1016=CARTESIAN_POINT('Ctrl Pts',(12.9370560814032,5.48155227526736,3.68226852279797));
#1017=CARTESIAN_POINT('Ctrl Pts',(12.4371154916949,6.00046139644626,5.53304293885147));
#1018=CARTESIAN_POINT('Ctrl Pts',(12.930182508484,6.00046135696256,5.53304011122383));
#1019=CARTESIAN_POINT('Ctrl Pts',(12.9370667543252,5.50749045869598,5.53992369130773));
#1020=UNCERTAINTY_MEASURE_WITH_UNIT(LENGTH_MEASURE(0.01),#1024,
'DISTANCE_ACCURACY_VALUE',
'Maximum model space distance between geometric entities at asserted c
onnectivities');
#1021=UNCERTAINTY_MEASURE_WITH_UNIT(LENGTH_MEASURE(0.01),#1024,
'DISTANCE_ACCURACY_VALUE',
'Maximum model space distance between geometric entities at asserted c
onnectivities');
#1022=(
GEOMETRIC_REPRESENTATION_CONTEXT(3)
GLOBAL_UNCERTAINTY_ASSIGNED_CONTEXT((#1020))
GLOBAL_UNIT_ASSIGNED_CONTEXT((#1024,#1026,#1027))
REPRESENTATION_CONTEXT('','3D')
);
#1023=(
GEOMETRIC_REPRESENTATION_CONTEXT(3)
GLOBAL_UNCERTAINTY_ASSIGNED_CONTEXT((#1021))
GLOBAL_UNIT_ASSIGNED_CONTEXT((#1024,#1026,#1027))
REPRESENTATION_CONTEXT('','3D')
);
#1024=(
LENGTH_UNIT()
NAMED_UNIT(*)
SI_UNIT(.MILLI.,.METRE.)
);
#1025=(
LENGTH_UNIT()
NAMED_UNIT(*)
SI_UNIT($,.METRE.)
);
#1026=(
NAMED_UNIT(*)
PLANE_ANGLE_UNIT()
SI_UNIT($,.RADIAN.)
);
#1027=(
NAMED_UNIT(*)
SI_UNIT($,.STERADIAN.)
SOLID_ANGLE_UNIT()
);
#1028=SHAPE_DEFINITION_REPRESENTATION(#1029,#1030);
#1029=PRODUCT_DEFINITION_SHAPE('',$,#1032);
#1030=SHAPE_REPRESENTATION('',(#579),#1022);
#1031=PRODUCT_DEFINITION_CONTEXT('part definition',#1036,'design');
#1032=PRODUCT_DEFINITION('\X\C7\X\D0\X\B5\X\B6\X\D6\X\A7\X\BC\X\DC',
'filament cutter optimized v3',#1033,#1031);
#1033=PRODUCT_DEFINITION_FORMATION('',$,#1038);
#1034=PRODUCT_RELATED_PRODUCT_CATEGORY('filament cutter optimized v3',
'filament cutter optimized v3',(#1038));
#1035=APPLICATION_PROTOCOL_DEFINITION('international standard',
'automotive_design',2009,#1036);
#1036=APPLICATION_CONTEXT(
'Core Data for Automotive Mechanical Design Process');
#1037=PRODUCT_CONTEXT('part definition',#1036,'mechanical');
#1038=PRODUCT('\X\C7\X\D0\X\B5\X\B6\X\D6\X\A7\X\BC\X\DC',
'filament cutter optimized v3','STEP AP214',(#1037));
#1039=PRESENTATION_STYLE_ASSIGNMENT((#1041));
#1040=PRESENTATION_STYLE_ASSIGNMENT((#1042));
#1041=SURFACE_STYLE_USAGE(.BOTH.,#1043);
#1042=SURFACE_STYLE_USAGE(.BOTH.,#1044);
#1043=SURFACE_SIDE_STYLE('',(#1045));
#1044=SURFACE_SIDE_STYLE('',(#1046));
#1045=SURFACE_STYLE_FILL_AREA(#1047);
#1046=SURFACE_STYLE_FILL_AREA(#1048);
#1047=FILL_AREA_STYLE('Powder Coat - Rough (Dark Grey)',(#1049));
#1048=FILL_AREA_STYLE('Brass - Matte',(#1050));
#1049=FILL_AREA_STYLE_COLOUR('Powder Coat - Rough (Dark Grey)',#1051);
#1050=FILL_AREA_STYLE_COLOUR('Brass - Matte',#1052);
#1051=COLOUR_RGB('Powder Coat - Rough (Dark Grey)',0.349019607843137,0.349019607843137,
0.349019607843137);
#1052=COLOUR_RGB('Brass - Matte',0.952941176470588,0.796078431372549,0.486274509803922);
ENDSEC;
END-ISO-10303-21;
